# Generated from Laptop.obj, faces matching '\| Screen$', metres, origin at bottom centre
v 0.047957 0.008317 0.135458
v 0.045629 0.008317 0.137589
v 0.045629 0.013337 0.137589
v 0.047957 0.013337 0.135458
v 0.031772 0.008317 0.137589
v 0.029444 0.008317 0.135458
v 0.029444 0.013337 0.135458
v 0.031772 0.013337 0.137589
v 0.045629 0.008317 0.120638
v 0.047957 0.008317 0.122769
v 0.047957 0.013337 0.122769
v 0.045629 0.013337 0.120638
v 0.029444 0.008317 0.122769
v 0.031772 0.008317 0.120638
v 0.031772 0.013337 0.120638
v 0.029444 0.013337 0.122769
v 0.047957 0.008317 0.116039
v 0.045629 0.008317 0.118171
v 0.045629 0.013337 0.118171
v 0.047957 0.013337 0.116039
v 0.031772 0.008317 0.118171
v 0.029444 0.008317 0.116039
v 0.029444 0.013337 0.116039
v 0.031772 0.013337 0.118171
v 0.045629 0.008317 0.101219
v 0.047957 0.008317 0.103351
v 0.047957 0.013337 0.103351
v 0.045629 0.013337 0.101219
v 0.029444 0.008317 0.103351
v 0.031772 0.008317 0.101219
v 0.031772 0.013337 0.101219
v 0.029444 0.013337 0.103351
v 0.047957 0.008317 0.096639
v 0.045629 0.008317 0.09877
v 0.045629 0.013337 0.09877
v 0.047957 0.013337 0.096639
v 0.031772 0.008317 0.09877
v 0.029444 0.008317 0.096639
v 0.029444 0.013337 0.096639
v 0.031772 0.013337 0.09877
v 0.045629 0.008317 0.081818
v 0.047957 0.008317 0.08395
v 0.047957 0.013337 0.08395
v 0.045629 0.013337 0.081818
v 0.029444 0.008317 0.08395
v 0.031772 0.008317 0.081818
v 0.031772 0.013337 0.081818
v 0.029444 0.013337 0.08395
v 0.047957 0.008317 0.077191
v 0.045629 0.008317 0.079323
v 0.045629 0.013337 0.079323
v 0.047957 0.013337 0.077191
v 0.031772 0.008317 0.079323
v 0.029444 0.008317 0.077191
v 0.029444 0.013337 0.077191
v 0.031772 0.013337 0.079323
v 0.045629 0.008317 0.056821
v 0.047957 0.008317 0.058952
v 0.047957 0.013337 0.058952
v 0.045629 0.013337 0.056821
v 0.029444 0.008317 0.058952
v 0.031772 0.008317 0.056821
v 0.031772 0.013337 0.056821
v 0.029444 0.013337 0.058952
v 0.047957 0.008317 0.051993
v 0.045629 0.008317 0.054124
v 0.045629 0.013337 0.054124
v 0.047957 0.013337 0.051993
v 0.031772 0.008317 0.054124
v 0.029444 0.008317 0.051993
v 0.029444 0.013337 0.051993
v 0.031772 0.013337 0.054124
v 0.045629 0.008317 -0.038731
v 0.047957 0.008317 -0.0366
v 0.047957 0.013337 -0.0366
v 0.045629 0.013337 -0.038731
v 0.029444 0.008317 -0.0366
v 0.031772 0.008317 -0.038731
v 0.031772 0.013337 -0.038731
v 0.029444 0.013337 -0.0366
v 0.047957 0.008317 -0.043344
v 0.045629 0.008317 -0.041213
v 0.045629 0.013337 -0.041213
v 0.047957 0.013337 -0.043344
v 0.031772 0.008317 -0.041213
v 0.029444 0.008317 -0.043344
v 0.029444 0.013337 -0.043344
v 0.031772 0.013337 -0.041213
v 0.045629 0.008317 -0.063715
v 0.047957 0.008317 -0.061583
v 0.047957 0.013337 -0.061583
v 0.045629 0.013337 -0.063715
v 0.029444 0.008317 -0.061583
v 0.031772 0.008317 -0.063715
v 0.031772 0.013337 -0.063715
v 0.029444 0.013337 -0.061583
v 0.047957 0.008317 -0.068375
v 0.045629 0.008317 -0.066243
v 0.045629 0.013337 -0.066243
v 0.047957 0.013337 -0.068375
v 0.031772 0.008317 -0.066243
v 0.029444 0.008317 -0.068375
v 0.029444 0.013337 -0.068375
v 0.031772 0.013337 -0.066243
v 0.045629 0.008317 -0.083195
v 0.047957 0.008317 -0.081063
v 0.047957 0.013337 -0.081063
v 0.045629 0.013337 -0.083195
v 0.029444 0.008317 -0.081063
v 0.031772 0.008317 -0.083195
v 0.031772 0.013337 -0.083195
v 0.029444 0.013337 -0.081063
v 0.048008 0.008317 -0.087642
v 0.04568 0.008317 -0.08551
v 0.04568 0.013337 -0.08551
v 0.048008 0.013337 -0.087642
v 0.041151 0.008317 -0.08551
v 0.038823 0.008317 -0.087642
v 0.038823 0.013337 -0.087642
v 0.041151 0.013337 -0.08551
v 0.04568 0.008317 -0.10304
v 0.048008 0.008317 -0.100908
v 0.048008 0.013337 -0.100908
v 0.04568 0.013337 -0.10304
v 0.038823 0.008317 -0.100908
v 0.041151 0.008317 -0.10304
v 0.041151 0.013337 -0.10304
v 0.038823 0.013337 -0.100908
v 0.048008 0.008317 -0.107578
v 0.04568 0.008317 -0.105447
v 0.04568 0.013337 -0.105447
v 0.048008 0.013337 -0.107578
v 0.041151 0.008317 -0.105447
v 0.038823 0.008317 -0.107578
v 0.038823 0.013337 -0.107578
v 0.041151 0.013337 -0.105447
v 0.04568 0.008317 -0.122976
v 0.048008 0.008317 -0.120845
v 0.048008 0.013337 -0.120845
v 0.04568 0.013337 -0.122976
v 0.038823 0.008317 -0.120845
v 0.041151 0.008317 -0.122976
v 0.041151 0.013337 -0.122976
v 0.038823 0.013337 -0.120845
v 0.048008 0.008317 -0.127481
v 0.04568 0.008317 -0.12535
v 0.04568 0.013337 -0.12535
v 0.048008 0.013337 -0.127481
v 0.041151 0.008317 -0.12535
v 0.038823 0.008317 -0.127481
v 0.038823 0.013337 -0.127481
v 0.041151 0.013337 -0.12535
v 0.04568 0.008317 -0.142879
v 0.048008 0.008317 -0.140748
v 0.048008 0.013337 -0.140748
v 0.04568 0.013337 -0.142879
v 0.038823 0.008317 -0.140748
v 0.041151 0.008317 -0.142879
v 0.041151 0.013337 -0.142879
v 0.038823 0.013337 -0.140748
v 0.038377 0.008317 -0.107578
v 0.036049 0.008317 -0.105447
v 0.036049 0.013337 -0.105447
v 0.038377 0.013337 -0.107578
v 0.03152 0.008317 -0.105447
v 0.029193 0.008317 -0.107578
v 0.029193 0.013337 -0.107578
v 0.03152 0.013337 -0.105447
v 0.036049 0.008317 -0.122976
v 0.038377 0.008317 -0.120845
v 0.038377 0.013337 -0.120845
v 0.036049 0.013337 -0.122976
v 0.029193 0.008317 -0.120845
v 0.03152 0.008317 -0.122976
v 0.03152 0.013337 -0.122976
v 0.029193 0.013337 -0.120845
v 0.02658 0.008317 -0.101015
v 0.024252 0.008317 -0.098883
v 0.024252 0.013337 -0.098883
v 0.02658 0.013337 -0.101015
v 0.010395 0.008317 -0.098883
v 0.008067 0.008317 -0.101015
v 0.008067 0.013337 -0.101015
v 0.010395 0.013337 -0.098883
v 0.024252 0.008317 -0.142865
v 0.02658 0.008317 -0.140733
v 0.02658 0.013337 -0.140733
v 0.024252 0.013337 -0.142865
v 0.008067 0.008317 -0.140733
v 0.010395 0.008317 -0.142865
v 0.010395 0.013337 -0.142865
v 0.008067 0.013337 -0.140733
v 0.02663 0.008317 -0.081748
v 0.024302 0.008317 -0.079617
v 0.024302 0.013337 -0.079617
v 0.02663 0.013337 -0.081748
v 0.010445 0.008317 -0.079617
v 0.008117 0.008317 -0.081748
v 0.008117 0.013337 -0.081748
v 0.010445 0.013337 -0.079617
v 0.024302 0.008317 -0.096568
v 0.02663 0.008317 -0.094436
v 0.02663 0.013337 -0.094436
v 0.024302 0.013337 -0.096568
v 0.008117 0.008317 -0.094436
v 0.010445 0.008317 -0.096568
v 0.010445 0.013337 -0.096568
v 0.008117 0.013337 -0.094436
v 0.02663 0.008317 -0.062603
v 0.024302 0.008317 -0.060471
v 0.024302 0.013337 -0.060471
v 0.02663 0.013337 -0.062603
v 0.010445 0.008317 -0.060471
v 0.008117 0.008317 -0.062603
v 0.008117 0.013337 -0.062603
v 0.010445 0.013337 -0.060471
v 0.024302 0.008317 -0.077423
v 0.02663 0.008317 -0.075291
v 0.02663 0.013337 -0.075291
v 0.024302 0.013337 -0.077423
v 0.008117 0.008317 -0.075291
v 0.010445 0.008317 -0.077423
v 0.010445 0.013337 -0.077423
v 0.008117 0.013337 -0.075291
v 0.02663 0.008317 -0.043553
v 0.024302 0.008317 -0.041422
v 0.024302 0.013337 -0.041422
v 0.02663 0.013337 -0.043553
v 0.010445 0.008317 -0.041422
v 0.008117 0.008317 -0.043553
v 0.008117 0.013337 -0.043553
v 0.010445 0.013337 -0.041422
v 0.024302 0.008317 -0.058374
v 0.02663 0.008317 -0.056242
v 0.02663 0.013337 -0.056242
v 0.024302 0.013337 -0.058374
v 0.008117 0.008317 -0.056242
v 0.010445 0.008317 -0.058374
v 0.010445 0.013337 -0.058374
v 0.008117 0.013337 -0.056242
v 0.02663 0.008317 -0.024408
v 0.024302 0.008317 -0.022277
v 0.024302 0.013337 -0.022277
v 0.02663 0.013337 -0.024408
v 0.010445 0.008317 -0.022277
v 0.008117 0.008317 -0.024408
v 0.008117 0.013337 -0.024408
v 0.010445 0.013337 -0.022277
v 0.024302 0.008317 -0.039229
v 0.02663 0.008317 -0.037097
v 0.02663 0.013337 -0.037097
v 0.024302 0.013337 -0.039229
v 0.008117 0.008317 -0.037097
v 0.010445 0.008317 -0.039229
v 0.010445 0.013337 -0.039229
v 0.008117 0.013337 -0.037097
v 0.02663 0.008317 -0.005072
v 0.024302 0.008317 -0.00294
v 0.024302 0.013337 -0.00294
v 0.02663 0.013337 -0.005072
v 0.010445 0.008317 -0.00294
v 0.008117 0.008317 -0.005072
v 0.008117 0.013337 -0.005072
v 0.010445 0.013337 -0.00294
v 0.024302 0.008317 -0.019892
v 0.02663 0.008317 -0.01776
v 0.02663 0.013337 -0.01776
v 0.024302 0.013337 -0.019892
v 0.008117 0.008317 -0.01776
v 0.010445 0.008317 -0.019892
v 0.010445 0.013337 -0.019892
v 0.008117 0.013337 -0.01776
v 0.02663 0.008317 0.014073
v 0.024302 0.008317 0.016205
v 0.024302 0.013337 0.016205
v 0.02663 0.013337 0.014073
v 0.010445 0.008317 0.016205
v 0.008117 0.008317 0.014073
v 0.008117 0.013337 0.014073
v 0.010445 0.013337 0.016205
v 0.024302 0.008317 -0.000747
v 0.02663 0.008317 0.001385
v 0.02663 0.013337 0.001385
v 0.024302 0.013337 -0.000747
v 0.008117 0.008317 0.001385
v 0.010445 0.008317 -0.000747
v 0.010445 0.013337 -0.000747
v 0.008117 0.013337 0.001385
v 0.02663 0.008317 0.033123
v 0.024302 0.008317 0.035254
v 0.024302 0.013337 0.035254
v 0.02663 0.013337 0.033123
v 0.010445 0.008317 0.035254
v 0.008117 0.008317 0.033123
v 0.008117 0.013337 0.033123
v 0.010445 0.013337 0.035254
v 0.024302 0.008317 0.018303
v 0.02663 0.008317 0.020434
v 0.02663 0.013337 0.020434
v 0.024302 0.013337 0.018303
v 0.008117 0.008317 0.020434
v 0.010445 0.008317 0.018303
v 0.010445 0.013337 0.018303
v 0.008117 0.013337 0.020434
v 0.02663 0.008317 0.052268
v 0.024302 0.008317 0.054399
v 0.024302 0.013337 0.054399
v 0.02663 0.013337 0.052268
v 0.010445 0.008317 0.054399
v 0.008117 0.008317 0.052268
v 0.008117 0.013337 0.052268
v 0.010445 0.013337 0.054399
v 0.024302 0.008317 0.037448
v 0.02663 0.008317 0.039579
v 0.02663 0.013337 0.039579
v 0.024302 0.013337 0.037448
v 0.008117 0.008317 0.039579
v 0.010445 0.008317 0.037448
v 0.010445 0.013337 0.037448
v 0.008117 0.013337 0.039579
v 0.02663 0.008317 0.071509
v 0.024302 0.008317 0.073641
v 0.024302 0.013337 0.073641
v 0.02663 0.013337 0.071509
v 0.010445 0.008317 0.073641
v 0.008117 0.008317 0.071509
v 0.008117 0.013337 0.071509
v 0.010445 0.013337 0.073641
v 0.024302 0.008317 0.056689
v 0.02663 0.008317 0.05882
v 0.02663 0.013337 0.05882
v 0.024302 0.013337 0.056689
v 0.008117 0.008317 0.05882
v 0.010445 0.008317 0.056689
v 0.010445 0.013337 0.056689
v 0.008117 0.013337 0.05882
v 0.02663 0.008317 0.090654
v 0.024302 0.008317 0.092786
v 0.024302 0.013337 0.092786
v 0.02663 0.013337 0.090654
v 0.010445 0.008317 0.092786
v 0.008117 0.008317 0.090654
v 0.008117 0.013337 0.090654
v 0.010445 0.013337 0.092786
v 0.024302 0.008317 0.075834
v 0.02663 0.008317 0.077965
v 0.02663 0.013337 0.077965
v 0.024302 0.013337 0.075834
v 0.008117 0.008317 0.077965
v 0.010445 0.008317 0.075834
v 0.010445 0.013337 0.075834
v 0.008117 0.013337 0.077965
v 0.02658 0.008317 0.135428
v 0.024252 0.008317 0.13756
v 0.024252 0.013337 0.13756
v 0.02658 0.013337 0.135428
v 0.010395 0.008317 0.13756
v 0.008067 0.008317 0.135428
v 0.008067 0.013337 0.135428
v 0.010395 0.013337 0.13756
v 0.024252 0.008317 0.095273
v 0.02658 0.008317 0.097405
v 0.02658 0.013337 0.097405
v 0.024252 0.013337 0.095273
v 0.008067 0.008317 0.097405
v 0.010395 0.008317 0.095273
v 0.010395 0.013337 0.095273
v 0.008067 0.013337 0.097405
v 0.005494 0.008317 -0.091577
v 0.003166 0.008317 -0.089446
v 0.003166 0.013337 -0.089446
v 0.005494 0.013337 -0.091577
v -0.010691 0.008317 -0.089446
v -0.013019 0.008317 -0.091577
v -0.013019 0.013337 -0.091577
v -0.010691 0.013337 -0.089446
v 0.003166 0.008317 -0.106397
v 0.005494 0.008317 -0.104266
v 0.005494 0.013337 -0.104266
v 0.003166 0.013337 -0.106397
v -0.013019 0.008317 -0.104266
v -0.010691 0.008317 -0.106397
v -0.010691 0.013337 -0.106397
v -0.013019 0.013337 -0.104266
v 0.005494 0.008317 -0.072432
v 0.003166 0.008317 -0.070301
v 0.003166 0.013337 -0.070301
v 0.005494 0.013337 -0.072432
v -0.010691 0.008317 -0.070301
v -0.013019 0.008317 -0.072432
v -0.013019 0.013337 -0.072432
v -0.010691 0.013337 -0.070301
v 0.003166 0.008317 -0.087252
v 0.005494 0.008317 -0.085121
v 0.005494 0.013337 -0.085121
v 0.003166 0.013337 -0.087252
v -0.013019 0.008317 -0.085121
v -0.010691 0.008317 -0.087252
v -0.010691 0.013337 -0.087252
v -0.013019 0.013337 -0.085121
v 0.005494 0.008317 -0.053383
v 0.003166 0.008317 -0.051251
v 0.003166 0.013337 -0.051251
v 0.005494 0.013337 -0.053383
v -0.010691 0.008317 -0.051251
v -0.013019 0.008317 -0.053383
v -0.013019 0.013337 -0.053383
v -0.010691 0.013337 -0.051251
v 0.003166 0.008317 -0.068203
v 0.005494 0.008317 -0.066071
v 0.005494 0.013337 -0.066071
v 0.003166 0.013337 -0.068203
v -0.013019 0.008317 -0.066071
v -0.010691 0.008317 -0.068203
v -0.010691 0.013337 -0.068203
v -0.013019 0.013337 -0.066071
v 0.005494 0.008317 -0.034237
v 0.003166 0.008317 -0.032106
v 0.003166 0.013337 -0.032106
v 0.005494 0.013337 -0.034237
v -0.010691 0.008317 -0.032106
v -0.013019 0.008317 -0.034237
v -0.013019 0.013337 -0.034237
v -0.010691 0.013337 -0.032106
v 0.003166 0.008317 -0.049057
v 0.005494 0.008317 -0.046926
v 0.005494 0.013337 -0.046926
v 0.003166 0.013337 -0.049057
v -0.013019 0.008317 -0.046926
v -0.010691 0.008317 -0.049057
v -0.010691 0.013337 -0.049057
v -0.013019 0.013337 -0.046926
v 0.005494 0.008317 -0.014901
v 0.003166 0.008317 -0.012769
v 0.003166 0.013337 -0.012769
v 0.005494 0.013337 -0.014901
v -0.010691 0.008317 -0.012769
v -0.013019 0.008317 -0.014901
v -0.013019 0.013337 -0.014901
v -0.010691 0.013337 -0.012769
v 0.003166 0.008317 -0.029721
v 0.005494 0.008317 -0.027589
v 0.005494 0.013337 -0.027589
v 0.003166 0.013337 -0.029721
v -0.013019 0.008317 -0.027589
v -0.010691 0.008317 -0.029721
v -0.010691 0.013337 -0.029721
v -0.013019 0.013337 -0.027589
v 0.005494 0.008317 0.004244
v 0.003166 0.008317 0.006376
v 0.003166 0.013337 0.006376
v 0.005494 0.013337 0.004244
v -0.010691 0.008317 0.006376
v -0.013019 0.008317 0.004244
v -0.013019 0.013337 0.004244
v -0.010691 0.013337 0.006376
v 0.003166 0.008317 -0.010576
v 0.005494 0.008317 -0.008444
v 0.005494 0.013337 -0.008444
v 0.003166 0.013337 -0.010576
v -0.013019 0.008317 -0.008444
v -0.010691 0.008317 -0.010576
v -0.010691 0.013337 -0.010576
v -0.013019 0.013337 -0.008444
v 0.005494 0.008317 0.023294
v 0.003166 0.008317 0.025425
v 0.003166 0.013337 0.025425
v 0.005494 0.013337 0.023294
v -0.010691 0.008317 0.025425
v -0.013019 0.008317 0.023294
v -0.013019 0.013337 0.023294
v -0.010691 0.013337 0.025425
v 0.003166 0.008317 0.008474
v 0.005494 0.008317 0.010605
v 0.005494 0.013337 0.010605
v 0.003166 0.013337 0.008474
v -0.013019 0.008317 0.010605
v -0.010691 0.008317 0.008474
v -0.010691 0.013337 0.008474
v -0.013019 0.013337 0.010605
v 0.005494 0.008317 0.042439
v 0.003166 0.008317 0.04457
v 0.003166 0.013337 0.04457
v 0.005494 0.013337 0.042439
v -0.010691 0.008317 0.04457
v -0.013019 0.008317 0.042439
v -0.013019 0.013337 0.042439
v -0.010691 0.013337 0.04457
v 0.003166 0.008317 0.027619
v 0.005494 0.008317 0.029751
v 0.005494 0.013337 0.029751
v 0.003166 0.013337 0.027619
v -0.013019 0.008317 0.029751
v -0.010691 0.008317 0.027619
v -0.010691 0.013337 0.027619
v -0.013019 0.013337 0.029751
v 0.005494 0.008317 0.06168
v 0.003166 0.008317 0.063811
v 0.003166 0.013337 0.063811
v 0.005494 0.013337 0.06168
v -0.010691 0.008317 0.063811
v -0.013019 0.008317 0.06168
v -0.013019 0.013337 0.06168
v -0.010691 0.013337 0.063811
v 0.003166 0.008317 0.04686
v 0.005494 0.008317 0.048991
v 0.005494 0.013337 0.048991
v 0.003166 0.013337 0.04686
v -0.013019 0.008317 0.048991
v -0.010691 0.008317 0.04686
v -0.010691 0.013337 0.04686
v -0.013019 0.013337 0.048991
v 0.005494 0.008317 0.080825
v 0.003166 0.008317 0.082956
v 0.003166 0.013337 0.082956
v 0.005494 0.013337 0.080825
v -0.010691 0.008317 0.082956
v -0.013019 0.008317 0.080825
v -0.013019 0.013337 0.080825
v -0.010691 0.013337 0.082956
v 0.003166 0.008317 0.066005
v 0.005494 0.008317 0.068137
v 0.005494 0.013337 0.068137
v 0.003166 0.013337 0.066005
v -0.013019 0.008317 0.068137
v -0.010691 0.008317 0.066005
v -0.010691 0.013337 0.066005
v -0.013019 0.013337 0.068137
v 0.005494 0.008317 0.099894
v 0.003166 0.008317 0.102025
v 0.003166 0.013337 0.102025
v 0.005494 0.013337 0.099894
v -0.010691 0.008317 0.102025
v -0.013019 0.008317 0.099894
v -0.013019 0.013337 0.099894
v -0.010691 0.013337 0.102025
v 0.003166 0.008317 0.085074
v 0.005494 0.008317 0.087205
v 0.005494 0.013337 0.087205
v 0.003166 0.013337 0.085074
v -0.013019 0.008317 0.087205
v -0.010691 0.008317 0.085074
v -0.010691 0.013337 0.085074
v -0.013019 0.013337 0.087205
v -0.015705 0.008317 -0.08904
v -0.018033 0.008317 -0.086909
v -0.018033 0.013337 -0.086909
v -0.015705 0.013337 -0.08904
v -0.03189 0.008317 -0.086909
v -0.034218 0.008317 -0.08904
v -0.034218 0.013337 -0.08904
v -0.03189 0.013337 -0.086909
v -0.018033 0.008317 -0.10386
v -0.015705 0.008317 -0.101728
v -0.015705 0.013337 -0.101728
v -0.018033 0.013337 -0.10386
v -0.034218 0.008317 -0.101728
v -0.03189 0.008317 -0.10386
v -0.03189 0.013337 -0.10386
v -0.034218 0.013337 -0.101728
v -0.015705 0.008317 -0.069895
v -0.018033 0.008317 -0.067763
v -0.018033 0.013337 -0.067763
v -0.015705 0.013337 -0.069895
v -0.03189 0.008317 -0.067763
v -0.034218 0.008317 -0.069895
v -0.034218 0.013337 -0.069895
v -0.03189 0.013337 -0.067763
v -0.018033 0.008317 -0.084715
v -0.015705 0.008317 -0.082583
v -0.015705 0.013337 -0.082583
v -0.018033 0.013337 -0.084715
v -0.034218 0.008317 -0.082583
v -0.03189 0.008317 -0.084715
v -0.03189 0.013337 -0.084715
v -0.034218 0.013337 -0.082583
v -0.015705 0.008317 -0.050845
v -0.018033 0.008317 -0.048714
v -0.018033 0.013337 -0.048714
v -0.015705 0.013337 -0.050845
v -0.03189 0.008317 -0.048714
v -0.034218 0.008317 -0.050845
v -0.034218 0.013337 -0.050845
v -0.03189 0.013337 -0.048714
v -0.018033 0.008317 -0.065665
v -0.015705 0.008317 -0.063534
v -0.015705 0.013337 -0.063534
v -0.018033 0.013337 -0.065665
v -0.034218 0.008317 -0.063534
v -0.03189 0.008317 -0.065665
v -0.03189 0.013337 -0.065665
v -0.034218 0.013337 -0.063534
v -0.015705 0.008317 -0.030896
v -0.018033 0.008317 -0.028765
v -0.018033 0.013337 -0.028765
v -0.015705 0.013337 -0.030896
v -0.03189 0.008317 -0.028765
v -0.034218 0.008317 -0.030896
v -0.034218 0.013337 -0.030896
v -0.03189 0.013337 -0.028765
v -0.018033 0.008317 -0.045716
v -0.015705 0.008317 -0.043585
v -0.015705 0.013337 -0.043585
v -0.018033 0.013337 -0.045716
v -0.034218 0.008317 -0.043585
v -0.03189 0.008317 -0.045716
v -0.03189 0.013337 -0.045716
v -0.034218 0.013337 -0.043585
v -0.015705 0.008317 -0.011559
v -0.018033 0.008317 -0.009428
v -0.018033 0.013337 -0.009428
v -0.015705 0.013337 -0.011559
v -0.03189 0.008317 -0.009428
v -0.034218 0.008317 -0.011559
v -0.034218 0.013337 -0.011559
v -0.03189 0.013337 -0.009428
v -0.018033 0.008317 -0.026379
v -0.015705 0.008317 -0.024248
v -0.015705 0.013337 -0.024248
v -0.018033 0.013337 -0.026379
v -0.034218 0.008317 -0.024248
v -0.03189 0.008317 -0.026379
v -0.03189 0.013337 -0.026379
v -0.034218 0.013337 -0.024248
v -0.015705 0.008317 0.008275
v -0.018033 0.008317 0.010407
v -0.018033 0.013337 0.010407
v -0.015705 0.013337 0.008275
v -0.03189 0.008317 0.010407
v -0.034218 0.008317 0.008275
v -0.034218 0.013337 0.008275
v -0.03189 0.013337 0.010407
v -0.018033 0.008317 -0.006545
v -0.015705 0.008317 -0.004414
v -0.015705 0.013337 -0.004414
v -0.018033 0.013337 -0.006545
v -0.034218 0.008317 -0.004414
v -0.03189 0.008317 -0.006545
v -0.03189 0.013337 -0.006545
v -0.034218 0.013337 -0.004414
v -0.015705 0.008317 0.027324
v -0.018033 0.008317 0.029456
v -0.018033 0.013337 0.029456
v -0.015705 0.013337 0.027324
v -0.03189 0.008317 0.029456
v -0.034218 0.008317 0.027324
v -0.034218 0.013337 0.027324
v -0.03189 0.013337 0.029456
v -0.018033 0.008317 0.012504
v -0.015705 0.008317 0.014636
v -0.015705 0.013337 0.014636
v -0.018033 0.013337 0.012504
v -0.034218 0.008317 0.014636
v -0.03189 0.008317 0.012504
v -0.03189 0.013337 0.012504
v -0.034218 0.013337 0.014636
v -0.015705 0.008317 0.046929
v -0.018033 0.008317 0.049061
v -0.018033 0.013337 0.049061
v -0.015705 0.013337 0.046929
v -0.03189 0.008317 0.049061
v -0.034218 0.008317 0.046929
v -0.034218 0.013337 0.046929
v -0.03189 0.013337 0.049061
v -0.018033 0.008317 0.032109
v -0.015705 0.008317 0.03424
v -0.015705 0.013337 0.03424
v -0.018033 0.013337 0.032109
v -0.034218 0.008317 0.03424
v -0.03189 0.008317 0.032109
v -0.03189 0.013337 0.032109
v -0.034218 0.013337 0.03424
v -0.015705 0.008317 0.06617
v -0.018033 0.008317 0.068301
v -0.018033 0.013337 0.068301
v -0.015705 0.013337 0.06617
v -0.03189 0.008317 0.068301
v -0.034218 0.008317 0.06617
v -0.034218 0.013337 0.06617
v -0.03189 0.013337 0.068301
v -0.018033 0.008317 0.05135
v -0.015705 0.008317 0.053481
v -0.015705 0.013337 0.053481
v -0.018033 0.013337 0.05135
v -0.034218 0.008317 0.053481
v -0.03189 0.008317 0.05135
v -0.03189 0.013337 0.05135
v -0.034218 0.013337 0.053481
v -0.015705 0.008317 0.085545
v -0.018033 0.008317 0.087676
v -0.018033 0.013337 0.087676
v -0.015705 0.013337 0.085545
v -0.03189 0.008317 0.087676
v -0.034218 0.008317 0.085545
v -0.034218 0.013337 0.085545
v -0.03189 0.013337 0.087676
v -0.018033 0.008317 0.070725
v -0.015705 0.008317 0.072856
v -0.015705 0.013337 0.072856
v -0.018033 0.013337 0.070725
v -0.034218 0.008317 0.072856
v -0.03189 0.008317 0.070725
v -0.03189 0.013337 0.070725
v -0.034218 0.013337 0.072856
v -0.015705 0.008317 0.105092
v -0.018033 0.008317 0.107223
v -0.018033 0.013337 0.107223
v -0.015705 0.013337 0.105092
v -0.03189 0.008317 0.107223
v -0.034218 0.008317 0.105092
v -0.034218 0.013337 0.105092
v -0.03189 0.013337 0.107223
v -0.018033 0.008317 0.090272
v -0.015705 0.008317 0.092403
v -0.015705 0.013337 0.092403
v -0.018033 0.013337 0.090272
v -0.034218 0.008317 0.092403
v -0.03189 0.008317 0.090272
v -0.03189 0.013337 0.090272
v -0.034218 0.013337 0.092403
v 0.005354 0.008317 0.135493
v 0.003026 0.008317 0.137625
v 0.003026 0.013337 0.137625
v 0.005354 0.013337 0.135493
v -0.010831 0.008317 0.137625
v -0.013159 0.008317 0.135493
v -0.013159 0.013337 0.135493
v -0.010831 0.013337 0.137625
v 0.003026 0.008317 0.104306
v 0.005354 0.008317 0.106437
v 0.005354 0.013337 0.106437
v 0.003026 0.013337 0.104306
v -0.013159 0.008317 0.106437
v -0.010831 0.008317 0.104306
v -0.010831 0.013337 0.104306
v -0.013159 0.013337 0.106437
v -0.015722 0.008317 0.135487
v -0.01805 0.008317 0.137619
v -0.01805 0.013337 0.137619
v -0.015722 0.013337 0.135487
v -0.031907 0.008317 0.137619
v -0.034235 0.008317 0.135487
v -0.034235 0.013337 0.135487
v -0.031907 0.013337 0.137619
v -0.01805 0.008317 0.109549
v -0.015722 0.008317 0.111681
v -0.015722 0.013337 0.111681
v -0.01805 0.013337 0.109549
v -0.034235 0.008317 0.111681
v -0.031907 0.008317 0.109549
v -0.031907 0.013337 0.109549
v -0.034235 0.013337 0.111681
v 0.005354 0.008317 -0.11088
v 0.003026 0.008317 -0.108749
v 0.003026 0.013337 -0.108749
v 0.005354 0.013337 -0.11088
v -0.010831 0.008317 -0.108749
v -0.013159 0.008317 -0.11088
v -0.013159 0.013337 -0.11088
v -0.010831 0.013337 -0.108749
v 0.003026 0.008317 -0.142864
v 0.005354 0.008317 -0.140733
v 0.005354 0.013337 -0.140733
v 0.003026 0.013337 -0.142864
v -0.013159 0.008317 -0.140733
v -0.010831 0.008317 -0.142864
v -0.010831 0.013337 -0.142864
v -0.013159 0.013337 -0.140733
v -0.015705 0.008317 -0.127866
v -0.018033 0.008317 -0.125735
v -0.018033 0.013337 -0.125735
v -0.015705 0.013337 -0.127866
v -0.03189 0.008317 -0.125735
v -0.034218 0.008317 -0.127866
v -0.034218 0.013337 -0.127866
v -0.03189 0.013337 -0.125735
v -0.018033 0.008317 -0.142686
v -0.015705 0.008317 -0.140555
v -0.015705 0.013337 -0.140555
v -0.018033 0.013337 -0.142686
v -0.034218 0.008317 -0.140555
v -0.03189 0.008317 -0.142686
v -0.03189 0.013337 -0.142686
v -0.034218 0.013337 -0.140555
v -0.015705 0.008317 -0.108721
v -0.018033 0.008317 -0.10659
v -0.018033 0.013337 -0.10659
v -0.015705 0.013337 -0.108721
v -0.03189 0.008317 -0.10659
v -0.034218 0.008317 -0.108721
v -0.034218 0.013337 -0.108721
v -0.03189 0.013337 -0.10659
v -0.018033 0.008317 -0.123541
v -0.015705 0.008317 -0.12141
v -0.015705 0.013337 -0.12141
v -0.018033 0.013337 -0.123541
v -0.034218 0.008317 -0.12141
v -0.03189 0.008317 -0.123541
v -0.03189 0.013337 -0.123541
v -0.034218 0.013337 -0.12141
v -0.036846 0.008317 -0.077484
v -0.039174 0.008317 -0.075352
v -0.039174 0.013337 -0.075352
v -0.036846 0.013337 -0.077484
v -0.053031 0.008317 -0.075352
v -0.055359 0.008317 -0.077484
v -0.055359 0.013337 -0.077484
v -0.053031 0.013337 -0.075352
v -0.039174 0.008317 -0.092304
v -0.036846 0.008317 -0.090172
v -0.036846 0.013337 -0.090172
v -0.039174 0.013337 -0.092304
v -0.055359 0.008317 -0.090172
v -0.053031 0.008317 -0.092304
v -0.053031 0.013337 -0.092304
v -0.055359 0.013337 -0.090172
v -0.036846 0.008317 -0.057787
v -0.039174 0.008317 -0.055656
v -0.039174 0.013337 -0.055656
v -0.036846 0.013337 -0.057787
v -0.053031 0.008317 -0.055656
v -0.055359 0.008317 -0.057787
v -0.055359 0.013337 -0.057787
v -0.053031 0.013337 -0.055656
v -0.039174 0.008317 -0.072607
v -0.036846 0.008317 -0.070476
v -0.036846 0.013337 -0.070476
v -0.039174 0.013337 -0.072607
v -0.055359 0.008317 -0.070476
v -0.053031 0.008317 -0.072607
v -0.053031 0.013337 -0.072607
v -0.055359 0.013337 -0.070476
v -0.036846 0.008317 -0.038738
v -0.039174 0.008317 -0.036606
v -0.039174 0.013337 -0.036606
v -0.036846 0.013337 -0.038738
v -0.053031 0.008317 -0.036606
v -0.055359 0.008317 -0.038738
v -0.055359 0.013337 -0.038738
v -0.053031 0.013337 -0.036606
v -0.039174 0.008317 -0.053558
v -0.036846 0.008317 -0.051426
v -0.036846 0.013337 -0.051426
v -0.039174 0.013337 -0.053558
v -0.055359 0.008317 -0.051426
v -0.053031 0.008317 -0.053558
v -0.053031 0.013337 -0.053558
v -0.055359 0.013337 -0.051426
v -0.036846 0.008317 -0.019455
v -0.039174 0.008317 -0.017323
v -0.039174 0.013337 -0.017323
v -0.036846 0.013337 -0.019455
v -0.053031 0.008317 -0.017323
v -0.055359 0.008317 -0.019455
v -0.055359 0.013337 -0.019455
v -0.053031 0.013337 -0.017323
v -0.039174 0.008317 -0.034275
v -0.036846 0.008317 -0.032143
v -0.036846 0.013337 -0.032143
v -0.039174 0.013337 -0.034275
v -0.055359 0.008317 -0.032143
v -0.053031 0.008317 -0.034275
v -0.053031 0.013337 -0.034275
v -0.055359 0.013337 -0.032143
v -0.036846 0.008317 -0.000118
v -0.039174 0.008317 0.002013
v -0.039174 0.013337 0.002013
v -0.036846 0.013337 -0.000118
v -0.053031 0.008317 0.002013
v -0.055359 0.008317 -0.000118
v -0.055359 0.013337 -0.000118
v -0.053031 0.013337 0.002013
v -0.039174 0.008317 -0.014938
v -0.036846 0.008317 -0.012807
v -0.036846 0.013337 -0.012807
v -0.039174 0.013337 -0.014938
v -0.055359 0.008317 -0.012807
v -0.053031 0.008317 -0.014938
v -0.053031 0.013337 -0.014938
v -0.055359 0.013337 -0.012807
v -0.036846 0.008317 0.019578
v -0.039174 0.008317 0.02171
v -0.039174 0.013337 0.02171
v -0.036846 0.013337 0.019578
v -0.053031 0.008317 0.02171
v -0.055359 0.008317 0.019578
v -0.055359 0.013337 0.019578
v -0.053031 0.013337 0.02171
v -0.039174 0.008317 0.004758
v -0.036846 0.008317 0.00689
v -0.036846 0.013337 0.00689
v -0.039174 0.013337 0.004758
v -0.055359 0.008317 0.00689
v -0.053031 0.008317 0.004758
v -0.053031 0.013337 0.004758
v -0.055359 0.013337 0.00689
v -0.036846 0.008317 0.038627
v -0.039174 0.008317 0.040759
v -0.039174 0.013337 0.040759
v -0.036846 0.013337 0.038627
v -0.053031 0.008317 0.040759
v -0.055359 0.008317 0.038627
v -0.055359 0.013337 0.038627
v -0.053031 0.013337 0.040759
v -0.039174 0.008317 0.023808
v -0.036846 0.008317 0.025939
v -0.036846 0.013337 0.025939
v -0.039174 0.013337 0.023808
v -0.055359 0.008317 0.025939
v -0.053031 0.008317 0.023808
v -0.053031 0.013337 0.023808
v -0.055359 0.013337 0.025939
v -0.036846 0.008317 0.058186
v -0.039174 0.008317 0.060318
v -0.039174 0.013337 0.060318
v -0.036846 0.013337 0.058186
v -0.053031 0.008317 0.060318
v -0.055359 0.008317 0.058186
v -0.055359 0.013337 0.058186
v -0.053031 0.013337 0.060318
v -0.039174 0.008317 0.043366
v -0.036846 0.008317 0.045498
v -0.036846 0.013337 0.045498
v -0.039174 0.013337 0.043366
v -0.055359 0.008317 0.045498
v -0.053031 0.008317 0.043366
v -0.053031 0.013337 0.043366
v -0.055359 0.013337 0.045498
v -0.036846 0.008317 0.077427
v -0.039174 0.008317 0.079559
v -0.039174 0.013337 0.079559
v -0.036846 0.013337 0.077427
v -0.053031 0.008317 0.079559
v -0.055359 0.008317 0.077427
v -0.055359 0.013337 0.077427
v -0.053031 0.013337 0.079559
v -0.039174 0.008317 0.062607
v -0.036846 0.008317 0.064739
v -0.036846 0.013337 0.064739
v -0.039174 0.013337 0.062607
v -0.055359 0.008317 0.064739
v -0.053031 0.008317 0.062607
v -0.053031 0.013337 0.062607
v -0.055359 0.013337 0.064739
v -0.036846 0.008317 0.096986
v -0.039174 0.008317 0.099117
v -0.039174 0.013337 0.099117
v -0.036846 0.013337 0.096986
v -0.053031 0.008317 0.099117
v -0.055359 0.008317 0.096986
v -0.055359 0.013337 0.096986
v -0.053031 0.013337 0.099117
v -0.039174 0.008317 0.082166
v -0.036846 0.008317 0.084298
v -0.036846 0.013337 0.084298
v -0.039174 0.013337 0.082166
v -0.055359 0.008317 0.084298
v -0.053031 0.008317 0.082166
v -0.053031 0.013337 0.082166
v -0.055359 0.013337 0.084298
v -0.036846 0.008317 0.116055
v -0.039174 0.008317 0.118186
v -0.039174 0.013337 0.118186
v -0.036846 0.013337 0.116055
v -0.053031 0.008317 0.118186
v -0.055359 0.008317 0.116055
v -0.055359 0.013337 0.116055
v -0.053031 0.013337 0.118186
v -0.039174 0.008317 0.101235
v -0.036846 0.008317 0.103366
v -0.036846 0.013337 0.103366
v -0.039174 0.013337 0.101235
v -0.055359 0.008317 0.103366
v -0.053031 0.008317 0.101235
v -0.053031 0.013337 0.101235
v -0.055359 0.013337 0.103366
v -0.036846 0.008317 -0.096897
v -0.039174 0.008317 -0.094766
v -0.039174 0.013337 -0.094766
v -0.036846 0.013337 -0.096897
v -0.053031 0.008317 -0.094766
v -0.055359 0.008317 -0.096897
v -0.055359 0.013337 -0.096897
v -0.053031 0.013337 -0.094766
v -0.039174 0.008317 -0.111717
v -0.036846 0.008317 -0.109586
v -0.036846 0.013337 -0.109586
v -0.039174 0.013337 -0.111717
v -0.055359 0.008317 -0.109586
v -0.053031 0.008317 -0.111717
v -0.053031 0.013337 -0.111717
v -0.055359 0.013337 -0.109586
v -0.036923 0.008317 -0.11601
v -0.039251 0.008317 -0.113879
v -0.039251 0.013337 -0.113879
v -0.036923 0.013337 -0.11601
v -0.053108 0.008317 -0.113879
v -0.055436 0.008317 -0.11601
v -0.055436 0.013337 -0.11601
v -0.053108 0.013337 -0.113879
v -0.039251 0.008317 -0.143018
v -0.036923 0.008317 -0.140887
v -0.036923 0.013337 -0.140887
v -0.039251 0.013337 -0.143018
v -0.055436 0.008317 -0.140887
v -0.053108 0.008317 -0.143018
v -0.053108 0.013337 -0.143018
v -0.055436 0.013337 -0.140887
v -0.036846 0.008317 0.135491
v -0.039174 0.008317 0.137622
v -0.039174 0.013337 0.137622
v -0.036846 0.013337 0.135491
v -0.053031 0.008317 0.137622
v -0.055359 0.008317 0.135491
v -0.055359 0.013337 0.135491
v -0.053031 0.013337 0.137622
v -0.039174 0.008317 0.120671
v -0.036846 0.008317 0.122802
v -0.036846 0.013337 0.122802
v -0.039174 0.013337 0.120671
v -0.055359 0.008317 0.122802
v -0.053031 0.008317 0.120671
v -0.053031 0.013337 0.120671
v -0.055359 0.013337 0.122802
v -0.058198 0.008317 0.135449
v -0.060525 0.008317 0.13758
v -0.060525 0.013337 0.13758
v -0.058198 0.013337 0.135449
v -0.066831 0.008317 0.13758
v -0.069159 0.008317 0.135449
v -0.069159 0.013337 0.135449
v -0.066831 0.013337 0.13758
v -0.060525 0.008317 0.119755
v -0.058198 0.008317 0.121887
v -0.058198 0.013337 0.121887
v -0.060525 0.013337 0.119755
v -0.069159 0.008317 0.121887
v -0.066831 0.008317 0.119755
v -0.066831 0.013337 0.119755
v -0.069159 0.013337 0.121887
v -0.058198 0.008317 0.11525
v -0.060525 0.008317 0.117382
v -0.060525 0.013337 0.117382
v -0.058198 0.013337 0.11525
v -0.066831 0.008317 0.117382
v -0.069159 0.008317 0.11525
v -0.069159 0.013337 0.11525
v -0.066831 0.013337 0.117382
v -0.060525 0.008317 0.099557
v -0.058198 0.008317 0.101689
v -0.058198 0.013337 0.101689
v -0.060525 0.013337 0.099557
v -0.069159 0.008317 0.101689
v -0.066831 0.008317 0.099557
v -0.066831 0.013337 0.099557
v -0.069159 0.013337 0.101689
v -0.058198 0.008317 0.094957
v -0.060525 0.008317 0.097088
v -0.060525 0.013337 0.097088
v -0.058198 0.013337 0.094957
v -0.066831 0.008317 0.097088
v -0.069159 0.008317 0.094957
v -0.069159 0.013337 0.094957
v -0.066831 0.013337 0.097088
v -0.060525 0.008317 0.079263
v -0.058198 0.008317 0.081395
v -0.058198 0.013337 0.081395
v -0.060525 0.013337 0.079263
v -0.069159 0.008317 0.081395
v -0.066831 0.008317 0.079263
v -0.066831 0.013337 0.079263
v -0.069159 0.013337 0.081395
v -0.058198 0.008317 0.074759
v -0.060525 0.008317 0.07689
v -0.060525 0.013337 0.07689
v -0.058198 0.013337 0.074759
v -0.066831 0.008317 0.07689
v -0.069159 0.008317 0.074759
v -0.069159 0.013337 0.074759
v -0.066831 0.013337 0.07689
v -0.060525 0.008317 0.059065
v -0.058198 0.008317 0.061197
v -0.058198 0.013337 0.061197
v -0.060525 0.013337 0.059065
v -0.069159 0.008317 0.061197
v -0.066831 0.008317 0.059065
v -0.066831 0.013337 0.059065
v -0.069159 0.013337 0.061197
v -0.058198 0.008317 0.054465
v -0.060525 0.008317 0.056596
v -0.060525 0.013337 0.056596
v -0.058198 0.013337 0.054465
v -0.066831 0.008317 0.056596
v -0.069159 0.008317 0.054465
v -0.069159 0.013337 0.054465
v -0.066831 0.013337 0.056596
v -0.060525 0.008317 0.038771
v -0.058198 0.008317 0.040903
v -0.058198 0.013337 0.040903
v -0.060525 0.013337 0.038771
v -0.069159 0.008317 0.040903
v -0.066831 0.008317 0.038771
v -0.066831 0.013337 0.038771
v -0.069159 0.013337 0.040903
v -0.058198 0.008317 0.034267
v -0.060525 0.008317 0.036398
v -0.060525 0.013337 0.036398
v -0.058198 0.013337 0.034267
v -0.066831 0.008317 0.036398
v -0.069159 0.008317 0.034267
v -0.069159 0.013337 0.034267
v -0.066831 0.013337 0.036398
v -0.060525 0.008317 0.018573
v -0.058198 0.008317 0.020705
v -0.058198 0.013337 0.020705
v -0.060525 0.013337 0.018573
v -0.069159 0.008317 0.020705
v -0.066831 0.008317 0.018573
v -0.066831 0.013337 0.018573
v -0.069159 0.013337 0.020705
v -0.058198 0.008317 0.014164
v -0.060525 0.008317 0.016296
v -0.060525 0.013337 0.016296
v -0.058198 0.013337 0.014164
v -0.066831 0.008317 0.016296
v -0.069159 0.008317 0.014164
v -0.069159 0.013337 0.014164
v -0.066831 0.013337 0.016296
v -0.060525 0.008317 -0.001529
v -0.058198 0.008317 0.000602
v -0.058198 0.013337 0.000602
v -0.060525 0.013337 -0.001529
v -0.069159 0.008317 0.000602
v -0.066831 0.008317 -0.001529
v -0.066831 0.013337 -0.001529
v -0.069159 0.013337 0.000602
v -0.058198 0.008317 -0.006034
v -0.060525 0.008317 -0.003903
v -0.060525 0.013337 -0.003903
v -0.058198 0.013337 -0.006034
v -0.066831 0.008317 -0.003903
v -0.069159 0.008317 -0.006034
v -0.069159 0.013337 -0.006034
v -0.066831 0.013337 -0.003903
v -0.060525 0.008317 -0.021728
v -0.058198 0.008317 -0.019596
v -0.058198 0.013337 -0.019596
v -0.060525 0.013337 -0.021728
v -0.069159 0.008317 -0.019596
v -0.066831 0.008317 -0.021728
v -0.066831 0.013337 -0.021728
v -0.069159 0.013337 -0.019596
v -0.058198 0.008317 -0.026328
v -0.060525 0.008317 -0.024196
v -0.060525 0.013337 -0.024196
v -0.058198 0.013337 -0.026328
v -0.066831 0.008317 -0.024196
v -0.069159 0.008317 -0.026328
v -0.069159 0.013337 -0.026328
v -0.066831 0.013337 -0.024196
v -0.060525 0.008317 -0.042021
v -0.058198 0.008317 -0.03989
v -0.058198 0.013337 -0.03989
v -0.060525 0.013337 -0.042021
v -0.069159 0.008317 -0.03989
v -0.066831 0.008317 -0.042021
v -0.066831 0.013337 -0.042021
v -0.069159 0.013337 -0.03989
v -0.058198 0.008317 -0.046526
v -0.060525 0.008317 -0.044394
v -0.060525 0.013337 -0.044394
v -0.058198 0.013337 -0.046526
v -0.066831 0.008317 -0.044394
v -0.069159 0.008317 -0.046526
v -0.069159 0.013337 -0.046526
v -0.066831 0.013337 -0.044394
v -0.060525 0.008317 -0.06222
v -0.058198 0.008317 -0.060088
v -0.058198 0.013337 -0.060088
v -0.060525 0.013337 -0.06222
v -0.069159 0.008317 -0.060088
v -0.066831 0.008317 -0.06222
v -0.066831 0.013337 -0.06222
v -0.069159 0.013337 -0.060088
v -0.058198 0.008317 -0.066724
v -0.060525 0.008317 -0.064593
v -0.060525 0.013337 -0.064593
v -0.058198 0.013337 -0.066724
v -0.066831 0.008317 -0.064593
v -0.069159 0.008317 -0.066724
v -0.069159 0.013337 -0.066724
v -0.066831 0.013337 -0.064593
v -0.060525 0.008317 -0.082418
v -0.058198 0.008317 -0.080286
v -0.058198 0.013337 -0.080286
v -0.060525 0.013337 -0.082418
v -0.069159 0.008317 -0.080286
v -0.066831 0.008317 -0.082418
v -0.066831 0.013337 -0.082418
v -0.069159 0.013337 -0.080286
v -0.058198 0.008317 -0.086922
v -0.060525 0.008317 -0.084791
v -0.060525 0.013337 -0.084791
v -0.058198 0.013337 -0.086922
v -0.066831 0.008317 -0.084791
v -0.069159 0.008317 -0.086922
v -0.069159 0.013337 -0.086922
v -0.066831 0.013337 -0.084791
v -0.060525 0.008317 -0.102616
v -0.058198 0.008317 -0.100484
v -0.058198 0.013337 -0.100484
v -0.060525 0.013337 -0.102616
v -0.069159 0.008317 -0.100484
v -0.066831 0.008317 -0.102616
v -0.066831 0.013337 -0.102616
v -0.069159 0.013337 -0.100484
v -0.058198 0.008317 -0.107121
v -0.060525 0.008317 -0.104989
v -0.060525 0.013337 -0.104989
v -0.058198 0.013337 -0.107121
v -0.066831 0.008317 -0.104989
v -0.069159 0.008317 -0.107121
v -0.069159 0.013337 -0.107121
v -0.066831 0.013337 -0.104989
v -0.060525 0.008317 -0.122814
v -0.058198 0.008317 -0.120682
v -0.058198 0.013337 -0.120682
v -0.060525 0.013337 -0.122814
v -0.069159 0.008317 -0.120682
v -0.066831 0.008317 -0.122814
v -0.066831 0.013337 -0.122814
v -0.069159 0.013337 -0.120682
v -0.058198 0.008317 -0.127319
v -0.060525 0.008317 -0.125187
v -0.060525 0.013337 -0.125187
v -0.058198 0.013337 -0.127319
v -0.066831 0.008317 -0.125187
v -0.069159 0.008317 -0.127319
v -0.069159 0.013337 -0.127319
v -0.066831 0.013337 -0.125187
v -0.060525 0.008317 -0.143012
v -0.058198 0.008317 -0.140881
v -0.058198 0.013337 -0.140881
v -0.060525 0.013337 -0.143012
v -0.069159 0.008317 -0.140881
v -0.066831 0.008317 -0.143012
v -0.066831 0.013337 -0.143012
v -0.069159 0.013337 -0.140881
v 0.119662 0.010959 -0.153093
v 0.106707 0.010959 -0.164956
v 0.115868 0.010959 -0.161482
v 0.106707 0.010959 0.164956
v 0.119662 0.010959 0.153093
v 0.115868 0.010959 0.161482
v -0.081359 0.010959 -0.164956
v -0.094315 0.010959 -0.153093
v -0.09052 0.010959 -0.161481
v -0.094315 0.010959 0.153093
v -0.081359 0.010959 0.164956
v -0.09052 0.010959 0.161482
v 0.104738 0 -0.155892
v 0.106707 0.008297 -0.164956
v 0.10613 0.00243 -0.162301
v 0.109763 0 -0.15129
v 0.119662 0.008297 -0.153093
v 0.116763 0.00243 -0.152565
v 0.108291 0 -0.154544
v 0.115868 0.008297 -0.161482
v 0.113649 0.00243 -0.15945
v 0.109763 0 0.15129
v 0.119662 0.008297 0.153093
v 0.116763 0.00243 0.152565
v 0.104738 0 0.155892
v 0.106707 0.008297 0.164956
v 0.10613 0.00243 0.162301
v 0.108291 0 0.154544
v 0.115868 0.008297 0.161482
v 0.113649 0.00243 0.15945
v -0.084415 0 -0.15129
v -0.094315 0.008297 -0.153093
v -0.091415 0.00243 -0.152565
v -0.07939 0 -0.155892
v -0.081359 0.008297 -0.164956
v -0.080783 0.00243 -0.162301
v -0.082944 0 -0.154544
v -0.09052 0.008297 -0.161481
v -0.088301 0.00243 -0.15945
v -0.07939 0 0.155892
v -0.081359 0.008297 0.164956
v -0.080783 0.00243 0.162301
v -0.084415 0 0.15129
v -0.094315 0.008297 0.153093
v -0.091415 0.00243 0.152565
v -0.082944 0 0.154544
v -0.09052 0.008297 0.161482
v -0.088301 0.00243 0.15945
v 0.067516 0.010566 0.048697
v 0.056794 0.010566 0.035883
v 0.059935 0.010566 0.044944
v 0.056794 0.010566 -0.035883
v 0.067516 0.010566 -0.048697
v 0.059935 0.010566 -0.044944
v 0.109961 0.010566 0.035883
v 0.099239 0.010566 0.048697
v 0.106821 0.010566 0.044944
v 0.099239 0.010566 -0.048697
v 0.109961 0.010566 -0.035883
v 0.106821 0.010566 -0.044944
v 0.056323 0.010959 0.036519
v 0.056323 0.010959 -0.036518
v 0.059519 0.010959 0.04574
v 0.067235 0.010959 0.049559
v 0.067235 0.010959 -0.049559
v 0.059519 0.010959 -0.04574
v 0.110432 0.010959 -0.036518
v 0.110432 0.010959 0.036519
v 0.09952 0.010959 0.049559
v 0.107236 0.010959 0.04574
v 0.09952 0.010959 -0.049559
v 0.107236 0.010959 -0.04574
v -0.09315 0.000772 -0.113141
v -0.082719 0.00259 -0.113141
v -0.081653 0.006977 -0.113141
v -0.082719 0.011364 -0.113141
v -0.09315 0.013182 -0.113141
v -0.095722 0.011364 -0.113141
v -0.096787 0.006977 -0.113141
v -0.095722 0.00259 -0.113141
v -0.09315 0.000772 0.104892
v -0.082719 0.00259 0.104892
v -0.081653 0.006977 0.104892
v -0.082719 0.011364 0.104892
v -0.096787 0.006977 0.104892
v -0.09315 0.013182 0.104892
v -0.095722 0.011364 0.104892
v -0.095722 0.00259 0.104892
v -0.094871 0.017763 -0.151599
v -0.095471 0.024121 -0.157447
v -0.095047 0.019625 -0.155734
v -0.095471 0.024121 0.157447
v -0.094871 0.017763 0.1516
v -0.095047 0.019625 0.155734
v -0.112845 0.208106 -0.157447
v -0.113446 0.214464 -0.1516
v -0.11327 0.212602 -0.155734
v -0.113446 0.214464 0.1516
v -0.112845 0.208106 0.157447
v -0.11327 0.212602 0.155734
v -0.101879 0.023855 -0.155892
v -0.096867 0.022351 -0.164956
v -0.100334 0.022603 -0.162301
v -0.101407 0.018852 -0.15129
v -0.095649 0.009453 -0.153093
v -0.099335 0.012017 -0.152565
v -0.101545 0.020318 -0.154544
v -0.096005 0.01323 -0.161481
v -0.099628 0.015117 -0.15945
v -0.101407 0.018852 0.15129
v -0.095649 0.009453 0.153093
v -0.099335 0.012017 0.152565
v -0.101879 0.023855 0.155892
v -0.096867 0.022351 0.164956
v -0.100334 0.022603 0.162301
v -0.101545 0.020318 0.154544
v -0.096005 0.01323 0.161482
v -0.099628 0.015117 0.15945
v -0.119662 0.212171 -0.15129
v -0.115765 0.222482 -0.153093
v -0.118906 0.219273 -0.152565
v -0.11919 0.207168 -0.155892
v -0.114547 0.209584 -0.164956
v -0.117907 0.208687 -0.162301
v -0.119524 0.210705 -0.154544
v -0.115409 0.218704 -0.161482
v -0.118613 0.216173 -0.15945
v -0.11919 0.207168 0.155892
v -0.114547 0.209584 0.164956
v -0.117907 0.208687 0.162301
v -0.119662 0.212171 0.15129
v -0.115765 0.222482 0.153093
v -0.118906 0.219273 0.152565
v -0.119524 0.210705 0.154544
v -0.115409 0.218704 0.161482
v -0.118613 0.216173 0.15945
v -0.094457 0.013377 -0.161481
v -0.0941 0.009599 -0.153093
v -0.095318 0.022497 -0.164956
v -0.112999 0.20973 0.164956
v -0.11386 0.21885 0.161482
v -0.114217 0.222628 0.153093
v -0.094457 0.013377 0.161482
v -0.095318 0.022497 0.164956
v -0.0941 0.009599 0.153093
v -0.11386 0.21885 -0.161482
v -0.112999 0.20973 -0.164956
v -0.114217 0.222628 -0.153093
vt 0.375000 0.781436
vt 0.625000 0.781436
vt 0.625000 0.968564
vt 0.375000 0.968564
vt 0.375000 0.531436
vt 0.625000 0.531436
vt 0.625000 0.718564
vt 0.375000 0.718564
vt 0.656436 0.500000
vt 0.843564 0.500000
vt 0.875000 0.531436
vt 0.875000 0.718564
vt 0.843564 0.750000
vt 0.656436 0.750000
vt 0.375000 0.031436
vt 0.625000 0.031436
vt 0.625000 0.218564
vt 0.375000 0.218564
vt 0.375000 0.281436
vt 0.625000 0.281436
vt 0.625000 0.468564
vt 0.375000 0.468564
vt 0.375000 0.781436
vt 0.625000 0.781436
vt 0.625000 0.968564
vt 0.375000 0.968564
vt 0.375000 0.531436
vt 0.625000 0.531436
vt 0.625000 0.718564
vt 0.375000 0.718564
vt 0.656436 0.500000
vt 0.843564 0.500000
vt 0.875000 0.531436
vt 0.875000 0.718564
vt 0.843564 0.750000
vt 0.656436 0.750000
vt 0.375000 0.031436
vt 0.625000 0.031436
vt 0.625000 0.218564
vt 0.375000 0.218564
vt 0.375000 0.281436
vt 0.625000 0.281436
vt 0.625000 0.468564
vt 0.375000 0.468564
vt 0.375000 0.781436
vt 0.625000 0.781436
vt 0.625000 0.968564
vt 0.375000 0.968564
vt 0.375000 0.531436
vt 0.625000 0.531436
vt 0.625000 0.718564
vt 0.375000 0.718564
vt 0.656436 0.500000
vt 0.843564 0.500000
vt 0.875000 0.531436
vt 0.875000 0.718564
vt 0.843564 0.750000
vt 0.656436 0.750000
vt 0.375000 0.031436
vt 0.625000 0.031436
vt 0.625000 0.218564
vt 0.375000 0.218564
vt 0.375000 0.281436
vt 0.625000 0.281436
vt 0.625000 0.468564
vt 0.375000 0.468564
vt 0.375000 0.773682
vt 0.625000 0.773682
vt 0.625000 0.976318
vt 0.375000 0.976318
vt 0.375000 0.531436
vt 0.625000 0.531436
vt 0.625000 0.718564
vt 0.375000 0.718564
vt 0.648682 0.500000
vt 0.851318 0.500000
vt 0.875000 0.531436
vt 0.875000 0.718564
vt 0.851318 0.750000
vt 0.648682 0.750000
vt 0.375000 0.031436
vt 0.625000 0.031436
vt 0.625000 0.218564
vt 0.375000 0.218564
vt 0.375000 0.273682
vt 0.625000 0.273682
vt 0.625000 0.476318
vt 0.375000 0.476318
vt 0.375000 0.755739
vt 0.625000 0.755739
vt 0.625000 0.994261
vt 0.375000 0.994261
vt 0.375000 0.531436
vt 0.625000 0.531436
vt 0.625000 0.718564
vt 0.375000 0.718564
vt 0.630739 0.500000
vt 0.869261 0.500000
vt 0.875000 0.531436
vt 0.875000 0.718564
vt 0.869261 0.750000
vt 0.630739 0.750000
vt 0.375000 0.031436
vt 0.625000 0.031436
vt 0.625000 0.218564
vt 0.375000 0.218564
vt 0.375000 0.255739
vt 0.625000 0.255739
vt 0.625000 0.494261
vt 0.375000 0.494261
vt 0.375000 0.773682
vt 0.625000 0.773682
vt 0.625000 0.976318
vt 0.375000 0.976318
vt 0.375000 0.531436
vt 0.625000 0.531436
vt 0.625000 0.718564
vt 0.375000 0.718564
vt 0.648682 0.500000
vt 0.851318 0.500000
vt 0.875000 0.531436
vt 0.875000 0.718564
vt 0.851318 0.750000
vt 0.648682 0.750000
vt 0.375000 0.031436
vt 0.625000 0.031436
vt 0.625000 0.218564
vt 0.375000 0.218564
vt 0.375000 0.273682
vt 0.625000 0.273682
vt 0.625000 0.476318
vt 0.375000 0.476318
vt 0.375000 0.781436
vt 0.625000 0.781436
vt 0.625000 0.968564
vt 0.375000 0.968564
vt 0.375000 0.531436
vt 0.625000 0.531436
vt 0.625000 0.718564
vt 0.375000 0.718564
vt 0.656436 0.500000
vt 0.843564 0.500000
vt 0.875000 0.531436
vt 0.875000 0.718564
vt 0.843564 0.750000
vt 0.656436 0.750000
vt 0.375000 0.031436
vt 0.625000 0.031436
vt 0.625000 0.218564
vt 0.375000 0.218564
vt 0.375000 0.281436
vt 0.625000 0.281436
vt 0.625000 0.468564
vt 0.375000 0.468564
vt 0.375000 0.780400
vt 0.625000 0.780400
vt 0.625000 0.969600
vt 0.375000 0.969600
vt 0.375000 0.563363
vt 0.625000 0.563363
vt 0.625000 0.686637
vt 0.375000 0.686637
vt 0.655400 0.500000
vt 0.844600 0.500000
vt 0.875000 0.563363
vt 0.875000 0.686637
vt 0.844600 0.750000
vt 0.655400 0.750000
vt 0.375000 0.063363
vt 0.625000 0.063363
vt 0.625000 0.186637
vt 0.375000 0.186637
vt 0.375000 0.280400
vt 0.625000 0.280400
vt 0.625000 0.469600
vt 0.375000 0.469600
vt 0.375000 0.780400
vt 0.625000 0.780400
vt 0.625000 0.969600
vt 0.375000 0.969600
vt 0.375000 0.563363
vt 0.625000 0.563363
vt 0.625000 0.686637
vt 0.375000 0.686637
vt 0.655400 0.500000
vt 0.844600 0.500000
vt 0.875000 0.563363
vt 0.875000 0.686637
vt 0.844600 0.750000
vt 0.655400 0.750000
vt 0.375000 0.063363
vt 0.625000 0.063363
vt 0.625000 0.186637
vt 0.375000 0.186637
vt 0.375000 0.280400
vt 0.625000 0.280400
vt 0.625000 0.469600
vt 0.375000 0.469600
vt 0.375000 0.780400
vt 0.625000 0.780400
vt 0.625000 0.969600
vt 0.375000 0.969600
vt 0.375000 0.563363
vt 0.625000 0.563363
vt 0.625000 0.686637
vt 0.375000 0.686637
vt 0.655400 0.500000
vt 0.844600 0.500000
vt 0.875000 0.563363
vt 0.875000 0.686637
vt 0.844600 0.750000
vt 0.655400 0.750000
vt 0.375000 0.063363
vt 0.625000 0.063363
vt 0.625000 0.186637
vt 0.375000 0.186637
vt 0.375000 0.280400
vt 0.625000 0.280400
vt 0.625000 0.469600
vt 0.375000 0.469600
vt 0.375000 0.780400
vt 0.625000 0.780400
vt 0.625000 0.969600
vt 0.375000 0.969600
vt 0.375000 0.563363
vt 0.625000 0.563363
vt 0.625000 0.686637
vt 0.375000 0.686637
vt 0.655400 0.500000
vt 0.844600 0.500000
vt 0.875000 0.563363
vt 0.875000 0.686637
vt 0.844600 0.750000
vt 0.655400 0.750000
vt 0.375000 0.063363
vt 0.625000 0.063363
vt 0.625000 0.186637
vt 0.375000 0.186637
vt 0.375000 0.280400
vt 0.625000 0.280400
vt 0.625000 0.469600
vt 0.375000 0.469600
vt 0.375000 0.762116
vt 0.625000 0.762116
vt 0.625000 0.987884
vt 0.375000 0.987884
vt 0.375000 0.531436
vt 0.625000 0.531436
vt 0.625000 0.718564
vt 0.375000 0.718564
vt 0.637116 0.500000
vt 0.862884 0.500000
vt 0.875000 0.531436
vt 0.875000 0.718564
vt 0.862884 0.750000
vt 0.637116 0.750000
vt 0.375000 0.031436
vt 0.625000 0.031436
vt 0.625000 0.218564
vt 0.375000 0.218564
vt 0.375000 0.262116
vt 0.625000 0.262116
vt 0.625000 0.487884
vt 0.375000 0.487884
vt 0.375000 0.781436
vt 0.625000 0.781436
vt 0.625000 0.968564
vt 0.375000 0.968564
vt 0.375000 0.531436
vt 0.625000 0.531436
vt 0.625000 0.718564
vt 0.375000 0.718564
vt 0.656436 0.500000
vt 0.843564 0.500000
vt 0.875000 0.531436
vt 0.875000 0.718564
vt 0.843564 0.750000
vt 0.656436 0.750000
vt 0.375000 0.031436
vt 0.625000 0.031436
vt 0.625000 0.218564
vt 0.375000 0.218564
vt 0.375000 0.281436
vt 0.625000 0.281436
vt 0.625000 0.468564
vt 0.375000 0.468564
vt 0.375000 0.781436
vt 0.625000 0.781436
vt 0.625000 0.968564
vt 0.375000 0.968564
vt 0.375000 0.531436
vt 0.625000 0.531436
vt 0.625000 0.718564
vt 0.375000 0.718564
vt 0.656436 0.500000
vt 0.843564 0.500000
vt 0.875000 0.531436
vt 0.875000 0.718564
vt 0.843564 0.750000
vt 0.656436 0.750000
vt 0.375000 0.031436
vt 0.625000 0.031436
vt 0.625000 0.218564
vt 0.375000 0.218564
vt 0.375000 0.281436
vt 0.625000 0.281436
vt 0.625000 0.468564
vt 0.375000 0.468564
vt 0.375000 0.781436
vt 0.625000 0.781436
vt 0.625000 0.968564
vt 0.375000 0.968564
vt 0.375000 0.531436
vt 0.625000 0.531436
vt 0.625000 0.718564
vt 0.375000 0.718564
vt 0.656436 0.500000
vt 0.843564 0.500000
vt 0.875000 0.531436
vt 0.875000 0.718564
vt 0.843564 0.750000
vt 0.656436 0.750000
vt 0.375000 0.031436
vt 0.625000 0.031436
vt 0.625000 0.218564
vt 0.375000 0.218564
vt 0.375000 0.281436
vt 0.625000 0.281436
vt 0.625000 0.468564
vt 0.375000 0.468564
vt 0.375000 0.781436
vt 0.625000 0.781436
vt 0.625000 0.968564
vt 0.375000 0.968564
vt 0.375000 0.531436
vt 0.625000 0.531436
vt 0.625000 0.718564
vt 0.375000 0.718564
vt 0.656436 0.500000
vt 0.843564 0.500000
vt 0.875000 0.531436
vt 0.875000 0.718564
vt 0.843564 0.750000
vt 0.656436 0.750000
vt 0.375000 0.031436
vt 0.625000 0.031436
vt 0.625000 0.218564
vt 0.375000 0.218564
vt 0.375000 0.281436
vt 0.625000 0.281436
vt 0.625000 0.468564
vt 0.375000 0.468564
vt 0.375000 0.781436
vt 0.625000 0.781436
vt 0.625000 0.968564
vt 0.375000 0.968564
vt 0.375000 0.531436
vt 0.625000 0.531436
vt 0.625000 0.718564
vt 0.375000 0.718564
vt 0.656436 0.500000
vt 0.843564 0.500000
vt 0.875000 0.531436
vt 0.875000 0.718564
vt 0.843564 0.750000
vt 0.656436 0.750000
vt 0.375000 0.031436
vt 0.625000 0.031436
vt 0.625000 0.218564
vt 0.375000 0.218564
vt 0.375000 0.281436
vt 0.625000 0.281436
vt 0.625000 0.468564
vt 0.375000 0.468564
vt 0.375000 0.781436
vt 0.625000 0.781436
vt 0.625000 0.968564
vt 0.375000 0.968564
vt 0.375000 0.531436
vt 0.625000 0.531436
vt 0.625000 0.718564
vt 0.375000 0.718564
vt 0.656436 0.500000
vt 0.843564 0.500000
vt 0.875000 0.531436
vt 0.875000 0.718564
vt 0.843564 0.750000
vt 0.656436 0.750000
vt 0.375000 0.031436
vt 0.625000 0.031436
vt 0.625000 0.218564
vt 0.375000 0.218564
vt 0.375000 0.281436
vt 0.625000 0.281436
vt 0.625000 0.468564
vt 0.375000 0.468564
vt 0.375000 0.781436
vt 0.625000 0.781436
vt 0.625000 0.968564
vt 0.375000 0.968564
vt 0.375000 0.531436
vt 0.625000 0.531436
vt 0.625000 0.718564
vt 0.375000 0.718564
vt 0.656436 0.500000
vt 0.843564 0.500000
vt 0.875000 0.531436
vt 0.875000 0.718564
vt 0.843564 0.750000
vt 0.656436 0.750000
vt 0.375000 0.031436
vt 0.625000 0.031436
vt 0.625000 0.218564
vt 0.375000 0.218564
vt 0.375000 0.281436
vt 0.625000 0.281436
vt 0.625000 0.468564
vt 0.375000 0.468564
vt 0.375000 0.781436
vt 0.625000 0.781436
vt 0.625000 0.968564
vt 0.375000 0.968564
vt 0.375000 0.531436
vt 0.625000 0.531436
vt 0.625000 0.718564
vt 0.375000 0.718564
vt 0.656436 0.500000
vt 0.843564 0.500000
vt 0.875000 0.531436
vt 0.875000 0.718564
vt 0.843564 0.750000
vt 0.656436 0.750000
vt 0.375000 0.031436
vt 0.625000 0.031436
vt 0.625000 0.218564
vt 0.375000 0.218564
vt 0.375000 0.281436
vt 0.625000 0.281436
vt 0.625000 0.468564
vt 0.375000 0.468564
vt 0.375000 0.781436
vt 0.625000 0.781436
vt 0.625000 0.968564
vt 0.375000 0.968564
vt 0.375000 0.531436
vt 0.625000 0.531436
vt 0.625000 0.718564
vt 0.375000 0.718564
vt 0.656436 0.500000
vt 0.843564 0.500000
vt 0.875000 0.531436
vt 0.875000 0.718564
vt 0.843564 0.750000
vt 0.656436 0.750000
vt 0.375000 0.031436
vt 0.625000 0.031436
vt 0.625000 0.218564
vt 0.375000 0.218564
vt 0.375000 0.281436
vt 0.625000 0.281436
vt 0.625000 0.468564
vt 0.375000 0.468564
vt 0.375000 0.781436
vt 0.625000 0.781436
vt 0.625000 0.968564
vt 0.375000 0.968564
vt 0.375000 0.531436
vt 0.625000 0.531436
vt 0.625000 0.718564
vt 0.375000 0.718564
vt 0.656436 0.500000
vt 0.843564 0.500000
vt 0.875000 0.531436
vt 0.875000 0.718564
vt 0.843564 0.750000
vt 0.656436 0.750000
vt 0.375000 0.031436
vt 0.625000 0.031436
vt 0.625000 0.218564
vt 0.375000 0.218564
vt 0.375000 0.281436
vt 0.625000 0.281436
vt 0.625000 0.468564
vt 0.375000 0.468564
vt 0.375000 0.762602
vt 0.625000 0.762602
vt 0.625000 0.987398
vt 0.375000 0.987398
vt 0.375000 0.531436
vt 0.625000 0.531436
vt 0.625000 0.718564
vt 0.375000 0.718564
vt 0.637602 0.500000
vt 0.862398 0.500000
vt 0.875000 0.531436
vt 0.875000 0.718564
vt 0.862398 0.750000
vt 0.637602 0.750000
vt 0.375000 0.031436
vt 0.625000 0.031436
vt 0.625000 0.218564
vt 0.375000 0.218564
vt 0.375000 0.262602
vt 0.625000 0.262602
vt 0.625000 0.487398
vt 0.375000 0.487398
vt 0.375000 0.781436
vt 0.625000 0.781436
vt 0.625000 0.968564
vt 0.375000 0.968564
vt 0.375000 0.531436
vt 0.625000 0.531436
vt 0.625000 0.718564
vt 0.375000 0.718564
vt 0.656436 0.500000
vt 0.843564 0.500000
vt 0.875000 0.531436
vt 0.875000 0.718564
vt 0.843564 0.750000
vt 0.656436 0.750000
vt 0.375000 0.031436
vt 0.625000 0.031436
vt 0.625000 0.218564
vt 0.375000 0.218564
vt 0.375000 0.281436
vt 0.625000 0.281436
vt 0.625000 0.468564
vt 0.375000 0.468564
vt 0.375000 0.781436
vt 0.625000 0.781436
vt 0.625000 0.968564
vt 0.375000 0.968564
vt 0.375000 0.531436
vt 0.625000 0.531436
vt 0.625000 0.718564
vt 0.375000 0.718564
vt 0.656436 0.500000
vt 0.843564 0.500000
vt 0.875000 0.531436
vt 0.875000 0.718564
vt 0.843564 0.750000
vt 0.656436 0.750000
vt 0.375000 0.031436
vt 0.625000 0.031436
vt 0.625000 0.218564
vt 0.375000 0.218564
vt 0.375000 0.281436
vt 0.625000 0.281436
vt 0.625000 0.468564
vt 0.375000 0.468564
vt 0.375000 0.781436
vt 0.625000 0.781436
vt 0.625000 0.968564
vt 0.375000 0.968564
vt 0.375000 0.531436
vt 0.625000 0.531436
vt 0.625000 0.718564
vt 0.375000 0.718564
vt 0.656436 0.500000
vt 0.843564 0.500000
vt 0.875000 0.531436
vt 0.875000 0.718564
vt 0.843564 0.750000
vt 0.656436 0.750000
vt 0.375000 0.031436
vt 0.625000 0.031436
vt 0.625000 0.218564
vt 0.375000 0.218564
vt 0.375000 0.281436
vt 0.625000 0.281436
vt 0.625000 0.468564
vt 0.375000 0.468564
vt 0.375000 0.781436
vt 0.625000 0.781436
vt 0.625000 0.968564
vt 0.375000 0.968564
vt 0.375000 0.531436
vt 0.625000 0.531436
vt 0.625000 0.718564
vt 0.375000 0.718564
vt 0.656436 0.500000
vt 0.843564 0.500000
vt 0.875000 0.531436
vt 0.875000 0.718564
vt 0.843564 0.750000
vt 0.656436 0.750000
vt 0.375000 0.031436
vt 0.625000 0.031436
vt 0.625000 0.218564
vt 0.375000 0.218564
vt 0.375000 0.281436
vt 0.625000 0.281436
vt 0.625000 0.468564
vt 0.375000 0.468564
vt 0.375000 0.781436
vt 0.625000 0.781436
vt 0.625000 0.968564
vt 0.375000 0.968564
vt 0.375000 0.531436
vt 0.625000 0.531436
vt 0.625000 0.718564
vt 0.375000 0.718564
vt 0.656436 0.500000
vt 0.843564 0.500000
vt 0.875000 0.531436
vt 0.875000 0.718564
vt 0.843564 0.750000
vt 0.656436 0.750000
vt 0.375000 0.031436
vt 0.625000 0.031436
vt 0.625000 0.218564
vt 0.375000 0.218564
vt 0.375000 0.281436
vt 0.625000 0.281436
vt 0.625000 0.468564
vt 0.375000 0.468564
vt 0.375000 0.781436
vt 0.625000 0.781436
vt 0.625000 0.968564
vt 0.375000 0.968564
vt 0.375000 0.531436
vt 0.625000 0.531436
vt 0.625000 0.718564
vt 0.375000 0.718564
vt 0.656436 0.500000
vt 0.843564 0.500000
vt 0.875000 0.531436
vt 0.875000 0.718564
vt 0.843564 0.750000
vt 0.656436 0.750000
vt 0.375000 0.031436
vt 0.625000 0.031436
vt 0.625000 0.218564
vt 0.375000 0.218564
vt 0.375000 0.281436
vt 0.625000 0.281436
vt 0.625000 0.468564
vt 0.375000 0.468564
vt 0.375000 0.781436
vt 0.625000 0.781436
vt 0.625000 0.968564
vt 0.375000 0.968564
vt 0.375000 0.531436
vt 0.625000 0.531436
vt 0.625000 0.718564
vt 0.375000 0.718564
vt 0.656436 0.500000
vt 0.843564 0.500000
vt 0.875000 0.531436
vt 0.875000 0.718564
vt 0.843564 0.750000
vt 0.656436 0.750000
vt 0.375000 0.031436
vt 0.625000 0.031436
vt 0.625000 0.218564
vt 0.375000 0.218564
vt 0.375000 0.281436
vt 0.625000 0.281436
vt 0.625000 0.468564
vt 0.375000 0.468564
vt 0.375000 0.781436
vt 0.625000 0.781436
vt 0.625000 0.968564
vt 0.375000 0.968564
vt 0.375000 0.531436
vt 0.625000 0.531436
vt 0.625000 0.718564
vt 0.375000 0.718564
vt 0.656436 0.500000
vt 0.843564 0.500000
vt 0.875000 0.531436
vt 0.875000 0.718564
vt 0.843564 0.750000
vt 0.656436 0.750000
vt 0.375000 0.031436
vt 0.625000 0.031436
vt 0.625000 0.218564
vt 0.375000 0.218564
vt 0.375000 0.281436
vt 0.625000 0.281436
vt 0.625000 0.468564
vt 0.375000 0.468564
vt 0.375000 0.781436
vt 0.625000 0.781436
vt 0.625000 0.968564
vt 0.375000 0.968564
vt 0.375000 0.531436
vt 0.625000 0.531436
vt 0.625000 0.718564
vt 0.375000 0.718564
vt 0.656436 0.500000
vt 0.843564 0.500000
vt 0.875000 0.531436
vt 0.875000 0.718564
vt 0.843564 0.750000
vt 0.656436 0.750000
vt 0.375000 0.031436
vt 0.625000 0.031436
vt 0.625000 0.218564
vt 0.375000 0.218564
vt 0.375000 0.281436
vt 0.625000 0.281436
vt 0.625000 0.468564
vt 0.375000 0.468564
vt 0.375000 0.781436
vt 0.625000 0.781436
vt 0.625000 0.968564
vt 0.375000 0.968564
vt 0.375000 0.531436
vt 0.625000 0.531436
vt 0.625000 0.718564
vt 0.375000 0.718564
vt 0.656436 0.500000
vt 0.843564 0.500000
vt 0.875000 0.531436
vt 0.875000 0.718564
vt 0.843564 0.750000
vt 0.656436 0.750000
vt 0.375000 0.031436
vt 0.625000 0.031436
vt 0.625000 0.218564
vt 0.375000 0.218564
vt 0.375000 0.281436
vt 0.625000 0.281436
vt 0.625000 0.468564
vt 0.375000 0.468564
vt 0.375000 0.781436
vt 0.625000 0.781436
vt 0.625000 0.968564
vt 0.375000 0.968564
vt 0.375000 0.531436
vt 0.625000 0.531436
vt 0.625000 0.718564
vt 0.375000 0.718564
vt 0.656436 0.500000
vt 0.843564 0.500000
vt 0.875000 0.531436
vt 0.875000 0.718564
vt 0.843564 0.750000
vt 0.656436 0.750000
vt 0.375000 0.031436
vt 0.625000 0.031436
vt 0.625000 0.218564
vt 0.375000 0.218564
vt 0.375000 0.281436
vt 0.625000 0.281436
vt 0.625000 0.468564
vt 0.375000 0.468564
vt 0.375000 0.781436
vt 0.625000 0.781436
vt 0.625000 0.968564
vt 0.375000 0.968564
vt 0.375000 0.531436
vt 0.625000 0.531436
vt 0.625000 0.718564
vt 0.375000 0.718564
vt 0.656436 0.500000
vt 0.843564 0.500000
vt 0.875000 0.531436
vt 0.875000 0.718564
vt 0.843564 0.750000
vt 0.656436 0.750000
vt 0.375000 0.031436
vt 0.625000 0.031436
vt 0.625000 0.218564
vt 0.375000 0.218564
vt 0.375000 0.281436
vt 0.625000 0.281436
vt 0.625000 0.468564
vt 0.375000 0.468564
vt 0.375000 0.781436
vt 0.625000 0.781436
vt 0.625000 0.968564
vt 0.375000 0.968564
vt 0.375000 0.531436
vt 0.625000 0.531436
vt 0.625000 0.718564
vt 0.375000 0.718564
vt 0.656436 0.500000
vt 0.843564 0.500000
vt 0.875000 0.531436
vt 0.875000 0.718564
vt 0.843564 0.750000
vt 0.656436 0.750000
vt 0.375000 0.031436
vt 0.625000 0.031436
vt 0.625000 0.218564
vt 0.375000 0.218564
vt 0.375000 0.281436
vt 0.625000 0.281436
vt 0.625000 0.468564
vt 0.375000 0.468564
vt 0.375000 0.781436
vt 0.625000 0.781436
vt 0.625000 0.968564
vt 0.375000 0.968564
vt 0.375000 0.531436
vt 0.625000 0.531436
vt 0.625000 0.718564
vt 0.375000 0.718564
vt 0.656436 0.500000
vt 0.843564 0.500000
vt 0.875000 0.531436
vt 0.875000 0.718564
vt 0.843564 0.750000
vt 0.656436 0.750000
vt 0.375000 0.031436
vt 0.625000 0.031436
vt 0.625000 0.218564
vt 0.375000 0.218564
vt 0.375000 0.281436
vt 0.625000 0.281436
vt 0.625000 0.468564
vt 0.375000 0.468564
vt 0.375000 0.781436
vt 0.625000 0.781436
vt 0.625000 0.968564
vt 0.375000 0.968564
vt 0.375000 0.531436
vt 0.625000 0.531436
vt 0.625000 0.718564
vt 0.375000 0.718564
vt 0.656436 0.500000
vt 0.843564 0.500000
vt 0.875000 0.531436
vt 0.875000 0.718564
vt 0.843564 0.750000
vt 0.656436 0.750000
vt 0.375000 0.031436
vt 0.625000 0.031436
vt 0.625000 0.218564
vt 0.375000 0.218564
vt 0.375000 0.281436
vt 0.625000 0.281436
vt 0.625000 0.468564
vt 0.375000 0.468564
vt 0.375000 0.781436
vt 0.625000 0.781436
vt 0.625000 0.968564
vt 0.375000 0.968564
vt 0.375000 0.531436
vt 0.625000 0.531436
vt 0.625000 0.718564
vt 0.375000 0.718564
vt 0.656436 0.500000
vt 0.843564 0.500000
vt 0.875000 0.531436
vt 0.875000 0.718564
vt 0.843564 0.750000
vt 0.656436 0.750000
vt 0.375000 0.031436
vt 0.625000 0.031436
vt 0.625000 0.218564
vt 0.375000 0.218564
vt 0.375000 0.281436
vt 0.625000 0.281436
vt 0.625000 0.468564
vt 0.375000 0.468564
vt 0.375000 0.781436
vt 0.625000 0.781436
vt 0.625000 0.968564
vt 0.375000 0.968564
vt 0.375000 0.531436
vt 0.625000 0.531436
vt 0.625000 0.718564
vt 0.375000 0.718564
vt 0.656436 0.500000
vt 0.843564 0.500000
vt 0.875000 0.531436
vt 0.875000 0.718564
vt 0.843564 0.750000
vt 0.656436 0.750000
vt 0.375000 0.031436
vt 0.625000 0.031436
vt 0.625000 0.218564
vt 0.375000 0.218564
vt 0.375000 0.281436
vt 0.625000 0.281436
vt 0.625000 0.468564
vt 0.375000 0.468564
vt 0.375000 0.781436
vt 0.625000 0.781436
vt 0.625000 0.968564
vt 0.375000 0.968564
vt 0.375000 0.531436
vt 0.625000 0.531436
vt 0.625000 0.718564
vt 0.375000 0.718564
vt 0.656436 0.500000
vt 0.843564 0.500000
vt 0.875000 0.531436
vt 0.875000 0.718564
vt 0.843564 0.750000
vt 0.656436 0.750000
vt 0.375000 0.031436
vt 0.625000 0.031436
vt 0.625000 0.218564
vt 0.375000 0.218564
vt 0.375000 0.281436
vt 0.625000 0.281436
vt 0.625000 0.468564
vt 0.375000 0.468564
vt 0.375000 0.781436
vt 0.625000 0.781436
vt 0.625000 0.968564
vt 0.375000 0.968564
vt 0.375000 0.531436
vt 0.625000 0.531436
vt 0.625000 0.718564
vt 0.375000 0.718564
vt 0.656436 0.500000
vt 0.843564 0.500000
vt 0.875000 0.531436
vt 0.875000 0.718564
vt 0.843564 0.750000
vt 0.656436 0.750000
vt 0.375000 0.031436
vt 0.625000 0.031436
vt 0.625000 0.218564
vt 0.375000 0.218564
vt 0.375000 0.281436
vt 0.625000 0.281436
vt 0.625000 0.468564
vt 0.375000 0.468564
vt 0.375000 0.781436
vt 0.625000 0.781436
vt 0.625000 0.968564
vt 0.375000 0.968564
vt 0.375000 0.531436
vt 0.625000 0.531436
vt 0.625000 0.718564
vt 0.375000 0.718564
vt 0.656436 0.500000
vt 0.843564 0.500000
vt 0.875000 0.531436
vt 0.875000 0.718564
vt 0.843564 0.750000
vt 0.656436 0.750000
vt 0.375000 0.031436
vt 0.625000 0.031436
vt 0.625000 0.218564
vt 0.375000 0.218564
vt 0.375000 0.281436
vt 0.625000 0.281436
vt 0.625000 0.468564
vt 0.375000 0.468564
vt 0.375000 0.781436
vt 0.625000 0.781436
vt 0.625000 0.968564
vt 0.375000 0.968564
vt 0.375000 0.531436
vt 0.625000 0.531436
vt 0.625000 0.718564
vt 0.375000 0.718564
vt 0.656436 0.500000
vt 0.843564 0.500000
vt 0.875000 0.531436
vt 0.875000 0.718564
vt 0.843564 0.750000
vt 0.656436 0.750000
vt 0.375000 0.031436
vt 0.625000 0.031436
vt 0.625000 0.218564
vt 0.375000 0.218564
vt 0.375000 0.281436
vt 0.625000 0.281436
vt 0.625000 0.468564
vt 0.375000 0.468564
vt 0.375000 0.781436
vt 0.625000 0.781436
vt 0.625000 0.968564
vt 0.375000 0.968564
vt 0.375000 0.531436
vt 0.625000 0.531436
vt 0.625000 0.718564
vt 0.375000 0.718564
vt 0.656436 0.500000
vt 0.843564 0.500000
vt 0.875000 0.531436
vt 0.875000 0.718564
vt 0.843564 0.750000
vt 0.656436 0.750000
vt 0.375000 0.031436
vt 0.625000 0.031436
vt 0.625000 0.218564
vt 0.375000 0.218564
vt 0.375000 0.281436
vt 0.625000 0.281436
vt 0.625000 0.468564
vt 0.375000 0.468564
vt 0.375000 0.765993
vt 0.625000 0.765993
vt 0.625000 0.984007
vt 0.375000 0.984007
vt 0.375000 0.531436
vt 0.625000 0.531436
vt 0.625000 0.718564
vt 0.375000 0.718564
vt 0.640993 0.500000
vt 0.859007 0.500000
vt 0.875000 0.531436
vt 0.875000 0.718564
vt 0.859007 0.750000
vt 0.640993 0.750000
vt 0.375000 0.031436
vt 0.625000 0.031436
vt 0.625000 0.218564
vt 0.375000 0.218564
vt 0.375000 0.265993
vt 0.625000 0.265993
vt 0.625000 0.484007
vt 0.375000 0.484007
vt 0.375000 0.768985
vt 0.625000 0.768985
vt 0.625000 0.981015
vt 0.375000 0.981015
vt 0.375000 0.531436
vt 0.625000 0.531436
vt 0.625000 0.718564
vt 0.375000 0.718564
vt 0.643985 0.500000
vt 0.856015 0.500000
vt 0.875000 0.531436
vt 0.875000 0.718564
vt 0.856015 0.750000
vt 0.643985 0.750000
vt 0.375000 0.031436
vt 0.625000 0.031436
vt 0.625000 0.218564
vt 0.375000 0.218564
vt 0.375000 0.268985
vt 0.625000 0.268985
vt 0.625000 0.481015
vt 0.375000 0.481015
vt 0.375000 0.765620
vt 0.625000 0.765620
vt 0.625000 0.984380
vt 0.375000 0.984380
vt 0.375000 0.531436
vt 0.625000 0.531436
vt 0.625000 0.718564
vt 0.375000 0.718564
vt 0.640620 0.500000
vt 0.859380 0.500000
vt 0.875000 0.531436
vt 0.875000 0.718564
vt 0.859380 0.750000
vt 0.640620 0.750000
vt 0.375000 0.031436
vt 0.625000 0.031436
vt 0.625000 0.218564
vt 0.375000 0.218564
vt 0.375000 0.265620
vt 0.625000 0.265620
vt 0.625000 0.484380
vt 0.375000 0.484380
vt 0.375000 0.781436
vt 0.625000 0.781436
vt 0.625000 0.968564
vt 0.375000 0.968564
vt 0.375000 0.531436
vt 0.625000 0.531436
vt 0.625000 0.718564
vt 0.375000 0.718564
vt 0.656436 0.500000
vt 0.843564 0.500000
vt 0.875000 0.531436
vt 0.875000 0.718564
vt 0.843564 0.750000
vt 0.656436 0.750000
vt 0.375000 0.031436
vt 0.625000 0.031436
vt 0.625000 0.218564
vt 0.375000 0.218564
vt 0.375000 0.281436
vt 0.625000 0.281436
vt 0.625000 0.468564
vt 0.375000 0.468564
vt 0.375000 0.781436
vt 0.625000 0.781436
vt 0.625000 0.968564
vt 0.375000 0.968564
vt 0.375000 0.531436
vt 0.625000 0.531436
vt 0.625000 0.718564
vt 0.375000 0.718564
vt 0.656436 0.500000
vt 0.843564 0.500000
vt 0.875000 0.531436
vt 0.875000 0.718564
vt 0.843564 0.750000
vt 0.656436 0.750000
vt 0.375000 0.031436
vt 0.625000 0.031436
vt 0.625000 0.218564
vt 0.375000 0.218564
vt 0.375000 0.281436
vt 0.625000 0.281436
vt 0.625000 0.468564
vt 0.375000 0.468564
vt 0.375000 0.781436
vt 0.625000 0.781436
vt 0.625000 0.968564
vt 0.375000 0.968564
vt 0.375000 0.531436
vt 0.625000 0.531436
vt 0.625000 0.718564
vt 0.375000 0.718564
vt 0.656436 0.500000
vt 0.843564 0.500000
vt 0.875000 0.531436
vt 0.875000 0.718564
vt 0.843564 0.750000
vt 0.656436 0.750000
vt 0.375000 0.031436
vt 0.625000 0.031436
vt 0.625000 0.218564
vt 0.375000 0.218564
vt 0.375000 0.281436
vt 0.625000 0.281436
vt 0.625000 0.468564
vt 0.375000 0.468564
vt 0.375000 0.781436
vt 0.625000 0.781436
vt 0.625000 0.968564
vt 0.375000 0.968564
vt 0.375000 0.531436
vt 0.625000 0.531436
vt 0.625000 0.718564
vt 0.375000 0.718564
vt 0.656436 0.500000
vt 0.843564 0.500000
vt 0.875000 0.531436
vt 0.875000 0.718564
vt 0.843564 0.750000
vt 0.656436 0.750000
vt 0.375000 0.031436
vt 0.625000 0.031436
vt 0.625000 0.218564
vt 0.375000 0.218564
vt 0.375000 0.281436
vt 0.625000 0.281436
vt 0.625000 0.468564
vt 0.375000 0.468564
vt 0.375000 0.781436
vt 0.625000 0.781436
vt 0.625000 0.968564
vt 0.375000 0.968564
vt 0.375000 0.531436
vt 0.625000 0.531436
vt 0.625000 0.718564
vt 0.375000 0.718564
vt 0.656436 0.500000
vt 0.843564 0.500000
vt 0.875000 0.531436
vt 0.875000 0.718564
vt 0.843564 0.750000
vt 0.656436 0.750000
vt 0.375000 0.031436
vt 0.625000 0.031436
vt 0.625000 0.218564
vt 0.375000 0.218564
vt 0.375000 0.281436
vt 0.625000 0.281436
vt 0.625000 0.468564
vt 0.375000 0.468564
vt 0.375000 0.781436
vt 0.625000 0.781436
vt 0.625000 0.968564
vt 0.375000 0.968564
vt 0.375000 0.531436
vt 0.625000 0.531436
vt 0.625000 0.718564
vt 0.375000 0.718564
vt 0.656436 0.500000
vt 0.843564 0.500000
vt 0.875000 0.531436
vt 0.875000 0.718564
vt 0.843564 0.750000
vt 0.656436 0.750000
vt 0.375000 0.031436
vt 0.625000 0.031436
vt 0.625000 0.218564
vt 0.375000 0.218564
vt 0.375000 0.281436
vt 0.625000 0.281436
vt 0.625000 0.468564
vt 0.375000 0.468564
vt 0.375000 0.781436
vt 0.625000 0.781436
vt 0.625000 0.968564
vt 0.375000 0.968564
vt 0.375000 0.531436
vt 0.625000 0.531436
vt 0.625000 0.718564
vt 0.375000 0.718564
vt 0.656436 0.500000
vt 0.843564 0.500000
vt 0.875000 0.531436
vt 0.875000 0.718564
vt 0.843564 0.750000
vt 0.656436 0.750000
vt 0.375000 0.031436
vt 0.625000 0.031436
vt 0.625000 0.218564
vt 0.375000 0.218564
vt 0.375000 0.281436
vt 0.625000 0.281436
vt 0.625000 0.468564
vt 0.375000 0.468564
vt 0.375000 0.781436
vt 0.625000 0.781436
vt 0.625000 0.968564
vt 0.375000 0.968564
vt 0.375000 0.531436
vt 0.625000 0.531436
vt 0.625000 0.718564
vt 0.375000 0.718564
vt 0.656436 0.500000
vt 0.843564 0.500000
vt 0.875000 0.531436
vt 0.875000 0.718564
vt 0.843564 0.750000
vt 0.656436 0.750000
vt 0.375000 0.031436
vt 0.625000 0.031436
vt 0.625000 0.218564
vt 0.375000 0.218564
vt 0.375000 0.281436
vt 0.625000 0.281436
vt 0.625000 0.468564
vt 0.375000 0.468564
vt 0.375000 0.781436
vt 0.625000 0.781436
vt 0.625000 0.968564
vt 0.375000 0.968564
vt 0.375000 0.531436
vt 0.625000 0.531436
vt 0.625000 0.718564
vt 0.375000 0.718564
vt 0.656436 0.500000
vt 0.843564 0.500000
vt 0.875000 0.531436
vt 0.875000 0.718564
vt 0.843564 0.750000
vt 0.656436 0.750000
vt 0.375000 0.031436
vt 0.625000 0.031436
vt 0.625000 0.218564
vt 0.375000 0.218564
vt 0.375000 0.281436
vt 0.625000 0.281436
vt 0.625000 0.468564
vt 0.375000 0.468564
vt 0.375000 0.781436
vt 0.625000 0.781436
vt 0.625000 0.968564
vt 0.375000 0.968564
vt 0.375000 0.531436
vt 0.625000 0.531436
vt 0.625000 0.718564
vt 0.375000 0.718564
vt 0.656436 0.500000
vt 0.843564 0.500000
vt 0.875000 0.531436
vt 0.875000 0.718564
vt 0.843564 0.750000
vt 0.656436 0.750000
vt 0.375000 0.031436
vt 0.625000 0.031436
vt 0.625000 0.218564
vt 0.375000 0.218564
vt 0.375000 0.281436
vt 0.625000 0.281436
vt 0.625000 0.468564
vt 0.375000 0.468564
vt 0.375000 0.781436
vt 0.625000 0.781436
vt 0.625000 0.968564
vt 0.375000 0.968564
vt 0.375000 0.531436
vt 0.625000 0.531436
vt 0.625000 0.718564
vt 0.375000 0.718564
vt 0.656436 0.500000
vt 0.843564 0.500000
vt 0.875000 0.531436
vt 0.875000 0.718564
vt 0.843564 0.750000
vt 0.656436 0.750000
vt 0.375000 0.031436
vt 0.625000 0.031436
vt 0.625000 0.218564
vt 0.375000 0.218564
vt 0.375000 0.281436
vt 0.625000 0.281436
vt 0.625000 0.468564
vt 0.375000 0.468564
vt 0.375000 0.781436
vt 0.625000 0.781436
vt 0.625000 0.968564
vt 0.375000 0.968564
vt 0.375000 0.531436
vt 0.625000 0.531436
vt 0.625000 0.718564
vt 0.375000 0.718564
vt 0.656436 0.500000
vt 0.843564 0.500000
vt 0.875000 0.531436
vt 0.875000 0.718564
vt 0.843564 0.750000
vt 0.656436 0.750000
vt 0.375000 0.031436
vt 0.625000 0.031436
vt 0.625000 0.218564
vt 0.375000 0.218564
vt 0.375000 0.281436
vt 0.625000 0.281436
vt 0.625000 0.468564
vt 0.375000 0.468564
vt 0.375000 0.781436
vt 0.625000 0.781436
vt 0.625000 0.968564
vt 0.375000 0.968564
vt 0.375000 0.531436
vt 0.625000 0.531436
vt 0.625000 0.718564
vt 0.375000 0.718564
vt 0.656436 0.500000
vt 0.843564 0.500000
vt 0.875000 0.531436
vt 0.875000 0.718564
vt 0.843564 0.750000
vt 0.656436 0.750000
vt 0.375000 0.031436
vt 0.625000 0.031436
vt 0.625000 0.218564
vt 0.375000 0.218564
vt 0.375000 0.281436
vt 0.625000 0.281436
vt 0.625000 0.468564
vt 0.375000 0.468564
vt 0.375000 0.781436
vt 0.625000 0.781436
vt 0.625000 0.968564
vt 0.375000 0.968564
vt 0.375000 0.531436
vt 0.625000 0.531436
vt 0.625000 0.718564
vt 0.375000 0.718564
vt 0.656436 0.500000
vt 0.843564 0.500000
vt 0.875000 0.531436
vt 0.875000 0.718564
vt 0.843564 0.750000
vt 0.656436 0.750000
vt 0.375000 0.031436
vt 0.625000 0.031436
vt 0.625000 0.218564
vt 0.375000 0.218564
vt 0.375000 0.281436
vt 0.625000 0.281436
vt 0.625000 0.468564
vt 0.375000 0.468564
vt 0.375000 0.768288
vt 0.625000 0.768288
vt 0.625000 0.981712
vt 0.375000 0.981712
vt 0.375000 0.531436
vt 0.625000 0.531436
vt 0.625000 0.718564
vt 0.375000 0.718564
vt 0.643288 0.500000
vt 0.856712 0.500000
vt 0.875000 0.531436
vt 0.875000 0.718564
vt 0.856712 0.750000
vt 0.643288 0.750000
vt 0.375000 0.031436
vt 0.625000 0.031436
vt 0.625000 0.218564
vt 0.375000 0.218564
vt 0.375000 0.268288
vt 0.625000 0.268288
vt 0.625000 0.481712
vt 0.375000 0.481712
vt 0.375000 0.781436
vt 0.625000 0.781436
vt 0.625000 0.968564
vt 0.375000 0.968564
vt 0.375000 0.531436
vt 0.625000 0.531436
vt 0.625000 0.718564
vt 0.375000 0.718564
vt 0.656436 0.500000
vt 0.843564 0.500000
vt 0.875000 0.531436
vt 0.875000 0.718564
vt 0.843564 0.750000
vt 0.656436 0.750000
vt 0.375000 0.031436
vt 0.625000 0.031436
vt 0.625000 0.218564
vt 0.375000 0.218564
vt 0.375000 0.281436
vt 0.625000 0.281436
vt 0.625000 0.468564
vt 0.375000 0.468564
vt 0.375000 0.779895
vt 0.625000 0.779895
vt 0.625000 0.970105
vt 0.375000 0.970105
vt 0.375000 0.553094
vt 0.625000 0.553094
vt 0.625000 0.696906
vt 0.375000 0.696906
vt 0.654895 0.500000
vt 0.845105 0.500000
vt 0.875000 0.553094
vt 0.875000 0.696906
vt 0.845105 0.750000
vt 0.654895 0.750000
vt 0.375000 0.053094
vt 0.625000 0.053094
vt 0.625000 0.196906
vt 0.375000 0.196906
vt 0.375000 0.279895
vt 0.625000 0.279895
vt 0.625000 0.470105
vt 0.375000 0.470105
vt 0.375000 0.779895
vt 0.625000 0.779895
vt 0.625000 0.970105
vt 0.375000 0.970105
vt 0.375000 0.553094
vt 0.625000 0.553094
vt 0.625000 0.696906
vt 0.375000 0.696906
vt 0.654895 0.500000
vt 0.845105 0.500000
vt 0.875000 0.553094
vt 0.875000 0.696906
vt 0.845105 0.750000
vt 0.654895 0.750000
vt 0.375000 0.053094
vt 0.625000 0.053094
vt 0.625000 0.196906
vt 0.375000 0.196906
vt 0.375000 0.279895
vt 0.625000 0.279895
vt 0.625000 0.470105
vt 0.375000 0.470105
vt 0.375000 0.779895
vt 0.625000 0.779895
vt 0.625000 0.970105
vt 0.375000 0.970105
vt 0.375000 0.553094
vt 0.625000 0.553094
vt 0.625000 0.696906
vt 0.375000 0.696906
vt 0.654895 0.500000
vt 0.845105 0.500000
vt 0.875000 0.553094
vt 0.875000 0.696906
vt 0.845105 0.750000
vt 0.654895 0.750000
vt 0.375000 0.053094
vt 0.625000 0.053094
vt 0.625000 0.196906
vt 0.375000 0.196906
vt 0.375000 0.279895
vt 0.625000 0.279895
vt 0.625000 0.470105
vt 0.375000 0.470105
vt 0.375000 0.779895
vt 0.625000 0.779895
vt 0.625000 0.970105
vt 0.375000 0.970105
vt 0.375000 0.553094
vt 0.625000 0.553094
vt 0.625000 0.696906
vt 0.375000 0.696906
vt 0.654895 0.500000
vt 0.845105 0.500000
vt 0.875000 0.553094
vt 0.875000 0.696906
vt 0.845105 0.750000
vt 0.654895 0.750000
vt 0.375000 0.053094
vt 0.625000 0.053094
vt 0.625000 0.196906
vt 0.375000 0.196906
vt 0.375000 0.279895
vt 0.625000 0.279895
vt 0.625000 0.470105
vt 0.375000 0.470105
vt 0.375000 0.779895
vt 0.625000 0.779895
vt 0.625000 0.970105
vt 0.375000 0.970105
vt 0.375000 0.553094
vt 0.625000 0.553094
vt 0.625000 0.696906
vt 0.375000 0.696906
vt 0.654895 0.500000
vt 0.845105 0.500000
vt 0.875000 0.553094
vt 0.875000 0.696906
vt 0.845105 0.750000
vt 0.654895 0.750000
vt 0.375000 0.053094
vt 0.625000 0.053094
vt 0.625000 0.196906
vt 0.375000 0.196906
vt 0.375000 0.279895
vt 0.625000 0.279895
vt 0.625000 0.470105
vt 0.375000 0.470105
vt 0.375000 0.779895
vt 0.625000 0.779895
vt 0.625000 0.970105
vt 0.375000 0.970105
vt 0.375000 0.553094
vt 0.625000 0.553094
vt 0.625000 0.696906
vt 0.375000 0.696906
vt 0.654895 0.500000
vt 0.845105 0.500000
vt 0.875000 0.553094
vt 0.875000 0.696906
vt 0.845105 0.750000
vt 0.654895 0.750000
vt 0.375000 0.053094
vt 0.625000 0.053094
vt 0.625000 0.196906
vt 0.375000 0.196906
vt 0.375000 0.279895
vt 0.625000 0.279895
vt 0.625000 0.470105
vt 0.375000 0.470105
vt 0.375000 0.779895
vt 0.625000 0.779895
vt 0.625000 0.970105
vt 0.375000 0.970105
vt 0.375000 0.553094
vt 0.625000 0.553094
vt 0.625000 0.696906
vt 0.375000 0.696906
vt 0.654895 0.500000
vt 0.845105 0.500000
vt 0.875000 0.553094
vt 0.875000 0.696906
vt 0.845105 0.750000
vt 0.654895 0.750000
vt 0.375000 0.053094
vt 0.625000 0.053094
vt 0.625000 0.196906
vt 0.375000 0.196906
vt 0.375000 0.279895
vt 0.625000 0.279895
vt 0.625000 0.470105
vt 0.375000 0.470105
vt 0.375000 0.779895
vt 0.625000 0.779895
vt 0.625000 0.970105
vt 0.375000 0.970105
vt 0.375000 0.553094
vt 0.625000 0.553094
vt 0.625000 0.696906
vt 0.375000 0.696906
vt 0.654895 0.500000
vt 0.845105 0.500000
vt 0.875000 0.553094
vt 0.875000 0.696906
vt 0.845105 0.750000
vt 0.654895 0.750000
vt 0.375000 0.053094
vt 0.625000 0.053094
vt 0.625000 0.196906
vt 0.375000 0.196906
vt 0.375000 0.279895
vt 0.625000 0.279895
vt 0.625000 0.470105
vt 0.375000 0.470105
vt 0.375000 0.779895
vt 0.625000 0.779895
vt 0.625000 0.970105
vt 0.375000 0.970105
vt 0.375000 0.553094
vt 0.625000 0.553094
vt 0.625000 0.696906
vt 0.375000 0.696906
vt 0.654895 0.500000
vt 0.845105 0.500000
vt 0.875000 0.553094
vt 0.875000 0.696906
vt 0.845105 0.750000
vt 0.654895 0.750000
vt 0.375000 0.053094
vt 0.625000 0.053094
vt 0.625000 0.196906
vt 0.375000 0.196906
vt 0.375000 0.279895
vt 0.625000 0.279895
vt 0.625000 0.470105
vt 0.375000 0.470105
vt 0.375000 0.779895
vt 0.625000 0.779895
vt 0.625000 0.970105
vt 0.375000 0.970105
vt 0.375000 0.553094
vt 0.625000 0.553094
vt 0.625000 0.696906
vt 0.375000 0.696906
vt 0.654895 0.500000
vt 0.845105 0.500000
vt 0.875000 0.553094
vt 0.875000 0.696906
vt 0.845105 0.750000
vt 0.654895 0.750000
vt 0.375000 0.053094
vt 0.625000 0.053094
vt 0.625000 0.196906
vt 0.375000 0.196906
vt 0.375000 0.279895
vt 0.625000 0.279895
vt 0.625000 0.470105
vt 0.375000 0.470105
vt 0.375000 0.779895
vt 0.625000 0.779895
vt 0.625000 0.970105
vt 0.375000 0.970105
vt 0.375000 0.553094
vt 0.625000 0.553094
vt 0.625000 0.696906
vt 0.375000 0.696906
vt 0.654895 0.500000
vt 0.845105 0.500000
vt 0.875000 0.553094
vt 0.875000 0.696906
vt 0.845105 0.750000
vt 0.654895 0.750000
vt 0.375000 0.053094
vt 0.625000 0.053094
vt 0.625000 0.196906
vt 0.375000 0.196906
vt 0.375000 0.279895
vt 0.625000 0.279895
vt 0.625000 0.470105
vt 0.375000 0.470105
vt 0.375000 0.779895
vt 0.625000 0.779895
vt 0.625000 0.970105
vt 0.375000 0.970105
vt 0.375000 0.553094
vt 0.625000 0.553094
vt 0.625000 0.696906
vt 0.375000 0.696906
vt 0.654895 0.500000
vt 0.845105 0.500000
vt 0.875000 0.553094
vt 0.875000 0.696906
vt 0.845105 0.750000
vt 0.654895 0.750000
vt 0.375000 0.053094
vt 0.625000 0.053094
vt 0.625000 0.196906
vt 0.375000 0.196906
vt 0.375000 0.279895
vt 0.625000 0.279895
vt 0.625000 0.470105
vt 0.375000 0.470105
vt 0.375000 0.779895
vt 0.625000 0.779895
vt 0.625000 0.970105
vt 0.375000 0.970105
vt 0.375000 0.553094
vt 0.625000 0.553094
vt 0.625000 0.696906
vt 0.375000 0.696906
vt 0.654895 0.500000
vt 0.845105 0.500000
vt 0.875000 0.553094
vt 0.875000 0.696906
vt 0.845105 0.750000
vt 0.654895 0.750000
vt 0.375000 0.053094
vt 0.625000 0.053094
vt 0.625000 0.196906
vt 0.375000 0.196906
vt 0.375000 0.279895
vt 0.625000 0.279895
vt 0.625000 0.470105
vt 0.375000 0.470105
vt 0.375000 0.779895
vt 0.625000 0.779895
vt 0.625000 0.970105
vt 0.375000 0.970105
vt 0.375000 0.553094
vt 0.625000 0.553094
vt 0.625000 0.696906
vt 0.375000 0.696906
vt 0.654895 0.500000
vt 0.845105 0.500000
vt 0.875000 0.553094
vt 0.875000 0.696906
vt 0.845105 0.750000
vt 0.654895 0.750000
vt 0.375000 0.053094
vt 0.625000 0.053094
vt 0.625000 0.196906
vt 0.375000 0.196906
vt 0.375000 0.279895
vt 0.625000 0.279895
vt 0.625000 0.470105
vt 0.375000 0.470105
vt 0.375000 0.000000
vt 0.625000 0.000000
vt 0.375000 0.000000
vt 0.625000 0.000000
vt 0.375000 0.000000
vt 0.625000 0.000000
vt 0.375000 0.000000
vt 0.625000 0.000000
vt 0.375000 0.000000
vt 0.625000 0.000000
vt 0.375000 0.000000
vt 0.625000 0.000000
vt 0.375000 0.000000
vt 0.625000 0.000000
vt 0.375000 0.000000
vt 0.625000 0.000000
vt 0.375000 0.000000
vt 0.625000 0.000000
vt 0.375000 0.000000
vt 0.625000 0.000000
vt 0.375000 0.000000
vt 0.625000 0.000000
vt 0.375000 0.000000
vt 0.625000 0.000000
vt 0.375000 0.000000
vt 0.625000 0.000000
vt 0.375000 0.000000
vt 0.625000 0.000000
vt 0.375000 0.000000
vt 0.625000 0.000000
vt 0.375000 0.000000
vt 0.625000 0.000000
vt 0.375000 0.000000
vt 0.625000 0.000000
vt 0.375000 0.000000
vt 0.625000 0.000000
vt 0.375000 0.000000
vt 0.625000 0.000000
vt 0.375000 0.000000
vt 0.625000 0.000000
vt 0.375000 0.000000
vt 0.625000 0.000000
vt 0.375000 0.000000
vt 0.625000 0.000000
vt 0.375000 0.000000
vt 0.625000 0.000000
vt 0.375000 0.000000
vt 0.625000 0.000000
vt 0.375000 0.000000
vt 0.625000 0.000000
vt 0.375000 0.000000
vt 0.625000 0.000000
vt 0.375000 0.000000
vt 0.625000 0.000000
vt 0.375000 0.000000
vt 0.625000 0.000000
vt 0.375000 0.000000
vt 0.625000 0.000000
vt 0.375000 0.000000
vt 0.625000 0.000000
vt 0.375000 0.000000
vt 0.625000 0.000000
vt 0.375000 0.000000
vt 0.625000 0.000000
vt 0.375000 0.000000
vt 0.625000 0.000000
vt 0.375000 0.000000
vt 0.625000 0.000000
vt 0.375000 0.000000
vt 0.625000 0.000000
vt 0.375000 0.000000
vt 0.625000 0.000000
vt 0.375000 0.000000
vt 0.625000 0.000000
vt 0.375000 0.000000
vt 0.625000 0.000000
vt 0.375000 0.000000
vt 0.625000 0.000000
vt 0.375000 0.000000
vt 0.625000 0.000000
vt 0.375000 0.000000
vt 0.625000 0.000000
vt 0.375000 0.000000
vt 0.625000 0.000000
vt 0.375000 0.000000
vt 0.625000 0.000000
vt 0.375000 0.000000
vt 0.625000 0.000000
vt 0.375000 0.000000
vt 0.625000 0.000000
vt 0.375000 0.000000
vt 0.625000 0.000000
vt 0.375000 0.000000
vt 0.625000 0.000000
vt 0.375000 0.000000
vt 0.625000 0.000000
vt 0.375000 0.000000
vt 0.625000 0.000000
vt 0.375000 0.000000
vt 0.625000 0.000000
vt 0.375000 0.000000
vt 0.625000 0.000000
vt 0.375000 0.000000
vt 0.625000 0.000000
vt 0.375000 0.000000
vt 0.625000 0.000000
vt 0.375000 0.000000
vt 0.625000 0.000000
vt 0.375000 0.000000
vt 0.625000 0.000000
vt 0.375000 0.000000
vt 0.625000 0.000000
vt 0.375000 0.000000
vt 0.625000 0.000000
vt 0.375000 0.000000
vt 0.625000 0.000000
vt 0.375000 0.000000
vt 0.625000 0.000000
vt 0.375000 0.000000
vt 0.625000 0.000000
vt 0.375000 0.000000
vt 0.625000 0.000000
vt 0.375000 0.000000
vt 0.625000 0.000000
vt 0.375000 0.000000
vt 0.625000 0.000000
vt 0.375000 0.000000
vt 0.625000 0.000000
vt 0.375000 0.000000
vt 0.625000 0.000000
vt 0.375000 0.000000
vt 0.625000 0.000000
vt 0.375000 0.000000
vt 0.625000 0.000000
vt 0.375000 0.000000
vt 0.625000 0.000000
vt 0.375000 0.000000
vt 0.625000 0.000000
vt 0.375000 0.000000
vt 0.625000 0.000000
vt 0.375000 0.000000
vt 0.625000 0.000000
vt 0.375000 0.000000
vt 0.625000 0.000000
vt 0.375000 0.000000
vt 0.625000 0.000000
vt 0.375000 0.000000
vt 0.625000 0.000000
vt 0.375000 0.000000
vt 0.625000 0.000000
vt 0.375000 0.000000
vt 0.625000 0.000000
vt 0.375000 0.000000
vt 0.625000 0.000000
vt 0.375000 0.000000
vt 0.625000 0.000000
vt 0.324583 0.750000
vt 0.360233 0.740366
vt 0.375000 0.717108
vt 0.375000 0.532892
vt 0.360233 0.509634
vt 0.324583 0.500000
vt 0.175417 0.500000
vt 0.139767 0.509634
vt 0.125000 0.532892
vt 0.125000 0.717108
vt 0.139767 0.740366
vt 0.175417 0.750000
vt 0.625000 0.508989
vt 0.564280 0.508989
vt 0.564280 0.500000
vt 0.625000 0.500000
vt 0.625000 0.265136
vt 0.564280 0.265136
vt 0.564280 0.250000
vt 0.625000 0.250000
vt 0.564280 0.241011
vt 0.625000 0.241011
vt 0.625000 0.750000
vt 0.564280 0.750000
vt 0.564280 0.741011
vt 0.625000 0.741011
vt 0.625000 0.484864
vt 0.564280 0.484864
vt 0.564280 0.000000
vt 0.625000 0.000000
vt 0.625000 0.008989
vt 0.564280 0.008989
vt 0.564280 0.765136
vt 0.625000 0.765136
vt 0.625000 0.984864
vt 0.564280 0.984864
vt 0.625000 1.000000
vt 0.564280 1.000000
vt 0.363434 0.510356
vt 0.363434 0.739644
vt 0.361715 0.742110
vt 0.357563 0.743131
vt 0.142437 0.743131
vt 0.138285 0.742110
vt 0.136566 0.739644
vt 0.136566 0.510356
vt 0.138285 0.507890
vt 0.142437 0.506869
vt 0.357563 0.506869
vt 0.361715 0.507890
vt 0.371104 0.503403
vt 0.374742 0.508620
vt 0.375000 0.508466
vt 0.375000 0.501089
vt 0.360486 0.500153
vt 0.369270 0.502314
vt 0.375000 0.498167
vt 0.375000 0.485744
vt 0.139514 0.749847
vt 0.130730 0.747686
vt 0.375000 0.998167
vt 0.375000 0.985744
vt 0.128896 0.746597
vt 0.125258 0.741380
vt 0.375000 0.008466
vt 0.375000 0.001089
vt 0.369270 0.747686
vt 0.360486 0.749847
vt 0.375000 0.764256
vt 0.375000 0.751833
vt 0.374742 0.741380
vt 0.371104 0.746597
vt 0.375000 0.748911
vt 0.375000 0.741534
vt 0.130730 0.502314
vt 0.139514 0.500153
vt 0.375000 0.264256
vt 0.375000 0.251833
vt 0.125258 0.508620
vt 0.128896 0.503403
vt 0.375000 0.248911
vt 0.375000 0.241534
vt 0.140810 0.500000
vt 0.359190 0.500000
vt 0.375000 0.484190
vt 0.375000 0.265810
vt 0.375000 0.509390
vt 0.375000 0.740610
vt 0.375000 0.240610
vt 0.375000 0.009390
vt 0.125000 0.740610
vt 0.125000 0.509390
vt 0.375000 0.984190
vt 0.375000 0.765810
vt 0.359190 0.750000
vt 0.140810 0.750000
vt 1.000000 1.000000
vt 0.875000 1.000000
vt 0.875000 0.956021
vt 1.000000 0.956021
vt 0.750000 1.000000
vt 0.750000 0.956021
vt 0.625000 1.000000
vt 0.625000 0.956021
vt 0.500000 1.000000
vt 0.500000 0.956021
vt 0.375000 1.000000
vt 0.375000 0.956021
vt 0.250000 1.000000
vt 0.250000 0.956021
vt 0.080294 0.080294
vt 0.250000 0.010000
vt 0.419706 0.080294
vt 0.490000 0.250000
vt 0.419706 0.419706
vt 0.250000 0.490000
vt 0.080294 0.419706
vt 0.010000 0.250000
vt 0.125000 1.000000
vt 0.125000 0.956021
vt 0.000000 1.000000
vt 0.000000 0.956021
vt 0.906414 0.405612
vt 0.970871 0.250001
vt 0.906414 0.094390
vt 0.750803 0.029934
vt 0.595192 0.094390
vt 0.530736 0.250001
vt 0.595192 0.405612
vt 0.750803 0.470068
vt 0.625000 0.508989
vt 0.564280 0.508989
vt 0.564280 0.500000
vt 0.625000 0.500000
vt 0.625000 0.265136
vt 0.564280 0.265136
vt 0.564280 0.250000
vt 0.625000 0.250000
vt 0.564280 0.241011
vt 0.625000 0.241011
vt 0.625000 0.750000
vt 0.564280 0.750000
vt 0.564280 0.741011
vt 0.625000 0.741011
vt 0.625000 0.484864
vt 0.564280 0.484864
vt 0.564280 0.000000
vt 0.625000 0.000000
vt 0.625000 0.008989
vt 0.564280 0.008989
vt 0.564280 0.765136
vt 0.625000 0.765136
vt 0.625000 0.984864
vt 0.564280 0.984864
vt 0.625000 1.000000
vt 0.564280 1.000000
vt 0.136566 0.510356
vt 0.138285 0.507890
vt 0.142437 0.506869
vt 0.357563 0.506869
vt 0.361715 0.507890
vt 0.363434 0.510356
vt 0.363434 0.739644
vt 0.361715 0.742110
vt 0.357563 0.743131
vt 0.142437 0.743131
vt 0.138285 0.742110
vt 0.136566 0.739644
vt 0.371104 0.503403
vt 0.374742 0.508620
vt 0.375000 0.508466
vt 0.375000 0.501089
vt 0.360486 0.500153
vt 0.369270 0.502314
vt 0.375000 0.498167
vt 0.375000 0.485744
vt 0.139514 0.749847
vt 0.130730 0.747686
vt 0.375000 0.998167
vt 0.375000 0.985744
vt 0.128896 0.746597
vt 0.125258 0.741380
vt 0.375000 0.008466
vt 0.375000 0.001089
vt 0.369270 0.747686
vt 0.360486 0.749847
vt 0.375000 0.764256
vt 0.375000 0.751833
vt 0.374742 0.741380
vt 0.371104 0.746597
vt 0.375000 0.748911
vt 0.375000 0.741534
vt 0.130730 0.502314
vt 0.139514 0.500153
vt 0.375000 0.264256
vt 0.375000 0.251833
vt 0.125258 0.508620
vt 0.128896 0.503403
vt 0.375000 0.248911
vt 0.375000 0.241534
vt 0.140810 0.500000
vt 0.359190 0.500000
vt 0.375000 0.484190
vt 0.375000 0.265810
vt 0.375000 0.509390
vt 0.375000 0.740610
vt 0.375000 0.240610
vt 0.375000 0.009390
vt 0.125000 0.740610
vt 0.125000 0.509390
vt 0.375000 0.984190
vt 0.375000 0.765810
vt 0.359190 0.750000
vt 0.140810 0.750000
vt 0.636767 0.506988
vt 0.634581 0.510121
vt 0.629433 0.502633
vt 0.642042 0.505690
vt 0.640136 0.500000
vt 0.857958 0.744310
vt 0.863233 0.743012
vt 0.870567 0.747367
vt 0.859864 0.750000
vt 0.865419 0.739879
vt 0.875000 0.741011
vt 0.636767 0.743012
vt 0.642042 0.744310
vt 0.640136 0.750000
vt 0.629433 0.747367
vt 0.634581 0.739879
vt 0.863233 0.506988
vt 0.857958 0.505690
vt 0.859864 0.500000
vt 0.870567 0.502633
vt 0.865418 0.510121
vt 0.875000 0.508989
vt 0.648533 0.662555
vt 0.648533 0.587445
vt 0.639518 0.590339
vt 0.635784 0.597327
vt 0.635784 0.652673
vt 0.639519 0.659661
vt 0.629433 0.502633
vt 0.640136 0.500000
vt 0.859864 0.500000
vt 0.870567 0.502633
vt 0.875000 0.508989
vt 0.875000 0.741011
vt 0.870567 0.747367
vt 0.859864 0.750000
vt 0.640136 0.750000
vt 0.629433 0.747367
vt 0.686253 0.662555
vt 0.695268 0.659661
vt 0.699002 0.652673
vt 0.699002 0.597327
vt 0.695268 0.590340
vt 0.686253 0.587445
vt 0.375000 0.800417
vt 0.375000 0.949583
vt 0.490427 0.949583
vt 0.490427 0.800417
vt 0.490427 0.717108
vt 0.490427 0.532892
vt 0.490427 0.032892
vt 0.375000 0.032892
vt 0.375000 0.217108
vt 0.490427 0.217108
vt 0.490427 0.300417
vt 0.375000 0.300417
vt 0.375000 0.449583
vt 0.490427 0.449583
vt 0.375000 1.000000
vt 0.490427 1.000000
vt 0.490427 0.000000
vt 0.375000 0.000000
vt 0.490427 0.250000
vt 0.375000 0.250000
vt 0.375000 0.500000
vt 0.490427 0.500000
vt 0.375000 0.750000
vt 0.490427 0.750000
vn 1.0000 0.0000 0.0000
vn 0.0000 0.0000 -1.0000
vn 0.0000 1.0000 0.0000
vn 0.0000 0.0000 1.0000
vn -1.0000 0.0000 0.0000
vn 0.6753 0.0000 0.7375
vn -0.6753 0.0000 0.7375
vn -0.6753 0.0000 -0.7375
vn 0.6753 0.0000 -0.7375
vn 0.9111 0.0000 -0.4122
vn -0.3546 0.0000 -0.9350
vn -0.9111 0.0000 -0.4122
vn 0.9111 0.0000 0.4122
vn -0.9111 0.0000 0.4122
vn 0.3546 0.0000 0.9350
vn -0.3546 0.0000 0.9350
vn 0.0000 -1.0000 -0.0000
vn 0.3026 -0.9433 -0.1369
vn 0.8190 -0.4381 -0.3705
vn 0.1244 -0.9364 -0.3280
vn 0.3224 -0.4164 -0.8501
vn -0.1244 -0.9364 0.3280
vn -0.3224 -0.4164 0.8501
vn -0.3026 -0.9433 0.1369
vn -0.8190 -0.4381 0.3705
vn 0.1244 -0.9364 0.3280
vn 0.3224 -0.4164 0.8501
vn 0.3026 -0.9433 0.1369
vn 0.8190 -0.4381 0.3705
vn -0.1244 -0.9364 -0.3280
vn -0.3224 -0.4164 -0.8501
vn -0.3026 -0.9433 -0.1369
vn -0.8190 -0.4381 -0.3705
vn 0.0000 -0.9350 -0.3545
vn 0.0000 -0.4123 -0.9111
vn 0.3280 -0.9447 0.0000
vn 0.8965 -0.4430 0.0000
vn -0.8965 -0.4430 0.0000
vn -0.3280 -0.9447 0.0000
vn -0.0000 -0.4123 0.9111
vn 0.0000 -0.9350 0.3545
vn 0.3546 0.0000 -0.9350
vn 0.1716 -0.9852 0.0000
vn 0.9718 -0.2359 -0.0000
vn 0.9718 0.2359 -0.0000
vn 0.1716 0.9852 0.0000
vn -0.5771 0.8167 0.0000
vn -0.9718 0.2359 0.0000
vn -0.9718 -0.2359 0.0000
vn -0.5771 -0.8167 0.0000
vn 0.0857 -0.9071 -0.4122
vn -0.0333 0.3531 -0.9350
vn -0.0857 0.9071 -0.4122
vn 0.0857 -0.9071 0.4122
vn 0.0940 -0.9956 0.0000
vn -0.0857 0.9071 0.4122
vn 0.0333 -0.3531 0.9350
vn -0.0333 0.3531 0.9350
vn -0.0940 0.9956 0.0000
vn -0.9956 -0.0940 0.0000
vn -0.9579 -0.2749 -0.0831
vn -0.5718 -0.7568 -0.3165
vn -0.9654 -0.1674 -0.2000
vn -0.5878 -0.3359 -0.7360
vn -0.9797 -0.0163 0.2000
vn -0.6403 0.2199 0.7360
vn -0.9924 0.0907 0.0831
vn -0.7034 0.6364 0.3165
vn -0.9654 -0.1673 0.2000
vn -0.5878 -0.3359 0.7360
vn -0.9579 -0.2749 0.0831
vn -0.5718 -0.7568 0.3165
vn -0.9797 -0.0163 -0.2000
vn -0.6403 0.2199 -0.7360
vn -0.9924 0.0907 -0.0831
vn -0.7034 0.6364 -0.3165
vn -0.9720 -0.0918 -0.2163
vn -0.6095 -0.0576 -0.7907
vn -0.9570 -0.2901 0.0000
vn -0.5711 -0.8209 -0.0000
vn -0.7146 0.6995 0.0000
vn -0.9944 0.1058 0.0000
vn -0.6095 -0.0576 0.7907
vn -0.9720 -0.0918 0.2163
vn 0.0333 -0.3531 -0.9350
vn 0.9956 0.0940 0.0000
vn 0.0000 0.9101 -0.4144
vn -0.6405 0.7680 0.0000
vn 0.6405 0.7680 -0.0000
vn 0.0000 0.9101 0.4144
vn 0.1778 0.9162 -0.3592
vn 0.4869 0.8570 -0.1688
vn 0.1778 0.9162 0.3592
vn 0.4869 0.8570 0.1688
vn -0.4869 0.8570 0.1688
vn -0.1778 0.9162 0.3592
vn -0.1778 0.9162 -0.3592
vn -0.4869 0.8570 -0.1688
f 1337/2088/86 1339/2087/86 1338/2090/86 1343/2104/86 1345/2103/86 1344/2107/86 1346/2096/86 1348/2093/86 1347/2092/86 1340/2099/86 1342/2098/86 1341/2102/86
