# Generated from Tablet.obj, faces matching '\| 02___Default$', metres, origin at bottom centre
v -0.021447 0.002919 0.085515
v -0.021447 0.004707 0.085515
v -0.010819 0.004707 0.103241
v -0.010819 0.002919 0.103241
v -0.023163 0.002919 0.086554
v -0.012535 0.002919 0.104279
v -0.012535 0.004707 0.104279
v -0.023163 0.004707 0.086554
vn 0.8555 0.0000 -0.5177
vn -0.8555 -0.0000 0.5177
vn -0.0000 -1.0000 0.0000
vn 0.5142 -0.0000 0.8576
vn 0.0000 1.0000 -0.0000
vn -0.5142 0.0000 -0.8576
vt 1.0000 0.0000 0.0000
vt 1.0000 1.0000 0.0000
vt 0.0000 1.0000 0.0000
vt 0.0000 0.0000 0.0000
f -8/-4/-6 -7/-3/-6 -6/-2/-6 -5/-1/-6
f -4/-1/-5 -3/-4/-5 -2/-3/-5 -1/-2/-5
f -8/-1/-4 -5/-4/-4 -3/-3/-4 -4/-2/-4
f -5/-1/-3 -6/-4/-3 -2/-3/-3 -3/-2/-3
f -6/-1/-2 -7/-4/-2 -1/-3/-2 -2/-2/-2
f -7/-1/-1 -8/-4/-1 -4/-3/-1 -1/-2/-1
v -0.048671 0.008201 -0.081392
v -0.042014 0.008201 -0.075703
v -0.042928 0.008201 -0.07462
v -0.044038 0.008201 -0.073768
v -0.040888 0.008201 -0.078407
v -0.041326 0.008201 -0.07698
v -0.040814 0.008201 -0.081513
v -0.040716 0.008201 -0.079935
v -0.0418 0.008201 -0.084603
v -0.04118 0.008201 -0.083087
v -0.043715 0.008201 -0.08726
v -0.042655 0.008201 -0.08601
v -0.046299 0.008201 -0.089124
v -0.044943 0.008201 -0.088309
v -0.049203 0.008201 -0.089943
v -0.047735 0.008201 -0.089675
v -0.052035 0.008201 -0.089608
v -0.050653 0.008201 -0.089921
v -0.054413 0.008201 -0.088163
v -0.053303 0.008201 -0.089015
v -0.056016 0.008201 -0.085804
v -0.055328 0.008201 -0.08708
v -0.056626 0.008201 -0.082848
v -0.056453 0.008201 -0.084377
v -0.056162 0.008201 -0.079696
v -0.056528 0.008201 -0.08127
v -0.054686 0.008201 -0.076773
v -0.055541 0.008201 -0.07818
v -0.052398 0.008201 -0.074474
v -0.053627 0.008201 -0.075524
v -0.049607 0.008201 -0.073109
v -0.051043 0.008201 -0.07366
v -0.046689 0.008201 -0.072863
v -0.048139 0.008201 -0.07284
v -0.045306 0.008201 -0.073175
v -0.042928 0.009441 -0.07462
v -0.044038 0.009441 -0.073768
v -0.042014 0.009441 -0.075703
v -0.041326 0.009441 -0.07698
v -0.040888 0.009441 -0.078407
v -0.040716 0.009441 -0.079935
v -0.040814 0.009441 -0.081513
v -0.04118 0.009441 -0.083087
v -0.0418 0.009441 -0.084603
v -0.042655 0.009441 -0.08601
v -0.043715 0.009441 -0.08726
v -0.044943 0.009441 -0.088309
v -0.046299 0.009441 -0.089124
v -0.047735 0.009441 -0.089675
v -0.049203 0.009441 -0.089943
v -0.050653 0.009441 -0.089921
v -0.052035 0.009441 -0.089608
v -0.053303 0.009441 -0.089015
v -0.054413 0.009441 -0.088163
v -0.055328 0.009441 -0.08708
v -0.056016 0.009441 -0.085804
v -0.056453 0.009441 -0.084377
v -0.056626 0.009441 -0.082848
v -0.056528 0.009441 -0.08127
v -0.056162 0.009441 -0.079696
v -0.055541 0.009441 -0.07818
v -0.054686 0.009441 -0.076773
v -0.053627 0.009441 -0.075524
v -0.052398 0.009441 -0.074474
v -0.051043 0.009441 -0.07366
v -0.049607 0.009441 -0.073109
v -0.048139 0.009441 -0.07284
v -0.046689 0.009441 -0.072863
v -0.045306 0.009441 -0.073175
v -0.048671 0.009441 -0.081392
vn 0.0000 -1.0000 -0.0000
vn 0.5959 0.0000 0.8030
vn 0.7333 0.0000 0.6799
vn 0.8458 0.0000 0.5335
vn 0.9294 0.0000 0.3690
vn 0.9814 0.0000 0.1920
vn 1.0000 0.0000 0.0084
vn 0.9845 0.0000 -0.1755
vn 0.9355 0.0000 -0.3534
vn 0.8546 0.0000 -0.5193
vn 0.7446 0.0000 -0.6675
vn 0.6093 0.0000 -0.7929
vn 0.4532 0.0000 -0.8914
vn 0.2817 0.0000 -0.9595
vn 0.1006 0.0000 -0.9949
vn -0.0839 0.0000 -0.9965
vn -0.2656 0.0000 -0.9641
vn -0.4382 0.0000 -0.8989
vn -0.5959 0.0000 -0.8030
vn -0.7333 0.0000 -0.6799
vn -0.8458 0.0000 -0.5335
vn -0.9294 0.0000 -0.3690
vn -0.9814 0.0000 -0.1920
vn -1.0000 0.0000 -0.0084
vn -0.9845 0.0000 0.1755
vn -0.9355 0.0000 0.3534
vn -0.8546 0.0000 0.5193
vn -0.7446 0.0000 0.6675
vn -0.6093 0.0000 0.7929
vn -0.4532 0.0000 0.8914
vn -0.2817 0.0000 0.9595
vn -0.1006 0.0000 0.9949
vn 0.0839 0.0000 0.9965
vn 0.2656 0.0000 0.9641
vn 0.4382 0.0000 0.8989
vn 0.0000 1.0000 -0.0000
vt 0.5000 0.0000 0.0000
vt 0.8088 0.0000 1.0000
vt 0.7794 0.0000 1.0000
vt 0.7500 0.0000 1.0000
vt 0.8676 0.0000 1.0000
vt 0.8382 0.0000 1.0000
vt 0.9265 0.0000 1.0000
vt 0.8971 0.0000 1.0000
vt 0.9853 0.0000 1.0000
vt 0.9559 0.0000 1.0000
vt 0.0441 0.0000 1.0000
vt 0.0147 0.0000 1.0000
vt -0.0147 0.0000 1.0000
vt 0.1029 0.0000 1.0000
vt 0.0735 0.0000 1.0000
vt 0.1618 0.0000 1.0000
vt 0.1324 0.0000 1.0000
vt 0.2206 0.0000 1.0000
vt 0.1912 0.0000 1.0000
vt 0.2794 0.0000 1.0000
vt 0.2500 0.0000 1.0000
vt 0.3382 0.0000 1.0000
vt 0.3088 0.0000 1.0000
vt 0.3971 0.0000 1.0000
vt 0.3676 0.0000 1.0000
vt 0.4559 0.0000 1.0000
vt 0.4265 0.0000 1.0000
vt 0.5147 0.0000 1.0000
vt 0.4853 0.0000 1.0000
vt 0.5735 0.0000 1.0000
vt 0.5441 0.0000 1.0000
vt 0.6324 0.0000 1.0000
vt 0.6029 0.0000 1.0000
vt 0.6912 0.0000 1.0000
vt 0.6618 0.0000 1.0000
vt 0.7206 0.0000 1.0000
vt 0.7794 1.0000 1.0000
vt 0.7500 1.0000 1.0000
vt 0.8088 1.0000 1.0000
vt 0.8382 1.0000 1.0000
vt 0.8676 1.0000 1.0000
vt 0.8971 1.0000 1.0000
vt 0.9265 1.0000 1.0000
vt 0.9559 1.0000 1.0000
vt 0.9853 1.0000 1.0000
vt 0.0147 1.0000 1.0000
vt -0.0147 1.0000 1.0000
vt 0.0441 1.0000 1.0000
vt 0.0735 1.0000 1.0000
vt 0.1029 1.0000 1.0000
vt 0.1324 1.0000 1.0000
vt 0.1618 1.0000 1.0000
vt 0.1912 1.0000 1.0000
vt 0.2206 1.0000 1.0000
vt 0.2500 1.0000 1.0000
vt 0.2794 1.0000 1.0000
vt 0.3088 1.0000 1.0000
vt 0.3382 1.0000 1.0000
vt 0.3676 1.0000 1.0000
vt 0.3971 1.0000 1.0000
vt 0.4265 1.0000 1.0000
vt 0.4559 1.0000 1.0000
vt 0.4853 1.0000 1.0000
vt 0.5147 1.0000 1.0000
vt 0.5441 1.0000 1.0000
vt 0.5735 1.0000 1.0000
vt 0.6029 1.0000 1.0000
vt 0.6324 1.0000 1.0000
vt 0.6618 1.0000 1.0000
vt 0.6912 1.0000 1.0000
vt 0.7206 1.0000 1.0000
vt 0.5000 1.0000 0.0000
vt -0.0266 1.0000 0.9659
f -70/-73/-36 -69/-72/-36 -68/-71/-36 -67/-70/-36
f -70/-73/-36 -66/-69/-36 -65/-68/-36 -69/-72/-36
f -70/-73/-36 -64/-67/-36 -63/-66/-36 -66/-69/-36
f -70/-73/-36 -62/-65/-36 -61/-64/-36 -64/-67/-36
f -70/-73/-36 -60/-63/-36 -59/-62/-36 -62/-61/-36
f -70/-73/-36 -58/-60/-36 -57/-59/-36 -60/-63/-36
f -70/-73/-36 -56/-58/-36 -55/-57/-36 -58/-60/-36
f -70/-73/-36 -54/-56/-36 -53/-55/-36 -56/-58/-36
f -70/-73/-36 -52/-54/-36 -51/-53/-36 -54/-56/-36
f -70/-73/-36 -50/-52/-36 -49/-51/-36 -52/-54/-36
f -70/-73/-36 -48/-50/-36 -47/-49/-36 -50/-52/-36
f -70/-73/-36 -46/-48/-36 -45/-47/-36 -48/-50/-36
f -70/-73/-36 -44/-46/-36 -43/-45/-36 -46/-48/-36
f -70/-73/-36 -42/-44/-36 -41/-43/-36 -44/-46/-36
f -70/-73/-36 -40/-42/-36 -39/-41/-36 -42/-44/-36
f -70/-73/-36 -38/-40/-36 -37/-39/-36 -40/-42/-36
f -70/-73/-36 -67/-70/-36 -36/-38/-36 -38/-40/-36
f -67/-70/-35 -68/-71/-35 -35/-37/-35 -34/-36/-35
f -68/-71/-34 -69/-72/-34 -33/-35/-34 -35/-37/-34
f -69/-72/-33 -65/-68/-33 -32/-34/-33 -33/-35/-33
f -65/-68/-32 -66/-69/-32 -31/-33/-32 -32/-34/-32
f -66/-69/-31 -63/-66/-31 -30/-32/-31 -31/-33/-31
f -63/-66/-30 -64/-67/-30 -29/-31/-30 -30/-32/-30
f -64/-67/-29 -61/-64/-29 -28/-30/-29 -29/-31/-29
f -61/-64/-28 -62/-65/-28 -27/-29/-28 -28/-30/-28
f -62/-61/-27 -59/-62/-27 -26/-28/-27 -27/-27/-27
f -59/-62/-26 -60/-63/-26 -25/-26/-26 -26/-28/-26
f -60/-63/-25 -57/-59/-25 -24/-25/-25 -25/-26/-25
f -57/-59/-24 -58/-60/-24 -23/-24/-24 -24/-25/-24
f -58/-60/-23 -55/-57/-23 -22/-23/-23 -23/-24/-23
f -55/-57/-22 -56/-58/-22 -21/-22/-22 -22/-23/-22
f -56/-58/-21 -53/-55/-21 -20/-21/-21 -21/-22/-21
f -53/-55/-20 -54/-56/-20 -19/-20/-20 -20/-21/-20
f -54/-56/-19 -51/-53/-19 -18/-19/-19 -19/-20/-19
f -51/-53/-18 -52/-54/-18 -17/-18/-18 -18/-19/-18
f -52/-54/-17 -49/-51/-17 -16/-17/-17 -17/-18/-17
f -49/-51/-16 -50/-52/-16 -15/-16/-16 -16/-17/-16
f -50/-52/-15 -47/-49/-15 -14/-15/-15 -15/-16/-15
f -47/-49/-14 -48/-50/-14 -13/-14/-14 -14/-15/-14
f -48/-50/-13 -45/-47/-13 -12/-13/-13 -13/-14/-13
f -45/-47/-12 -46/-48/-12 -11/-12/-12 -12/-13/-12
f -46/-48/-11 -43/-45/-11 -10/-11/-11 -11/-12/-11
f -43/-45/-10 -44/-46/-10 -9/-10/-10 -10/-11/-10
f -44/-46/-9 -41/-43/-9 -8/-9/-9 -9/-10/-9
f -41/-43/-8 -42/-44/-8 -7/-8/-8 -8/-9/-8
f -42/-44/-7 -39/-41/-7 -6/-7/-7 -7/-8/-7
f -39/-41/-6 -40/-42/-6 -5/-6/-6 -6/-7/-6
f -40/-42/-5 -37/-39/-5 -4/-5/-5 -5/-6/-5
f -37/-39/-4 -38/-40/-4 -3/-4/-4 -4/-5/-4
f -38/-40/-3 -36/-38/-3 -2/-3/-3 -3/-4/-3
f -36/-38/-2 -67/-70/-2 -34/-36/-2 -2/-3/-2
f -1/-2/-1 -2/-3/-1 -34/-36/-1 -35/-37/-1
f -1/-2/-1 -35/-37/-1 -33/-35/-1 -32/-34/-1
f -1/-2/-1 -32/-34/-1 -31/-33/-1 -30/-32/-1
f -1/-2/-1 -30/-32/-1 -29/-31/-1 -28/-30/-1
f -1/-2/-1 -28/-1/-1 -27/-27/-1 -26/-28/-1
f -1/-2/-1 -26/-28/-1 -25/-26/-1 -24/-25/-1
f -1/-2/-1 -24/-25/-1 -23/-24/-1 -22/-23/-1
f -1/-2/-1 -22/-23/-1 -21/-22/-1 -20/-21/-1
f -1/-2/-1 -20/-21/-1 -19/-20/-1 -18/-19/-1
f -1/-2/-1 -18/-19/-1 -17/-18/-1 -16/-17/-1
f -1/-2/-1 -16/-17/-1 -15/-16/-1 -14/-15/-1
f -1/-2/-1 -14/-15/-1 -13/-14/-1 -12/-13/-1
f -1/-2/-1 -12/-13/-1 -11/-12/-1 -10/-11/-1
f -1/-2/-1 -10/-11/-1 -9/-10/-1 -8/-9/-1
f -1/-2/-1 -8/-9/-1 -7/-8/-1 -6/-7/-1
f -1/-2/-1 -6/-7/-1 -5/-6/-1 -4/-5/-1
f -1/-2/-1 -4/-5/-1 -3/-4/-1 -2/-3/-1
v -0.091039 0.008106 -0.03388
v 0.001385 0.008106 0.118224
v 0.0044 0.008106 0.120246
v 0.008886 0.008106 0.118805
v 0.101533 0.008106 0.062509
v 0.104878 0.008106 0.059192
v 0.104473 0.008106 0.055584
v 0.004548 0.008106 -0.097101
v 0.01205 0.008106 -0.096521
v 0.009034 0.008106 -0.098542
v -0.091444 0.008106 -0.037488
v -0.088099 0.008106 -0.040806
vn 0.0000 1.0000 -0.0000
vt 0.0831 0.0000 0.0000
vt 0.9169 0.0000 0.0000
vt 0.9792 0.0381 0.0000
vt 1.0000 0.1524 0.0000
vt 1.0000 0.8476 0.0000
vt 0.9792 0.9619 0.0000
vt 0.9169 1.0000 0.0000
vt 0.0000 0.8476 0.0000
vt 0.0831 1.0000 0.0000
vt 0.0208 0.9619 0.0000
vt 0.0208 0.0381 0.0000
vt 0.0000 0.1524 0.0000
v -0.097755 0 -0.075427
v -0.021912 0 -0.121512
v -0.006957 0 -0.125
v 0.004653 0 -0.115258
v 0.104443 0 0.048968
v 0.10774 0 0.063761
v 0.097755 0 0.075427
v -0.004653 0 0.115258
v 0.021912 0 0.121512
v 0.006957 0 0.125
v -0.10774 0 -0.063761
v -0.104443 0 -0.048968
v -0.079864 0.002072 -0.008519
v -0.078698 0.000483 -0.006599
v -0.076608 0.000483 -0.003159
v -0.078746 0.006998 -0.006679
v -0.075348 0.002087 -0.001086
v -0.075392 0.004998 -0.00116
v -0.076559 0.007005 -0.003079
v -0.104443 0.008933 -0.048968
v -0.004653 0.008933 0.115258
v -0.079864 0.005012 -0.008519
v 0.097755 0.008933 0.075427
v 0.021912 0.008933 0.121512
v 0.004653 0.008933 -0.115258
v 0.104443 0.008933 0.048968
v -0.080989 0.004487 -0.082378
v -0.080987 0.002641 -0.082379
v -0.081841 0.00177 -0.081861
v -0.084236 0.002533 -0.080405
v -0.083395 0.001769 -0.080916
v -0.084284 0.004524 -0.080376
v -0.083441 0.005458 -0.080888
v -0.081805 0.005463 -0.081882
v 0.006957 0.008933 0.125
v -0.10774 0.008933 -0.063761
v 0.10774 0.008933 0.063761
v -0.006957 0.008933 -0.125
v -0.097755 0.008933 -0.075427
v -0.021912 0.008933 -0.121512
v -0.101768 0.008933 -0.049487
v -0.002251 0.008933 0.11389
v 0.003404 0.008933 0.116364
v -0.089518 0.008933 -0.03656
v 0.007626 0.008933 0.121811
v 0.007656 0.008933 0.119426
v 0.020443 0.008933 0.11915
v 0.013256 0.008933 0.117759
v 0.096336 0.008933 0.073035
v 0.098411 0.008933 0.066016
v 0.104601 0.008933 0.062885
v 0.102471 0.008933 0.061813
v 0.102121 0.008933 0.05047
v 0.101712 0.008933 0.056628
v 0.00296 0.008933 -0.113124
v 0.008791 0.008933 -0.096295
v -0.007354 0.008933 -0.121879
v 0.004539 0.008933 -0.099358
v -0.020619 0.008933 -0.118842
v -0.001062 0.008933 -0.09769
v -0.09598 0.008933 -0.07305
v -0.086217 0.008933 -0.045947
v -0.104787 0.008933 -0.062675
v -0.090277 0.008933 -0.041745
v -0.087187 0.008933 -0.037415
v 0.005236 0.008933 0.114689
v 0.005236 0.008106 0.114689
v -0.087187 0.008106 -0.037415
v 0.008139 0.008933 0.11678
v 0.008139 0.008106 0.11678
v 0.012285 0.008933 0.115545
v 0.012285 0.008106 0.115545
v 0.096894 0.008933 0.064134
v 0.096894 0.008106 0.064134
v 0.0999 0.008933 0.061023
v 0.0999 0.008106 0.061023
v 0.099382 0.008933 0.057483
v 0.099382 0.008106 0.057483
v 0.006958 0.008933 -0.094621
v 0.006958 0.008106 -0.094621
v 0.004056 0.008933 -0.096711
v 0.004056 0.008106 -0.096711
v -0.00009 0.008933 -0.095477
v -0.00009 0.008106 -0.095477
v -0.0847 0.008933 -0.044065
v -0.0847 0.008106 -0.044065
v -0.087706 0.008933 -0.040954
v -0.087706 0.008106 -0.040954
v -0.085171 0.00609 -0.083074
v -0.082935 0.006098 -0.084433
v -0.080716 0.006098 -0.080782
v -0.082953 0.00609 -0.079423
v -0.081778 0.004713 -0.085136
v -0.079559 0.004713 -0.081485
v -0.081775 0.002387 -0.085137
v -0.079557 0.002387 -0.081486
v -0.083 0.001136 -0.084393
v -0.080782 0.001136 -0.080742
v -0.085086 0.001136 -0.083125
v -0.082868 0.001136 -0.079475
v -0.086314 0.002251 -0.082379
v -0.084096 0.002251 -0.078728
v -0.086375 0.004757 -0.082342
v -0.084156 0.004757 -0.078692
v -0.081023 0.005463 -0.080595
v -0.082659 0.005458 -0.079601
v -0.080207 0.004487 -0.081091
v -0.080205 0.002641 -0.081092
v -0.081059 0.00177 -0.080574
v -0.082613 0.001769 -0.079629
v -0.083454 0.002533 -0.079118
v -0.083502 0.004524 -0.079089
v -0.037711 0.005978 -0.111912
v -0.035759 0.004856 -0.111229
v -0.026137 0.00477 -0.117075
v -0.026137 0.003012 -0.117075
v -0.035783 0.003005 -0.111214
v -0.02583 0.005872 -0.119131
v -0.023806 0.005872 -0.115801
v -0.035688 0.005978 -0.108581
v -0.025829 0.001902 -0.119132
v -0.023805 0.001902 -0.115801
v -0.037765 0.001892 -0.111879
v -0.035741 0.001892 -0.108549
v -0.024943 0.00477 -0.11511
v -0.034565 0.004856 -0.109263
v -0.024943 0.003012 -0.11511
v -0.034589 0.003005 -0.109249
v -0.076615 0.004999 -0.000417
v -0.07657 0.002087 -0.000343
v -0.07783 0.000483 -0.002417
v -0.079968 0.006998 -0.005937
v -0.07992 0.000483 -0.005856
v -0.081087 0.002072 -0.007776
v -0.081087 0.005012 -0.007777
v -0.077781 0.007005 -0.002337
v -0.003214 0.008933 0.114035
v -0.102694 0.008933 -0.049682
v 0.007479 0.008933 0.122937
v 0.021218 0.008933 0.119787
v 0.096543 0.008933 0.074016
v 0.105669 0.008933 0.063273
v 0.102694 0.008933 0.049682
v 0.003214 0.008933 -0.114035
v -0.007479 0.008933 -0.122937
v -0.021218 0.008933 -0.119787
v -0.096543 0.008933 -0.074016
v -0.105669 0.008933 -0.063273
v -0.002753 0.008718 0.113812
v -0.002251 0.008718 0.11389
v -0.101768 0.008718 -0.049487
v -0.102195 0.008718 -0.049742
v 0.007586 0.008718 0.122378
v 0.007626 0.008718 0.121811
v 0.020918 0.008718 0.119364
v 0.020443 0.008718 0.11915
v 0.096306 0.008718 0.073555
v 0.096336 0.008718 0.073035
v 0.105123 0.008718 0.063111
v 0.104601 0.008718 0.062885
v 0.102283 0.008718 0.049988
v 0.102121 0.008718 0.05047
v 0.002931 0.008718 -0.11362
v 0.00296 0.008718 -0.113124
v -0.007518 0.008718 -0.122395
v -0.007354 0.008718 -0.121879
v -0.020962 0.008718 -0.119287
v -0.020619 0.008718 -0.118842
v -0.096217 0.008718 -0.073559
v -0.09598 0.008718 -0.07305
v -0.10517 0.008718 -0.063058
v -0.104787 0.008718 -0.062675
v -0.003214 0.008718 0.114035
v -0.102694 0.008718 -0.049682
v 0.007479 0.008718 0.122937
v 0.021218 0.008718 0.119787
v 0.096543 0.008718 0.074016
v 0.105669 0.008718 0.063273
v 0.102694 0.008718 0.049682
v 0.003214 0.008718 -0.114035
v -0.007479 0.008718 -0.122937
v -0.021218 0.008718 -0.119787
v -0.096543 0.008718 -0.074016
v -0.105669 0.008718 -0.063273
vn 0.0000 -1.0000 -0.0000
vn -0.8546 0.0001 0.5193
vn -0.8546 0.0000 0.5193
vn -0.8546 -0.0001 0.5193
vn -0.9267 -0.0000 0.3757
vn -0.9267 0.0000 0.3757
vn -0.7604 0.0000 0.6495
vn -0.7604 -0.0000 0.6495
vn -0.8546 -0.0002 0.5192
vn 0.3757 0.0000 0.9267
vn 0.6495 0.0000 0.7604
vn 0.9267 0.0000 -0.3757
vn 0.7604 0.0000 -0.6495
vn -0.5193 0.0000 -0.8546
vn -0.6465 0.0000 0.7629
vn -0.9750 0.0000 0.2224
vn 0.7629 0.0000 0.6465
vn 0.6465 0.0000 -0.7629
vn 0.2224 0.0000 0.9750
vn -0.7629 0.0000 -0.6465
vn 0.9750 0.0000 -0.2224
vn -0.2224 0.0000 -0.9750
vn 0.0000 1.0000 -0.0000
vn 0.9398 0.0000 -0.3416
vn 0.7362 0.0000 -0.6768
vn 0.5892 0.0000 -0.8080
vn -0.2815 0.0000 -0.9596
vn -0.4038 0.0000 -0.9148
vn -0.6259 0.0000 -0.7799
vn -0.7220 0.0000 -0.6919
vn -0.9886 0.0000 0.1507
vn -0.9398 0.0000 0.3416
vn -0.7362 0.0000 0.6768
vn -0.5892 0.0000 0.8080
vn 0.2815 0.0000 0.9596
vn 0.4038 0.0000 0.9148
vn 0.6259 0.0000 0.7799
vn 0.7220 0.0000 0.6919
vn 0.9886 0.0000 -0.1507
vn 0.0029 -1.0000 -0.0017
vn -0.6621 -0.6323 0.4023
vn -0.8546 -0.0011 0.5193
vn -0.6173 0.6915 0.3751
vn -0.0002 1.0000 0.0001
vn 0.5816 0.7326 -0.3534
vn 0.8544 0.0236 -0.5191
vn 0.6411 -0.6613 -0.3895
vn -0.0029 1.0000 0.0017
vn 0.6621 0.6323 -0.4023
vn 0.8546 0.0011 -0.5193
vn 0.6173 -0.6915 -0.3751
vn 0.0002 -1.0000 -0.0001
vn -0.5816 -0.7326 0.3534
vn -0.8544 -0.0236 0.5191
vn -0.6411 0.6613 0.3895
vn -0.0078 -1.0000 0.0047
vn -0.8546 -0.0003 0.5193
vn -0.0007 1.0000 0.0004
vn 0.8545 -0.0127 -0.5192
vn 0.0078 1.0000 -0.0047
vn 0.8546 0.0003 -0.5193
vn 0.0007 -1.0000 -0.0004
vn -0.8545 0.0127 0.5192
vn 0.8546 -0.0000 -0.5193
vn 0.8546 -0.0001 -0.5193
vn 0.8546 0.0002 -0.5192
vn 0.3821 -0.6771 0.6290
vn 0.0010 -1.0000 0.0017
vn -0.3764 -0.6889 -0.6195
vn -0.5191 -0.0251 -0.8543
vn -0.3190 0.7890 -0.5251
vn 0.3325 0.7682 0.5471
vn 0.5193 0.0000 0.8546
vn -0.8540 0.0000 0.5202
vn -0.9737 0.0000 0.2279
vn -0.7655 0.0000 -0.6434
vn -0.2184 0.0000 -0.9759
vn 0.6508 0.0000 -0.7592
vn 0.8552 0.0000 -0.5184
vn 0.9796 0.0000 -0.2010
vn 0.7787 0.0000 0.6274
vn 0.1982 0.0000 0.9802
vn -0.6297 0.0000 0.7769
vn 0.8546 0.0000 -0.5193
vn 0.6436 0.0000 -0.7653
vn -0.2187 0.0000 -0.9758
vn -0.7653 0.0000 -0.6436
vn -0.9758 0.0000 0.2187
vn -0.6436 0.0000 0.7653
vn 0.2187 0.0000 0.9758
vn 0.7653 0.0000 0.6436
vn 0.9758 0.0000 -0.2187
vt 1.0000 0.1524 0.0000
vt 1.0000 0.8476 0.0000
vt 0.9792 0.9619 0.0000
vt 0.9169 1.0000 0.0000
vt 0.0831 1.0000 0.0000
vt 0.0208 0.9619 0.0000
vt 0.0000 0.8476 0.0000
vt 0.0831 0.0000 0.0000
vt 0.0000 0.1524 0.0000
vt 0.0208 0.0381 0.0000
vt 0.9792 0.0381 0.0000
vt 0.9169 0.0000 0.0000
vt 0.2884 0.2320 0.0000
vt 0.2982 0.0541 0.0000
vt 0.3157 0.0541 0.0000
vt 0.2978 0.7834 0.0000
vt 0.3250 0.1875 0.0000
vt 0.3258 0.5343 0.0000
vt 0.3161 0.7389 0.0000
vt 0.2884 0.5610 0.0000
vt 0.1524 0.0000 0.0000
vt 0.8476 0.0000 0.0000
vt 0.8476 1.0000 0.0000
vt 0.1524 1.0000 0.0000
vt 0.7011 0.5275 0.0000
vt 0.7017 0.2672 0.0000
vt 0.7154 0.1211 0.0000
vt 0.7421 0.2519 0.0000
vt 0.7319 0.1296 0.0000
vt 0.7433 0.5125 0.0000
vt 0.7359 0.6994 0.0000
vt 0.7154 0.6826 0.0000
vt -0.9177 1.0000 0.0000
vt -1.9879 1.0000 0.0000
vt -1.9879 -0.0000 0.0000
vt -0.9177 -0.0000 0.0000
vt 1.9177 0.0000 0.0000
vt 2.9879 0.0000 0.0000
vt 2.9879 1.0000 0.0000
vt 1.9177 1.0000 0.0000
vt -1.7823 1.0000 0.0000
vt -3.6477 1.0000 0.0000
vt -3.6477 -0.0000 0.0000
vt -1.7823 -0.0000 0.0000
vt 0.2972 0.6691 0.0000
vt 0.1917 0.6573 0.0000
vt 0.1883 0.2129 0.0000
vt 0.2977 0.2118 0.0000
f -71/-4/-79 -70/-3/-79 -69/-2/-79 -68/-1/-79
f -56/-31/-29 -55/-32/-28 -54/-34/-28 -53/-33/-29
f -54/-34/-28 -52/-35/-28 -51/-36/-28 -53/-33/-29
f -51/-36/-28 -50/-29/-28 -53/-33/-29
f -49/-30/-27 -56/-31/-29 -53/-33/-29
f -163/-29/-26 -169/-33/-26 -53/-33/-26 -50/-29/-26
f -169/-33/-25 -166/-30/-25 -49/-30/-25 -53/-33/-25
f -166/-30/-24 -167/-31/-24 -56/-31/-24
f -56/-31/-24 -49/-30/-24 -166/-30/-24
f -167/-31/-23 -168/-32/-23 -55/-32/-23 -56/-31/-23
f -168/-32/-22 -170/-34/-22 -54/-34/-22 -55/-32/-22
f -170/-34/-70 -171/-35/-70 -52/-35/-70 -54/-34/-70
f -171/-35/-21 -172/-36/-21 -51/-36/-21 -52/-35/-21
f -172/-36/-20 -163/-29/-20 -50/-29/-20 -51/-36/-20
v -0.03357 0.002919 0.065564
v -0.03357 0.004707 0.065564
v -0.022942 0.004707 0.083289
v -0.022942 0.002919 0.083289
v -0.035286 0.002919 0.066602
v -0.024658 0.002919 0.084328
v -0.024658 0.004707 0.084328
v -0.035286 0.004707 0.066602
vn 0.8555 0.0000 -0.5177
vn -0.8555 -0.0000 0.5177
vn -0.0000 -1.0000 0.0000
vn 0.5142 -0.0000 0.8576
vn 0.0000 1.0000 -0.0000
vn -0.5142 0.0000 -0.8576
vt 1.0000 0.0000 0.0000
vt 1.0000 1.0000 0.0000
vt 0.0000 1.0000 0.0000
vt 0.0000 0.0000 0.0000
f -8/-4/-6 -7/-3/-6 -6/-2/-6 -5/-1/-6
f -4/-1/-5 -3/-4/-5 -2/-3/-5 -1/-2/-5
f -8/-1/-4 -5/-4/-4 -3/-3/-4 -4/-2/-4
f -5/-1/-3 -6/-4/-3 -2/-3/-3 -3/-2/-3
f -6/-1/-2 -7/-4/-2 -1/-3/-2 -2/-2/-2
f -7/-1/-1 -8/-4/-1 -4/-3/-1 -1/-2/-1
