# Generated from model.obj, faces matching '\| mat15$', metres, origin at bottom centre
v -0.755 0 0.465
v -0.805 0 0.465
v -0.805 0.73 0.465
v -0.755 0.73 0.465
v -0.755 0 0.415
v -0.755 0.73 0.415
v -0.805 0.73 0.415
v -0.805 0 0.415
v -0.755 0 -0.415
v -0.805 0 -0.415
v -0.805 0.73 -0.415
v -0.755 0.73 -0.415
v -0.755 0 -0.465
v -0.755 0.73 -0.465
v -0.805 0.73 -0.465
v -0.805 0 -0.465
v -0.755 0.65 0.415001
v -0.755 0.65 -0.425001
v -0.785 0.65 -0.425
v -0.785 0.65 0.415001
v -0.755 0.73 0.415001
v -0.785 0.73 0.415001
v -0.785 0.73 -0.425
v -0.755 0.73 -0.425
v 0.855 0.73 0.515
v -0.855 0.73 0.515
v -0.855 0.78 0.515
v 0.855 0.78 0.515
v 0.855 0.73 -0.515
v 0.855 0.78 -0.515
v -0.855 0.78 -0.515
v -0.855 0.73 -0.515
v 0.81 0 0.465
v 0.76 0 0.465
v 0.76 0.73 0.465
v 0.81 0.73 0.465
v 0.81 0 0.415
v 0.81 0.73 0.415
v 0.76 0.73 0.415
v 0.76 0 0.415
v 0.81 0 -0.415
v 0.76 0 -0.415
v 0.76 0.73 -0.415
v 0.81 0.73 -0.415
v 0.81 0 -0.465
v 0.81 0.73 -0.465
v 0.76 0.73 -0.465
v 0.76 0 -0.465
v 0.79 0.65 0.410002
v 0.79 0.65 -0.43
v 0.76 0.65 -0.43
v 0.76 0.65 0.410001
v 0.79 0.73 0.410001
v 0.76 0.73 0.410001
v 0.76 0.73 -0.43
v 0.79 0.73 -0.43
v 0.795001 0.65 0.445
v -0.755 0.65 0.445
v -0.755 0.73 0.445
v 0.795 0.73 0.445
v 0.795 0.65 0.415
v 0.795 0.73 0.415
v -0.755 0.73 0.415
v -0.755 0.65 0.415
v 0.775001 0.655 -0.415
v -0.775 0.655 -0.415001
v -0.775 0.735 -0.415001
v 0.775 0.735 -0.415
v 0.775 0.655 -0.445
v 0.775 0.735 -0.445
v -0.775 0.735 -0.445001
v -0.775 0.655 -0.445001
v 0.682402 0.670911 -0.423261
v 0.759114 0.669428 -0.349764
v 0.763219 0.719259 -0.349867
v 0.686507 0.720742 -0.423363
v 0.621841 0.671862 -0.4183
v 0.625946 0.721693 -0.418403
v 0.767658 0.722201 -0.288595
v 0.763554 0.67237 -0.288492
v 0.774925 0.666987 0.351289
v 0.691623 0.664752 0.417202
v 0.690285 0.714608 0.420744
v 0.773586 0.716844 0.354831
v 0.778316 0.667343 0.290614
v 0.776978 0.717199 0.294156
v 0.628942 0.716429 0.416702
v 0.63028 0.666572 0.41316
v -0.767538 0.672116 -0.336271
v -0.701999 0.671654 -0.419896
v -0.700815 0.721594 -0.422036
v -0.766354 0.722056 -0.338411
v -0.756641 0.670379 -0.27651
v -0.755457 0.720319 -0.27865
v -0.640208 0.722887 -0.432416
v -0.641392 0.672947 -0.430276
v -0.692837 0.668562 0.429461
v -0.772516 0.660687 0.359619
v -0.779148 0.710227 0.358257
v -0.699469 0.718102 0.428099
v -0.632679 0.672331 0.421722
v -0.639311 0.721871 0.42036
v -0.786409 0.710776 0.297186
v -0.779778 0.661236 0.298549
v 0.710587 0.687139 0.439262
v 0.644346 0.687906 0.394646
v 0.644279 0.689718 0.394824
v 0.711598 0.686601 0.438506
v 0.644937 0.686428 0.393757
v 0.645892 0.685681 0.392397
v 0.709635 0.686384 0.436486
v 0.646955 0.685865 0.390928
v 0.647843 0.686931 0.389746
v 0.648316 0.688592 0.389166
v 0.648249 0.690405 0.389344
v 0.647658 0.691883 0.390232
v 0.646703 0.69263 0.391593
v 0.645639 0.692446 0.393061
v 0.707622 0.68729 0.437495
v 0.644752 0.69138 0.394244
v 0.710469 0.687572 0.438075
v 0.650203 0.699389 0.391868
v 0.647012 0.698837 0.396273
v 0.643585 0.698952 0.393805
v 0.646776 0.699503 0.3894
v 0.64435 0.69564 0.399821
v 0.640923 0.695755 0.397353
v 0.64293 0.690656 0.401561
v 0.639503 0.69077 0.399093
v 0.643133 0.685218 0.401027
v 0.639706 0.685333 0.398559
v 0.644904 0.680785 0.398362
v 0.641477 0.6809 0.395894
v 0.647769 0.678544 0.39428
v 0.644342 0.678659 0.391812
v 0.65096 0.679096 0.389875
v 0.647533 0.67921 0.387407
v 0.653622 0.682292 0.386327
v 0.650195 0.682407 0.383859
v 0.655042 0.687277 0.384587
v 0.651615 0.687392 0.382119
v 0.654839 0.692715 0.385121
v 0.651412 0.692829 0.382653
v 0.653068 0.697148 0.387786
v 0.649641 0.697262 0.385318
v 0.638944 0.701965 -0.40129
v 0.642045 0.702038 -0.396788
v 0.638577 0.702417 -0.394405
v 0.635476 0.702344 -0.398908
v 0.644549 0.699378 -0.39272
v 0.641081 0.699757 -0.390337
v 0.645785 0.694699 -0.390176
v 0.642317 0.695078 -0.387793
v 0.645422 0.689254 -0.389838
v 0.641954 0.689633 -0.387456
v 0.643558 0.684502 -0.391797
v 0.640089 0.684881 -0.389414
v 0.640691 0.681717 -0.395527
v 0.637222 0.682096 -0.393145
v 0.63759 0.681645 -0.40003
v 0.634122 0.682024 -0.397647
v 0.635086 0.684304 -0.404098
v 0.631618 0.684683 -0.401715
v 0.63385 0.688983 -0.406641
v 0.630382 0.689362 -0.404259
v 0.634213 0.694428 -0.406979
v 0.630744 0.694807 -0.404597
v 0.636078 0.69918 -0.405021
v 0.632609 0.699559 -0.402638
v 0.703877 0.685359 -0.440668
v 0.639771 0.691422 -0.393415
v 0.639892 0.693237 -0.393527
v 0.703506 0.684665 -0.441792
v 0.63915 0.689838 -0.394068
v 0.638194 0.68891 -0.395311
v 0.700952 0.684569 -0.440589
v 0.637161 0.688885 -0.396812
v 0.636326 0.689772 -0.398168
v 0.635914 0.691332 -0.399016
v 0.636035 0.693147 -0.399128
v 0.636656 0.69473 -0.398475
v 0.637612 0.695659 -0.397232
v 0.638646 0.695683 -0.395731
v 0.701223 0.68576 -0.438492
v 0.63948 0.694797 -0.394375
v 0.702712 0.685737 -0.441002
v 0.744256 0.699298 -0.306073
v 0.74837 0.69691 -0.303377
v 0.74621 0.697267 -0.299764
v 0.742096 0.699655 -0.30246
v 0.750798 0.692394 -0.301479
v 0.748638 0.692751 -0.297866
v 0.750889 0.686959 -0.300887
v 0.748729 0.687317 -0.297274
v 0.748618 0.682063 -0.301759
v 0.746458 0.68242 -0.298146
v 0.744595 0.679016 -0.303863
v 0.742435 0.679373 -0.30025
v 0.739897 0.678635 -0.306634
v 0.737737 0.678993 -0.30302
v 0.735783 0.681023 -0.309329
v 0.733623 0.681381 -0.305716
v 0.733356 0.685539 -0.311228
v 0.731196 0.685897 -0.307614
v 0.733265 0.690974 -0.31182
v 0.731105 0.691331 -0.308207
v 0.735535 0.69587 -0.310947
v 0.733375 0.696228 -0.307334
v 0.739558 0.698917 -0.308844
v 0.737398 0.699275 -0.30523
v 0.782702 0.682183 -0.37143
v 0.743405 0.68677 -0.302049
v 0.744162 0.688402 -0.301758
v 0.781773 0.682071 -0.372434
v 0.742064 0.685754 -0.30275
v 0.740498 0.685627 -0.303673
v 0.779871 0.682201 -0.370348
v 0.739127 0.686423 -0.304572
v 0.738317 0.687929 -0.305205
v 0.738287 0.68974 -0.305402
v 0.739044 0.691372 -0.305111
v 0.740385 0.692388 -0.30441
v 0.741951 0.692515 -0.303486
v 0.743322 0.691719 -0.302588
v 0.781199 0.682426 -0.368329
v 0.744131 0.690213 -0.301955
v 0.781725 0.682943 -0.371153
v -0.741708 0.704918 -0.288024
v -0.737745 0.705822 -0.29168
v -0.735024 0.706589 -0.28854
v -0.738987 0.705685 -0.284884
v -0.733644 0.703956 -0.294778
v -0.730923 0.704723 -0.291638
v -0.730506 0.699818 -0.296487
v -0.727785 0.700585 -0.293347
v -0.72917 0.694518 -0.296349
v -0.726449 0.695285 -0.29321
v -0.729994 0.689476 -0.294403
v -0.727273 0.690243 -0.291263
v -0.732759 0.686043 -0.291168
v -0.730038 0.68681 -0.288028
v -0.736722 0.685138 -0.287512
v -0.734001 0.685906 -0.284372
v -0.740823 0.687005 -0.284415
v -0.738102 0.687772 -0.281275
v -0.743961 0.691143 -0.282705
v -0.74124 0.69191 -0.279566
v -0.745297 0.696442 -0.282843
v -0.742576 0.69721 -0.279703
v -0.744473 0.701484 -0.284789
v -0.741752 0.702252 -0.28165
v -0.785877 0.682132 -0.347794
v -0.732283 0.69596 -0.290213
v -0.732728 0.697727 -0.290259
v -0.786802 0.681245 -0.347304
v -0.732558 0.69428 -0.289565
v -0.733479 0.693135 -0.288486
v -0.78527 0.681342 -0.344932
v -0.7348 0.692834 -0.287268
v -0.736167 0.693456 -0.286235
v -0.737213 0.694835 -0.285665
v -0.737659 0.696602 -0.285711
v -0.737384 0.698282 -0.28636
v -0.736462 0.699427 -0.287438
v -0.735141 0.699728 -0.288657
v -0.783471 0.682891 -0.345434
v -0.733774 0.699106 -0.289689
v -0.786114 0.682434 -0.346585
v -0.660885 0.704057 -0.405879
v -0.658939 0.700932 -0.409922
v -0.655057 0.701229 -0.408282
v -0.657003 0.704353 -0.404239
v -0.657718 0.695991 -0.411919
v -0.653836 0.696288 -0.410279
v -0.65755 0.690558 -0.411336
v -0.653668 0.690854 -0.409696
v -0.65848 0.686088 -0.408328
v -0.654598 0.686384 -0.406688
v -0.660258 0.683779 -0.403702
v -0.656376 0.684075 -0.402062
v -0.662408 0.684249 -0.398698
v -0.658526 0.684545 -0.397058
v -0.664354 0.687374 -0.394655
v -0.660472 0.68767 -0.393015
v -0.665575 0.692315 -0.392658
v -0.661693 0.692611 -0.391018
v -0.665743 0.697748 -0.393241
v -0.661861 0.698045 -0.391601
v -0.664814 0.702219 -0.396249
v -0.660931 0.702515 -0.394609
v -0.663036 0.704528 -0.400875
v -0.659153 0.704824 -0.399234
v -0.73182 0.688263 -0.433473
v -0.65773 0.691422 -0.403811
v -0.65742 0.692912 -0.404814
v -0.732698 0.688362 -0.432423
v -0.658323 0.690653 -0.40227
v -0.659039 0.69081 -0.400601
v -0.730377 0.68854 -0.430823
v -0.659688 0.691851 -0.399254
v -0.660095 0.693498 -0.398588
v -0.660151 0.695309 -0.398782
v -0.659841 0.696799 -0.399785
v -0.659248 0.697569 -0.401327
v -0.658532 0.697412 -0.402995
v -0.657883 0.696371 -0.404343
v -0.728539 0.68841 -0.432401
v -0.657476 0.694724 -0.405008
v -0.73136 0.689113 -0.43265
v -0.654292 0.702076 0.404274
v -0.657341 0.705253 0.401034
v -0.653974 0.705996 0.398592
v -0.650924 0.702819 0.401832
v -0.660616 0.705833 0.396694
v -0.657248 0.706575 0.394253
v -0.663237 0.703659 0.392417
v -0.65987 0.704401 0.389975
v -0.664504 0.699315 0.389349
v -0.661137 0.700057 0.386907
v -0.664076 0.693964 0.388312
v -0.660709 0.694706 0.38587
v -0.662068 0.68904 0.389583
v -0.658701 0.689782 0.387142
v -0.659019 0.685862 0.392823
v -0.655652 0.686605 0.390382
v -0.655745 0.685283 0.397163
v -0.652377 0.686026 0.394722
v -0.653123 0.687457 0.40144
v -0.649756 0.688199 0.398999
v -0.651856 0.691801 0.404509
v -0.648489 0.692544 0.402067
v -0.652284 0.697152 0.405546
v -0.648917 0.697895 0.403104
v -0.720262 0.683191 0.440796
v -0.65838 0.697845 0.392474
v -0.657958 0.699293 0.393496
v -0.720086 0.681943 0.441339
v -0.658238 0.696062 0.392128
v -0.657568 0.69442 0.392552
v -0.717703 0.681892 0.439821
v -0.656552 0.693361 0.393632
v -0.655461 0.693168 0.395078
v -0.654587 0.693893 0.396504
v -0.654164 0.695341 0.397527
v -0.654307 0.697125 0.397873
v -0.654976 0.698766 0.397449
v -0.655993 0.699825 0.396369
v -0.717661 0.684035 0.438684
v -0.657084 0.700018 0.394922
v -0.71903 0.683045 0.441064
v -0.786262 0.688329 0.39182
v -0.740094 0.694167 0.326907
v -0.739747 0.695903 0.327343
v -0.78574 0.687345 0.39262
v -0.739693 0.692395 0.327043
v -0.738648 0.69106 0.327714
v -0.783772 0.687098 0.390609
v -0.737242 0.690521 0.32874
v -0.73585 0.690922 0.329846
v -0.734845 0.692155 0.330736
v -0.734498 0.69389 0.331171
v -0.7349 0.695662 0.331035
v -0.735944 0.696997 0.330365
v -0.73735 0.697536 0.329339
v -0.784383 0.688764 0.388953
v -0.738742 0.697136 0.328233
v -0.784997 0.68842 0.391786
v -0.734458 0.702342 0.335583
v -0.738677 0.70396 0.332506
v -0.736114 0.704285 0.329163
v -0.731895 0.702667 0.33224
v -0.742853 0.702758 0.329188
v -0.74029 0.703083 0.325845
v -0.745866 0.699059 0.326518
v -0.743303 0.699384 0.323175
v -0.74691 0.693854 0.325212
v -0.744347 0.694179 0.321869
v -0.745704 0.688536 0.325619
v -0.743141 0.688861 0.322276
v -0.742571 0.684533 0.327631
v -0.740009 0.684858 0.324288
v -0.738352 0.682915 0.330709
v -0.735789 0.68324 0.327366
v -0.734176 0.684116 0.334027
v -0.731613 0.684441 0.330684
v -0.731163 0.687815 0.336697
v -0.7286 0.68814 0.333354
v -0.730119 0.693021 0.338003
v -0.727556 0.693346 0.33466
v -0.731325 0.698338 0.337596
v -0.728762 0.698663 0.334253
v 0.74951 0.703019 0.312004
v 0.745695 0.705493 0.31504
v 0.743145 0.705689 0.311677
v 0.74696 0.703216 0.308641
v 0.741336 0.7052 0.318328
v 0.738786 0.705396 0.314965
v 0.737601 0.70222 0.320985
v 0.735052 0.702416 0.317622
v 0.735491 0.69735 0.322301
v 0.732942 0.697547 0.318937
v 0.735571 0.691897 0.321921
v 0.733022 0.692093 0.318558
v 0.73782 0.68732 0.319949
v 0.735271 0.687516 0.316586
v 0.741635 0.684847 0.316913
v 0.739086 0.685043 0.31355
v 0.745994 0.685139 0.313625
v 0.743444 0.685336 0.310262
v 0.749729 0.68812 0.310968
v 0.747179 0.688316 0.307605
v 0.751839 0.692989 0.309652
v 0.749289 0.693185 0.306289
v 0.751759 0.698443 0.310032
v 0.749209 0.698639 0.306669
v 0.789283 0.692607 0.377975
v 0.738836 0.696497 0.316176
v 0.739539 0.698121 0.315738
v 0.79007 0.691496 0.377807
v 0.738863 0.694679 0.31605
v 0.739613 0.693154 0.315393
v 0.788589 0.691114 0.375431
v 0.740884 0.69233 0.31438
v 0.742337 0.692427 0.313285
v 0.743582 0.69342 0.312399
v 0.744285 0.695044 0.31196
v 0.744259 0.696861 0.312087
v 0.743509 0.698387 0.312744
v 0.742237 0.699211 0.313756
v 0.787037 0.692978 0.375376
v 0.740784 0.699114 0.314852
v 0.789572 0.692508 0.376743
v 0.415 0.72 0.385
v 0.415 0.7 0.415
v 0.415 0.73 0.415
v 0.415 0.73 0.385
v -0.375 0.72 0.385
v -0.375 0.73 0.385
v -0.375 0.73 0.415
v -0.375 0.7 0.415
v -0.445 0.72 -0.385
v -0.445 0.7 -0.415
v -0.445 0.73 -0.415
v -0.445 0.73 -0.385
v 0.345 0.72 -0.385
v 0.345 0.73 -0.385
v 0.345 0.73 -0.415
v 0.345 0.7 -0.415
vn -1.192093E-07 0 1
vn 1.192093E-07 0 -1
vn 0 -1 0
vn 0 1 0
vn 1 0 1.192093E-07
vn -1 0 -1.192093E-07
vn -1.192093E-07 0 1
vn 1.192093E-07 0 -1
vn 0 -1 0
vn 0 1 0
vn 1 0 1.192093E-07
vn -1 0 -1.192093E-07
vn -1.192093E-07 -1 1.748456E-07
vn 1.192093E-07 1 -1.748456E-07
vn 1 1.192093E-07 8.742279E-08
vn -1 -1.192093E-07 -8.742279E-08
vn -1.002152E-05 -2.260871E-06 1
vn 8.742279E-08 -1.748456E-07 -1
vn -1.192093E-07 0 1
vn 1.192093E-07 0 -1
vn 0 -1 0
vn 0 1 0
vn 1 0 1.192093E-07
vn -1 0 -1.192093E-07
vn -1.192093E-07 -1.748456E-07 1
vn 1.192093E-07 1.748456E-07 -1
vn 0 -1 -1.748456E-07
vn 0 1 1.748456E-07
vn 1 0 1.192093E-07
vn -1 0 -1.192093E-07
vn -1.192093E-07 -1.748456E-07 1
vn 1.192093E-07 1.748456E-07 -1
vn 0 -1 -1.748456E-07
vn 0 1 1.748456E-07
vn 1 0 1.192093E-07
vn -1 0 -1.192093E-07
vn -1.192093E-07 -1 -7.105427E-15
vn 1.192093E-07 1 7.105427E-15
vn 1 1.192093E-07 8.742278E-08
vn -1 -1.192093E-07 -8.742278E-08
vn -1.002152E-05 -2.435717E-06 1
vn 8.742278E-08 7.105427E-15 -1
vn -1.192093E-07 0 1
vn 1.192093E-07 0 -1
vn 1.748456E-07 -1 0
vn -1.748456E-07 1 0
vn 1 4.645198E-06 -1.22659E-05
vn -1 -1.748456E-07 -1.192093E-07
vn -1.192093E-07 0 1
vn 1.192093E-07 0 -1
vn 1.748456E-07 -1 0
vn -1.748456E-07 1 0
vn 1 4.645198E-06 -1.22659E-05
vn -1 -1.748456E-07 -1.192093E-07
vn 0.690047 -0.05833035 -0.7214102
vn -0.6744659 0.05707715 0.7360964
vn -0.04317324 -0.9977631 0.0510366
vn 0.0431735 0.9977631 -0.05103688
vn -0.0815658 0.00466439 -0.9966571
vn 0.9942986 -0.0820442 -0.06811147
vn -0.01598927 -0.999866 -0.003485611
vn 0.0159892 0.9998661 0.003485918
vn 0.6206745 -0.03897315 0.7830991
vn -0.6373378 0.03757182 -0.769668
vn -0.02707624 -0.9988726 -0.03899086
vn 0.02707648 0.9988726 0.03899115
vn 0.9981747 0.02281708 0.0559189
vn -0.06771198 -0.07250427 0.995067
vn 0.02322252 -0.9997199 -0.004561511
vn -0.02322282 0.99972 0.004561401
vn -0.7870765 -0.007768429 -0.6168067
vn 0.8001154 0.006731104 0.5998086
vn 0.02119105 -0.9997751 -0.000814321
vn -0.02119135 0.9997751 0.0008140922
vn -0.9831469 0.03102485 0.180167
vn -0.1678918 -0.03822165 -0.9850644
vn -0.03577093 -0.9991063 -0.02251568
vn 0.03577125 0.9991064 0.02251572
vn -0.6539457 -0.06682093 0.7535846
vn 0.6378211 0.06427979 -0.7674974
vn 0.09171484 -0.9955873 -0.01985119
vn -0.09171509 0.9955873 0.01985147
vn 0.1247559 0.04395766 0.9912133
vn -0.984888 -0.1286556 0.1159451
vn 0.06708533 -0.9971014 0.03589069
vn -0.06708528 0.9971015 -0.03589101
vn -0.5565566 -0.101763 0.8245539
vn -0.4566796 -0.5852662 0.6700056
vn -0.2268676 -0.9120983 0.3414794
vn 0.06473131 -0.9948712 -0.07772642
vn 0.3481326 -0.8112707 -0.4697272
vn 0.5477899 -0.4104834 -0.7289922
vn 0.6079879 0.1000543 -0.7876166
vn 0.5150824 0.5833519 -0.6280056
vn 0.2897069 0.9101035 -0.2962801
vn -0.008263767 0.9929331 0.1183882
vn -0.2961752 0.80943 0.5070536
vn -0.4990462 0.4088437 0.7640679
vn -0.8111571 0.02710924 -0.5841999
vn 0.3818615 0.8031296 -0.4573456
vn 0.7121888 0.6793182 0.1769574
vn -0.2388753 -0.9132012 0.3301554
vn 0.2388751 0.9132013 -0.3301552
vn -0.1818355 -0.9432347 0.2779287
vn -0.2356067 -0.9126136 0.3341049
vn -0.1458714 -0.9761159 0.1609957
vn -0.102451 0.9616361 0.2544797
vn 0.4603804 0.7038267 -0.5409974
vn 0.07516444 0.997132 -0.008847205
vn -0.03711731 0.9945249 0.09768687
vn -0.3239696 0.8108222 0.4874538
vn -0.5240146 0.4098603 0.7466081
vn -0.5836501 -0.1009234 0.8057094
vn -0.4868974 -0.5846646 0.6489213
vn -0.2596808 -0.9117454 0.3182556
vn 0.03711777 -0.994525 -0.09768645
vn 0.32397 -0.8108222 -0.4874536
vn 0.5240148 -0.4098603 -0.7466079
vn 0.5836503 0.1009232 -0.8057092
vn 0.4868973 0.5846646 -0.6489214
vn 0.2596803 0.9117455 -0.3182556
vn 0.8111567 -0.02710927 0.5842005
vn -0.8111567 0.02710927 -0.5842005
vn 0.06638274 0.9958799 -0.06177741
vn 0.3410656 0.8690972 0.3582518
vn 0.5243603 0.5094405 0.6822878
vn 0.5671533 0.01327954 0.8235053
vn 0.4579776 -0.4864395 0.7440653
vn 0.2260875 -0.8558174 0.4652538
vn -0.06638219 -0.9958801 0.06177711
vn -0.3410653 -0.8690972 -0.3582522
vn -0.5243601 -0.5094405 -0.682288
vn -0.5671531 -0.01327971 -0.8235054
vn -0.4579777 0.4864394 -0.7440653
vn -0.2260878 0.8558176 -0.4652533
vn 0.8209329 -0.0897036 -0.5639349
vn -0.8209329 0.0897036 0.5639349
vn 0.5939422 0.01031148 0.8044416
vn 0.4879142 -0.4894141 0.7227818
vn 0.2589012 -0.8587314 0.442211
vn -0.03837499 -0.998358 0.04252854
vn -0.3163104 -0.8713952 -0.3749909
vn -0.4998362 -0.5118722 -0.6986778
vn -0.5419891 -0.01599483 -0.8402333
vn -0.4288666 0.4829892 -0.76341
vn -0.1953607 0.8518834 -0.4859309
vn 0.09551764 0.9920625 -0.08178163
vn 0.368807 0.8655408 0.3388516
vn 0.5491393 0.5064695 0.6647817
vn -0.8209324 0.08970354 0.5639355
vn -0.3151754 0.7260388 -0.6111729
vn 0.3944706 0.5997251 -0.6962202
vn 0.2442456 -0.8590436 0.4498757
vn -0.2442454 0.8590438 -0.4498754
vn 0.21436 -0.8984262 0.3832494
vn 0.2490487 -0.8586256 0.4480366
vn 0.1164865 -0.9417525 0.3154887
vn 0.1929684 0.9796598 0.0550436
vn -0.3666225 0.6137044 -0.6992531
vn 0.003207054 0.9793531 -0.202131
vn 0.415247 0.8955994 0.1595985
vn 0.7358348 0.557245 0.3847402
vn 0.8592566 0.06957722 0.5067911
vn 0.7524412 -0.4367338 0.4930475
vn 0.4440097 -0.8260222 0.3471926
vn 0.01660642 -0.9939787 0.1083077
vn -0.4152466 -0.8955995 -0.159599
vn -0.7358347 -0.5572451 -0.3847406
vn -0.8592564 -0.06957727 -0.5067913
vn -0.7524411 0.4367336 -0.4930477
vn -0.4440098 0.8260222 -0.3471926
vn -0.0166064 0.9939788 -0.1083072
vn 0.5112754 -0.08464788 -0.8552382
vn -0.5112754 0.08464788 0.8552382
vn 0.7689078 -0.4392898 0.4645485
vn 0.4625464 -0.8285801 0.3154455
vn 0.0371429 -0.996578 0.07384471
vn -0.3975867 -0.8979637 -0.1886437
vn -0.7201824 -0.5595319 -0.4101975
vn -0.8437498 -0.07205216 -0.5318788
vn -0.7365853 0.4339648 -0.5187645
vn -0.4257814 0.8225402 -0.3770118
vn 0.002444219 0.9901373 -0.14008
vn 0.4331559 0.8920254 0.1291014
vn 0.752809 0.5540416 0.3554108
vn 0.8744414 0.06696485 0.4804875
vn -0.5112751 0.08464761 0.8552385
vn -0.1880869 0.9545441 -0.2312338
vn 0.3584704 0.6899912 -0.6288174
vn 0.02655816 -0.9958946 0.08653841
vn -0.02655789 0.9958947 -0.08653826
vn -0.03480137 -0.9989203 0.03077964
vn 0.03035207 -0.9960836 0.08304583
vn -0.157421 -0.9875312 0.001070825
vn 0.5554695 0.8055764 0.2061572
vn -0.3024009 0.8997572 -0.3146282
vn 0.310887 0.9486561 0.05831964
vn -0.2443572 0.9693605 -0.02509516
vn 0.1508406 0.9222047 -0.3560696
vn 0.5056208 0.6279449 -0.5916356
vn 0.7249203 0.1654278 -0.6686735
vn 0.7499782 -0.3414155 -0.5665405
vn 0.57408 -0.7567768 -0.3126038
vn 0.2443569 -0.9693607 0.02509465
vn -0.1508409 -0.9222049 0.3560693
vn -0.505621 -0.6279451 0.5916353
vn -0.7249205 -0.1654279 0.6686733
vn -0.7499782 0.3414155 0.5665406
vn -0.5740796 0.756777 0.312604
vn -0.6440341 -0.1815869 -0.7431328
vn 0.6440341 0.1815869 0.7431328
vn 0.7032666 0.1593438 -0.6928388
vn 0.7257394 -0.347874 -0.5935367
vn 0.5477298 -0.7634639 -0.3422205
vn 0.2222733 -0.9749843 -0.0002381556
vn -0.1700734 -0.9272324 0.3336389
vn -0.5244588 -0.6330439 0.5693842
vn -0.7441237 -0.1708603 0.6458225
vn -0.7721322 0.334828 0.5400946
vn -0.5976644 0.7494898 0.2847141
vn -0.2670928 0.9622941 -0.05149085
vn 0.1288346 0.9154905 -0.3811543
vn 0.4857555 0.6221183 -0.6140117
vn 0.6440345 0.1815869 0.7431324
vn -0.6816362 0.6021999 0.4156049
vn -0.8372974 0.4691822 -0.280715
vn 0.5572206 -0.7625344 -0.3287041
vn -0.5572205 0.7625347 0.3287039
vn 0.5031702 -0.8134624 -0.2917165
vn 0.5547109 -0.7624082 -0.333211
vn 0.4578032 -0.869092 -0.187337
vn -0.1445075 0.975436 -0.1662591
vn -0.7408893 0.4754671 0.4743567
vn -0.369879 0.9274375 0.05521793
vn 0.1700196 0.8176211 -0.5500814
vn 0.3252224 0.4223437 -0.846083
vn 0.393282 -0.08610044 -0.9153776
vn 0.3559619 -0.5714741 -0.7393975
vn 0.2232625 -0.9037215 -0.3652964
vn 0.03073993 -0.9938177 0.1066854
vn -0.1700202 -0.8176212 0.5500811
vn -0.3252228 -0.4223437 0.846083
vn -0.3932823 0.08610039 0.9153775
vn -0.3559621 0.5714739 0.7393975
vn -0.2232624 0.9037215 0.3652965
vn -0.03073937 0.9938176 -0.1066855
vn -0.9189039 -0.07009597 -0.3882041
vn 0.9189039 0.07009597 0.3882041
vn 0.3254364 -0.5734762 -0.7518089
vn 0.1892539 -0.9056904 -0.3793521
vn -0.006219164 -0.995832 0.09099578
vn -0.2012279 -0.8195347 0.5365356
vn -0.3526145 -0.4242549 0.8340691
vn -0.4203039 0.08398797 0.9034883
vn -0.3836736 0.5690844 0.7272811
vn -0.2553941 0.9007025 0.3514387
vn -0.06493695 0.990518 -0.1210673
vn 0.1372531 0.8146133 -0.5635307
vn 0.2937608 0.4197136 -0.8588046
vn 0.3650908 -0.08819693 -0.9267851
vn 0.918904 0.07009573 0.3882038
vn -0.1326691 0.9877532 0.08211415
vn -0.6172255 0.6936994 -0.3712328
vn 0.007770372 -0.9949791 0.09978209
vn -0.007770244 0.9949791 -0.09978239
vn -0.03951323 -0.9851245 0.1672383
vn 0.003805358 -0.995326 0.09649791
vn -0.05192275 -0.9556716 0.2898206
vn 0.1909076 0.7067329 -0.6812364
vn -0.2041754 0.9556925 0.2120484
vn 0.08757068 0.8924614 -0.4425427
vn 0.2316707 0.794615 0.5611735
vn -0.07825399 0.9787209 0.1896888
vn -0.3672107 0.9005794 -0.2326229
vn -0.5577738 0.5811282 -0.5926034
vn -0.5988815 0.1059645 -0.7937964
vn -0.4795196 -0.3975924 -0.7822924
vn -0.2316712 -0.7946151 -0.5611732
vn 0.0782537 -0.9787211 -0.1896885
vn 0.3672105 -0.9005795 0.2326231
vn 0.5577736 -0.5811284 0.5926034
vn 0.5988815 -0.1059645 0.7937964
vn 0.4795199 0.3975927 0.782292
vn -0.7970054 -0.1757188 0.5778457
vn 0.7970054 0.1757188 -0.5778457
vn -0.5837776 0.5750116 -0.5732065
vn -0.6278405 0.09941848 -0.7719667
vn -0.5111669 -0.4043339 -0.7584346
vn -0.2586905 -0.8001402 -0.5411609
vn 0.05433341 -0.9835473 -0.1722869
vn 0.343463 -0.9053853 0.2496214
vn 0.5333393 -0.5861916 0.6098597
vn 0.5705236 -0.11207 0.8135991
vn 0.449508 0.390773 0.8032679
vn 0.2031981 0.7878674 0.5813567
vn -0.1053329 0.9721736 0.2092452
vn -0.3913329 0.894805 -0.2149017
vn 0.7970051 0.1757191 -0.5778459
vn 0.5298904 0.1935074 0.8256946
vn -0.1831815 0.2145866 0.9593734
vn -0.4974444 -0.4040262 -0.7676668
vn 0.4974443 0.4040265 0.7676667
vn -0.4788951 -0.4784477 -0.7360351
vn -0.5018649 -0.4035141 -0.7650545
vn -0.3965355 -0.5728691 -0.717343
vn 0.1031431 0.8732842 0.4761684
vn 0.5480487 0.04317004 0.835332
vn 0.2905416 0.6919211 0.6609318
vn -0.791347 0.2932301 -0.5364572
vn -0.7856097 -0.2224548 -0.5773487
vn -0.5750943 -0.6791285 -0.4561266
vn -0.211412 -0.9541748 -0.2117919
vn 0.2023078 -0.9743825 0.09823684
vn 0.5547189 -0.7342929 0.3912815
vn 0.7529867 -0.2981284 0.5866266
vn 0.7420036 0.2169325 0.6343274
vn 0.5281858 0.6732488 0.5174516
vn 0.1691748 0.9487706 0.2668603
vn -0.2411036 0.9693322 -0.04758519
vn -0.591146 0.7296516 -0.3437372
vn 0.6066181 0.07693189 -0.7912624
vn 0.6475276 0.5038583 0.571695
vn -0.01111827 0.4824474 0.8758544
vn -0.5639794 -0.6801388 -0.4683362
vn 0.5639793 0.680139 0.4683361
vn -0.5252828 -0.7381331 -0.4233649
vn -0.5677536 -0.6793513 -0.4649065
vn -0.4244094 -0.8115826 -0.4015103
vn 0.03455713 0.9844694 0.1721223
vn 0.6955865 0.3673851 0.6174043
vn 0.2881369 0.8936128 0.3441416
vn 0.1908548 0.9521065 0.2388886
vn -0.2205867 0.9725137 -0.07455762
vn -0.5729224 0.7323366 -0.3680261
vn -0.7717441 0.2959305 -0.5628822
vn -0.7637773 -0.2197698 -0.6069148
vn -0.5511573 -0.6765829 -0.4883249
vn -0.1908553 -0.9521066 -0.2388881
vn 0.2205865 -0.9725137 0.07455802
vn 0.5729222 -0.7323366 0.3680264
vn 0.7717439 -0.2959307 0.5628824
vn 0.7637774 0.2197698 0.6069148
vn 0.5511574 0.6765832 0.4883245
vn -0.6066184 -0.07693181 0.7912622
vn 0.6066184 0.07693181 -0.7912622
vn 0.3859208 0.8906109 -0.2405774
vn -0.0146632 0.9974841 0.06935751
vn -0.4113182 0.8370824 0.3607084
vn -0.6977608 0.452385 0.5554078
vn -0.7972391 -0.05352838 0.6012858
vn -0.6830979 -0.5450988 0.4860501
vn -0.3859205 -0.8906109 0.240578
vn 0.01466353 -0.9974842 -0.06935722
vn 0.4113184 -0.8370824 -0.3607081
vn 0.6977609 -0.4523852 -0.5554076
vn 0.7972391 0.05352834 -0.6012859
vn 0.6830974 0.5450991 -0.4860503
vn 0.6034858 -0.04647771 0.7960181
vn -0.6034858 0.04647771 -0.7960181
vn -0.6774603 0.4506046 0.5813805
vn -0.7744623 -0.05520428 0.6302069
vn -0.6582896 -0.5465266 0.5176523
vn -0.3651364 -0.8916773 0.2675582
vn 0.03274172 -0.9984291 -0.04547075
vn 0.4289973 -0.8380915 -0.3369929
vn 0.7157466 -0.453587 -0.5310045
vn 0.8179401 0.05186313 -0.5729612
vn 0.705097 0.5429901 -0.4560707
vn 0.407126 0.8883962 -0.2121342
vn 0.005884152 0.9953246 0.09640818
vn -0.3927325 0.8352769 0.3848037
vn -0.6034862 0.04647797 -0.7960179
vn 0.7672709 0.3537897 -0.5349098
vn 0.895494 0.4081914 0.1773998
vn -0.6674216 -0.5482396 0.5039663
vn 0.6674215 0.5482399 -0.5039662
vn -0.6212582 -0.6147664 0.4859021
vn -0.6649591 -0.5471637 0.5083715
vn -0.5838144 -0.7040904 0.4042498
vn 0.286908 0.9513471 -0.1123523
vn 0.8074608 0.2084581 -0.551863
vn 0.5044618 0.8100067 -0.2990111
vn 1 0 0
vn -1 0 0
vn 0 -0.8320503 -0.5547003
vn 0 1 0
vn 0 0 -1
vn 0 0 1
vn -1 -1.748456E-07 -8.742275E-08
vn 1 1.748456E-07 8.742275E-08
vn 9.698683E-08 -0.8320501 0.5547004
vn -1.748455E-07 1 -1.748456E-07
vn -8.742278E-08 1.748456E-07 1
vn 8.742278E-08 -1.748456E-07 -1
f 107//87 106//87 105//87
f 106//88 109//88 108//88
f 109//89 110//89 108//89
f 110//90 112//90 111//90
f 112//91 113//91 111//91
f 113//92 114//92 111//92
f 114//93 115//93 108//93
f 115//94 116//94 108//94
f 116//95 117//95 105//95
f 117//96 118//96 105//96
f 118//97 120//97 119//97
f 120//98 107//98 119//98
f 120//99 118//99 117//99 116//99 115//99 114//99 113//99 112//99 110//99 109//99 106//99 107//99
f 108//100 111//100 114//100
f 108//101 121//101 105//101
f 111//102 108//102 105//102
f 108//103 111//103 105//103
f 110//104 111//104 108//104
f 106//105 108//105 105//105
f 107//106 105//106 119//106
f 119//107 105//107 118//107
f 116//108 121//108 108//108
f 105//109 121//109 116//109
f 125//110 124//110 123//110 122//110
f 124//111 127//111 126//111 123//111
f 127//112 129//112 128//112 126//112
f 129//113 131//113 130//113 128//113
f 131//114 133//114 132//114 130//114
f 133//115 135//115 134//115 132//115
f 135//116 137//116 136//116 134//116
f 137//117 139//117 138//117 136//117
f 139//118 141//118 140//118 138//118
f 141//119 143//119 142//119 140//119
f 143//120 145//120 144//120 142//120
f 145//121 125//121 122//121 144//121
f 122//122 123//122 126//122 128//122 130//122 132//122 134//122 136//122 138//122 140//122 142//122 144//122
f 145//123 143//123 141//123 139//123 137//123 135//123 133//123 131//123 129//123 127//123 124//123 125//123
f 149//124 148//124 147//124 146//124
f 148//125 151//125 150//125 147//125
f 151//126 153//126 152//126 150//126
f 153//127 155//127 154//127 152//127
f 155//128 157//128 156//128 154//128
f 157//129 159//129 158//129 156//129
f 159//130 161//130 160//130 158//130
f 161//131 163//131 162//131 160//131
f 163//132 165//132 164//132 162//132
f 165//133 167//133 166//133 164//133
f 167//134 169//134 168//134 166//134
f 169//135 149//135 146//135 168//135
f 146//136 147//136 150//136 152//136 154//136 156//136 158//136 160//136 162//136 164//136 166//136 168//136
f 169//137 167//137 165//137 163//137 161//137 159//137 157//137 155//137 153//137 151//137 148//137 149//137
f 172//138 171//138 170//138
f 171//139 174//139 173//139
f 174//140 175//140 173//140
f 175//141 177//141 176//141
f 177//142 178//142 176//142
f 178//143 179//143 176//143
f 179//144 180//144 173//144
f 180//145 181//145 173//145
f 181//146 182//146 170//146
f 182//147 183//147 170//147
f 183//148 185//148 184//148
f 185//149 172//149 184//149
f 185//150 183//150 182//150 181//150 180//150 179//150 178//150 177//150 175//150 174//150 171//150 172//150
f 173//151 176//151 179//151
f 173//152 186//152 170//152
f 176//153 173//153 170//153
f 173//154 176//154 170//154
f 175//155 176//155 173//155
f 171//156 173//156 170//156
f 172//157 170//157 184//157
f 184//158 170//158 183//158
f 181//159 186//159 173//159
f 170//160 186//160 181//160
f 190//161 189//161 188//161 187//161
f 189//162 192//162 191//162 188//162
f 192//163 194//163 193//163 191//163
f 194//164 196//164 195//164 193//164
f 196//165 198//165 197//165 195//165
f 198//166 200//166 199//166 197//166
f 200//167 202//167 201//167 199//167
f 202//168 204//168 203//168 201//168
f 204//169 206//169 205//169 203//169
f 206//170 208//170 207//170 205//170
f 208//171 210//171 209//171 207//171
f 210//172 190//172 187//172 209//172
f 187//173 188//173 191//173 193//173 195//173 197//173 199//173 201//173 203//173 205//173 207//173 209//173
f 210//174 208//174 206//174 204//174 202//174 200//174 198//174 196//174 194//174 192//174 189//174 190//174
f 213//175 212//175 211//175
f 212//176 215//176 214//176
f 215//177 216//177 214//177
f 216//178 218//178 217//178
f 218//179 219//179 217//179
f 219//180 220//180 217//180
f 220//181 221//181 214//181
f 221//182 222//182 214//182
f 222//183 223//183 211//183
f 223//184 224//184 211//184
f 224//185 226//185 225//185
f 226//186 213//186 225//186
f 226//187 224//187 223//187 222//187 221//187 220//187 219//187 218//187 216//187 215//187 212//187 213//187
f 214//188 217//188 220//188
f 214//189 227//189 211//189
f 217//190 214//190 211//190
f 214//191 217//191 211//191
f 216//192 217//192 214//192
f 212//193 214//193 211//193
f 213//194 211//194 225//194
f 225//195 211//195 224//195
f 222//196 227//196 214//196
f 211//197 227//197 222//197
f 231//198 230//198 229//198 228//198
f 230//199 233//199 232//199 229//199
f 233//200 235//200 234//200 232//200
f 235//201 237//201 236//201 234//201
f 237//202 239//202 238//202 236//202
f 239//203 241//203 240//203 238//203
f 241//204 243//204 242//204 240//204
f 243//205 245//205 244//205 242//205
f 245//206 247//206 246//206 244//206
f 247//207 249//207 248//207 246//207
f 249//208 251//208 250//208 248//208
f 251//209 231//209 228//209 250//209
f 228//210 229//210 232//210 234//210 236//210 238//210 240//210 242//210 244//210 246//210 248//210 250//210
f 251//211 249//211 247//211 245//211 243//211 241//211 239//211 237//211 235//211 233//211 230//211 231//211
f 254//212 253//212 252//212
f 253//213 256//213 255//213
f 256//214 257//214 255//214
f 257//215 259//215 258//215
f 259//216 260//216 258//216
f 260//217 261//217 258//217
f 261//218 262//218 255//218
f 262//219 263//219 255//219
f 263//220 264//220 252//220
f 264//221 265//221 252//221
f 265//222 267//222 266//222
f 267//223 254//223 266//223
f 267//224 265//224 264//224 263//224 262//224 261//224 260//224 259//224 257//224 256//224 253//224 254//224
f 255//225 258//225 261//225
f 255//226 268//226 252//226
f 258//227 255//227 252//227
f 255//228 258//228 252//228
f 257//229 258//229 255//229
f 253//230 255//230 252//230
f 254//231 252//231 266//231
f 266//232 252//232 265//232
f 263//233 268//233 255//233
f 252//234 268//234 263//234
f 272//235 271//235 270//235 269//235
f 271//236 274//236 273//236 270//236
f 274//237 276//237 275//237 273//237
f 276//238 278//238 277//238 275//238
f 278//239 280//239 279//239 277//239
f 280//240 282//240 281//240 279//240
f 282//241 284//241 283//241 281//241
f 284//242 286//242 285//242 283//242
f 286//243 288//243 287//243 285//243
f 288//244 290//244 289//244 287//244
f 290//245 292//245 291//245 289//245
f 292//246 272//246 269//246 291//246
f 269//247 270//247 273//247 275//247 277//247 279//247 281//247 283//247 285//247 287//247 289//247 291//247
f 292//248 290//248 288//248 286//248 284//248 282//248 280//248 278//248 276//248 274//248 271//248 272//248
f 295//249 294//249 293//249
f 294//250 297//250 296//250
f 297//251 298//251 296//251
f 298//252 300//252 299//252
f 300//253 301//253 299//253
f 301//254 302//254 299//254
f 302//255 303//255 296//255
f 303//256 304//256 296//256
f 304//257 305//257 293//257
f 305//258 306//258 293//258
f 306//259 308//259 307//259
f 308//260 295//260 307//260
f 308//261 306//261 305//261 304//261 303//261 302//261 301//261 300//261 298//261 297//261 294//261 295//261
f 296//262 299//262 302//262
f 296//263 309//263 293//263
f 299//264 296//264 293//264
f 296//265 299//265 293//265
f 298//266 299//266 296//266
f 294//267 296//267 293//267
f 295//268 293//268 307//268
f 307//269 293//269 306//269
f 304//270 309//270 296//270
f 293//271 309//271 304//271
f 313//272 312//272 311//272 310//272
f 312//273 315//273 314//273 311//273
f 315//274 317//274 316//274 314//274
f 317//275 319//275 318//275 316//275
f 319//276 321//276 320//276 318//276
f 321//277 323//277 322//277 320//277
f 323//278 325//278 324//278 322//278
f 325//279 327//279 326//279 324//279
f 327//280 329//280 328//280 326//280
f 329//281 331//281 330//281 328//281
f 331//282 333//282 332//282 330//282
f 333//283 313//283 310//283 332//283
f 310//284 311//284 314//284 316//284 318//284 320//284 322//284 324//284 326//284 328//284 330//284 332//284
f 333//285 331//285 329//285 327//285 325//285 323//285 321//285 319//285 317//285 315//285 312//285 313//285
f 336//286 335//286 334//286
f 335//287 338//287 337//287
f 338//288 339//288 337//288
f 339//289 341//289 340//289
f 341//290 342//290 340//290
f 342//291 343//291 340//291
f 343//292 344//292 337//292
f 344//293 345//293 337//293
f 345//294 346//294 334//294
f 346//295 347//295 334//295
f 347//296 349//296 348//296
f 349//297 336//297 348//297
f 349//298 347//298 346//298 345//298 344//298 343//298 342//298 341//298 339//298 338//298 335//298 336//298
f 337//299 340//299 343//299
f 337//300 350//300 334//300
f 340//301 337//301 334//301
f 337//302 340//302 334//302
f 339//303 340//303 337//303
f 335//304 337//304 334//304
f 336//305 334//305 348//305
f 348//306 334//306 347//306
f 345//307 350//307 337//307
f 334//308 350//308 345//308
f 353//309 352//309 351//309
f 352//310 355//310 354//310
f 355//311 356//311 354//311
f 356//312 358//312 357//312
f 358//313 359//313 357//313
f 359//314 360//314 357//314
f 360//315 361//315 354//315
f 361//316 362//316 354//316
f 362//317 363//317 351//317
f 363//318 364//318 351//318
f 364//319 366//319 365//319
f 366//320 353//320 365//320
f 366//321 364//321 363//321 362//321 361//321 360//321 359//321 358//321 356//321 355//321 352//321 353//321
f 354//322 357//322 360//322
f 354//323 367//323 351//323
f 357//324 354//324 351//324
f 354//325 357//325 351//325
f 356//326 357//326 354//326
f 352//327 354//327 351//327
f 353//328 351//328 365//328
f 365//329 351//329 364//329
f 362//330 367//330 354//330
f 351//331 367//331 362//331
f 371//332 370//332 369//332 368//332
f 370//333 373//333 372//333 369//333
f 373//334 375//334 374//334 372//334
f 375//335 377//335 376//335 374//335
f 377//336 379//336 378//336 376//336
f 379//337 381//337 380//337 378//337
f 381//338 383//338 382//338 380//338
f 383//339 385//339 384//339 382//339
f 385//340 387//340 386//340 384//340
f 387//341 389//341 388//341 386//341
f 389//342 391//342 390//342 388//342
f 391//343 371//343 368//343 390//343
f 368//344 369//344 372//344 374//344 376//344 378//344 380//344 382//344 384//344 386//344 388//344 390//344
f 391//345 389//345 387//345 385//345 383//345 381//345 379//345 377//345 375//345 373//345 370//345 371//345
f 395//346 394//346 393//346 392//346
f 394//347 397//347 396//347 393//347
f 397//348 399//348 398//348 396//348
f 399//349 401//349 400//349 398//349
f 401//350 403//350 402//350 400//350
f 403//351 405//351 404//351 402//351
f 405//352 407//352 406//352 404//352
f 407//353 409//353 408//353 406//353
f 409//354 411//354 410//354 408//354
f 411//355 413//355 412//355 410//355
f 413//356 415//356 414//356 412//356
f 415//357 395//357 392//357 414//357
f 392//358 393//358 396//358 398//358 400//358 402//358 404//358 406//358 408//358 410//358 412//358 414//358
f 415//359 413//359 411//359 409//359 407//359 405//359 403//359 401//359 399//359 397//359 394//359 395//359
f 418//360 417//360 416//360
f 417//361 420//361 419//361
f 420//362 421//362 419//362
f 421//363 423//363 422//363
f 423//364 424//364 422//364
f 424//365 425//365 422//365
f 425//366 426//366 419//366
f 426//367 427//367 419//367
f 427//368 428//368 416//368
f 428//369 429//369 416//369
f 429//370 431//370 430//370
f 431//371 418//371 430//371
f 431//372 429//372 428//372 427//372 426//372 425//372 424//372 423//372 421//372 420//372 417//372 418//372
f 419//373 422//373 425//373
f 419//374 432//374 416//374
f 422//375 419//375 416//375
f 419//376 422//376 416//376
f 421//377 422//377 419//377
f 417//378 419//378 416//378
f 418//379 416//379 430//379
f 430//380 416//380 429//380
f 427//381 432//381 419//381
f 416//382 432//382 427//382
