# Generated from Tablet.obj, faces matching '\| _crayfishdiffuse$', metres, origin at bottom centre
v -0.021447 0.002919 0.085515
v -0.021447 0.004707 0.085515
v -0.010819 0.004707 0.103241
v -0.010819 0.002919 0.103241
v -0.023163 0.002919 0.086554
v -0.012535 0.002919 0.104279
v -0.012535 0.004707 0.104279
v -0.023163 0.004707 0.086554
vn 0.8555 0.0000 -0.5177
vn -0.8555 -0.0000 0.5177
vn -0.0000 -1.0000 0.0000
vn 0.5142 -0.0000 0.8576
vn 0.0000 1.0000 -0.0000
vn -0.5142 0.0000 -0.8576
vt 1.0000 0.0000 0.0000
vt 1.0000 1.0000 0.0000
vt 0.0000 1.0000 0.0000
vt 0.0000 0.0000 0.0000
v -0.048671 0.008201 -0.081392
v -0.042014 0.008201 -0.075703
v -0.042928 0.008201 -0.07462
v -0.044038 0.008201 -0.073768
v -0.040888 0.008201 -0.078407
v -0.041326 0.008201 -0.07698
v -0.040814 0.008201 -0.081513
v -0.040716 0.008201 -0.079935
v -0.0418 0.008201 -0.084603
v -0.04118 0.008201 -0.083087
v -0.043715 0.008201 -0.08726
v -0.042655 0.008201 -0.08601
v -0.046299 0.008201 -0.089124
v -0.044943 0.008201 -0.088309
v -0.049203 0.008201 -0.089943
v -0.047735 0.008201 -0.089675
v -0.052035 0.008201 -0.089608
v -0.050653 0.008201 -0.089921
v -0.054413 0.008201 -0.088163
v -0.053303 0.008201 -0.089015
v -0.056016 0.008201 -0.085804
v -0.055328 0.008201 -0.08708
v -0.056626 0.008201 -0.082848
v -0.056453 0.008201 -0.084377
v -0.056162 0.008201 -0.079696
v -0.056528 0.008201 -0.08127
v -0.054686 0.008201 -0.076773
v -0.055541 0.008201 -0.07818
v -0.052398 0.008201 -0.074474
v -0.053627 0.008201 -0.075524
v -0.049607 0.008201 -0.073109
v -0.051043 0.008201 -0.07366
v -0.046689 0.008201 -0.072863
v -0.048139 0.008201 -0.07284
v -0.045306 0.008201 -0.073175
v -0.042928 0.009441 -0.07462
v -0.044038 0.009441 -0.073768
v -0.042014 0.009441 -0.075703
v -0.041326 0.009441 -0.07698
v -0.040888 0.009441 -0.078407
v -0.040716 0.009441 -0.079935
v -0.040814 0.009441 -0.081513
v -0.04118 0.009441 -0.083087
v -0.0418 0.009441 -0.084603
v -0.042655 0.009441 -0.08601
v -0.043715 0.009441 -0.08726
v -0.044943 0.009441 -0.088309
v -0.046299 0.009441 -0.089124
v -0.047735 0.009441 -0.089675
v -0.049203 0.009441 -0.089943
v -0.050653 0.009441 -0.089921
v -0.052035 0.009441 -0.089608
v -0.053303 0.009441 -0.089015
v -0.054413 0.009441 -0.088163
v -0.055328 0.009441 -0.08708
v -0.056016 0.009441 -0.085804
v -0.056453 0.009441 -0.084377
v -0.056626 0.009441 -0.082848
v -0.056528 0.009441 -0.08127
v -0.056162 0.009441 -0.079696
v -0.055541 0.009441 -0.07818
v -0.054686 0.009441 -0.076773
v -0.053627 0.009441 -0.075524
v -0.052398 0.009441 -0.074474
v -0.051043 0.009441 -0.07366
v -0.049607 0.009441 -0.073109
v -0.048139 0.009441 -0.07284
v -0.046689 0.009441 -0.072863
v -0.045306 0.009441 -0.073175
v -0.048671 0.009441 -0.081392
vn 0.0000 -1.0000 -0.0000
vn 0.5959 0.0000 0.8030
vn 0.7333 0.0000 0.6799
vn 0.8458 0.0000 0.5335
vn 0.9294 0.0000 0.3690
vn 0.9814 0.0000 0.1920
vn 1.0000 0.0000 0.0084
vn 0.9845 0.0000 -0.1755
vn 0.9355 0.0000 -0.3534
vn 0.8546 0.0000 -0.5193
vn 0.7446 0.0000 -0.6675
vn 0.6093 0.0000 -0.7929
vn 0.4532 0.0000 -0.8914
vn 0.2817 0.0000 -0.9595
vn 0.1006 0.0000 -0.9949
vn -0.0839 0.0000 -0.9965
vn -0.2656 0.0000 -0.9641
vn -0.4382 0.0000 -0.8989
vn -0.5959 0.0000 -0.8030
vn -0.7333 0.0000 -0.6799
vn -0.8458 0.0000 -0.5335
vn -0.9294 0.0000 -0.3690
vn -0.9814 0.0000 -0.1920
vn -1.0000 0.0000 -0.0084
vn -0.9845 0.0000 0.1755
vn -0.9355 0.0000 0.3534
vn -0.8546 0.0000 0.5193
vn -0.7446 0.0000 0.6675
vn -0.6093 0.0000 0.7929
vn -0.4532 0.0000 0.8914
vn -0.2817 0.0000 0.9595
vn -0.1006 0.0000 0.9949
vn 0.0839 0.0000 0.9965
vn 0.2656 0.0000 0.9641
vn 0.4382 0.0000 0.8989
vn 0.0000 1.0000 -0.0000
vt 0.5000 0.0000 0.0000
vt 0.8088 0.0000 1.0000
vt 0.7794 0.0000 1.0000
vt 0.7500 0.0000 1.0000
vt 0.8676 0.0000 1.0000
vt 0.8382 0.0000 1.0000
vt 0.9265 0.0000 1.0000
vt 0.8971 0.0000 1.0000
vt 0.9853 0.0000 1.0000
vt 0.9559 0.0000 1.0000
vt 0.0441 0.0000 1.0000
vt 0.0147 0.0000 1.0000
vt -0.0147 0.0000 1.0000
vt 0.1029 0.0000 1.0000
vt 0.0735 0.0000 1.0000
vt 0.1618 0.0000 1.0000
vt 0.1324 0.0000 1.0000
vt 0.2206 0.0000 1.0000
vt 0.1912 0.0000 1.0000
vt 0.2794 0.0000 1.0000
vt 0.2500 0.0000 1.0000
vt 0.3382 0.0000 1.0000
vt 0.3088 0.0000 1.0000
vt 0.3971 0.0000 1.0000
vt 0.3676 0.0000 1.0000
vt 0.4559 0.0000 1.0000
vt 0.4265 0.0000 1.0000
vt 0.5147 0.0000 1.0000
vt 0.4853 0.0000 1.0000
vt 0.5735 0.0000 1.0000
vt 0.5441 0.0000 1.0000
vt 0.6324 0.0000 1.0000
vt 0.6029 0.0000 1.0000
vt 0.6912 0.0000 1.0000
vt 0.6618 0.0000 1.0000
vt 0.7206 0.0000 1.0000
vt 0.7794 1.0000 1.0000
vt 0.7500 1.0000 1.0000
vt 0.8088 1.0000 1.0000
vt 0.8382 1.0000 1.0000
vt 0.8676 1.0000 1.0000
vt 0.8971 1.0000 1.0000
vt 0.9265 1.0000 1.0000
vt 0.9559 1.0000 1.0000
vt 0.9853 1.0000 1.0000
vt 0.0147 1.0000 1.0000
vt -0.0147 1.0000 1.0000
vt 0.0441 1.0000 1.0000
vt 0.0735 1.0000 1.0000
vt 0.1029 1.0000 1.0000
vt 0.1324 1.0000 1.0000
vt 0.1618 1.0000 1.0000
vt 0.1912 1.0000 1.0000
vt 0.2206 1.0000 1.0000
vt 0.2500 1.0000 1.0000
vt 0.2794 1.0000 1.0000
vt 0.3088 1.0000 1.0000
vt 0.3382 1.0000 1.0000
vt 0.3676 1.0000 1.0000
vt 0.3971 1.0000 1.0000
vt 0.4265 1.0000 1.0000
vt 0.4559 1.0000 1.0000
vt 0.4853 1.0000 1.0000
vt 0.5147 1.0000 1.0000
vt 0.5441 1.0000 1.0000
vt 0.5735 1.0000 1.0000
vt 0.6029 1.0000 1.0000
vt 0.6324 1.0000 1.0000
vt 0.6618 1.0000 1.0000
vt 0.6912 1.0000 1.0000
vt 0.7206 1.0000 1.0000
vt 0.5000 1.0000 0.0000
vt -0.0266 1.0000 0.9659
v -0.091039 0.008106 -0.03388
v 0.001385 0.008106 0.118224
v 0.0044 0.008106 0.120246
v 0.008886 0.008106 0.118805
v 0.101533 0.008106 0.062509
v 0.104878 0.008106 0.059192
v 0.104473 0.008106 0.055584
v 0.004548 0.008106 -0.097101
v 0.01205 0.008106 -0.096521
v 0.009034 0.008106 -0.098542
v -0.091444 0.008106 -0.037488
v -0.088099 0.008106 -0.040806
vn 0.0000 1.0000 -0.0000
vt 0.0831 0.0000 0.0000
vt 0.9169 0.0000 0.0000
vt 0.9792 0.0381 0.0000
vt 1.0000 0.1524 0.0000
vt 1.0000 0.8476 0.0000
vt 0.9792 0.9619 0.0000
vt 0.9169 1.0000 0.0000
vt 0.0000 0.8476 0.0000
vt 0.0831 1.0000 0.0000
vt 0.0208 0.9619 0.0000
vt 0.0208 0.0381 0.0000
vt 0.0000 0.1524 0.0000
v -0.097755 0 -0.075427
v -0.021912 0 -0.121512
v -0.006957 0 -0.125
v 0.004653 0 -0.115258
v 0.104443 0 0.048968
v 0.10774 0 0.063761
v 0.097755 0 0.075427
v -0.004653 0 0.115258
v 0.021912 0 0.121512
v 0.006957 0 0.125
v -0.10774 0 -0.063761
v -0.104443 0 -0.048968
v -0.079864 0.002072 -0.008519
v -0.078698 0.000483 -0.006599
v -0.076608 0.000483 -0.003159
v -0.078746 0.006998 -0.006679
v -0.075348 0.002087 -0.001086
v -0.075392 0.004998 -0.00116
v -0.076559 0.007005 -0.003079
v -0.104443 0.008933 -0.048968
v -0.004653 0.008933 0.115258
v -0.079864 0.005012 -0.008519
v 0.097755 0.008933 0.075427
v 0.021912 0.008933 0.121512
v 0.004653 0.008933 -0.115258
v 0.104443 0.008933 0.048968
v -0.080989 0.004487 -0.082378
v -0.080987 0.002641 -0.082379
v -0.081841 0.00177 -0.081861
v -0.084236 0.002533 -0.080405
v -0.083395 0.001769 -0.080916
v -0.084284 0.004524 -0.080376
v -0.083441 0.005458 -0.080888
v -0.081805 0.005463 -0.081882
v 0.006957 0.008933 0.125
v -0.10774 0.008933 -0.063761
v 0.10774 0.008933 0.063761
v -0.006957 0.008933 -0.125
v -0.097755 0.008933 -0.075427
v -0.021912 0.008933 -0.121512
v -0.101768 0.008933 -0.049487
v -0.002251 0.008933 0.11389
v 0.003404 0.008933 0.116364
v -0.089518 0.008933 -0.03656
v 0.007626 0.008933 0.121811
v 0.007656 0.008933 0.119426
v 0.020443 0.008933 0.11915
v 0.013256 0.008933 0.117759
v 0.096336 0.008933 0.073035
v 0.098411 0.008933 0.066016
v 0.104601 0.008933 0.062885
v 0.102471 0.008933 0.061813
v 0.102121 0.008933 0.05047
v 0.101712 0.008933 0.056628
v 0.00296 0.008933 -0.113124
v 0.008791 0.008933 -0.096295
v -0.007354 0.008933 -0.121879
v 0.004539 0.008933 -0.099358
v -0.020619 0.008933 -0.118842
v -0.001062 0.008933 -0.09769
v -0.09598 0.008933 -0.07305
v -0.086217 0.008933 -0.045947
v -0.104787 0.008933 -0.062675
v -0.090277 0.008933 -0.041745
v -0.087187 0.008933 -0.037415
v 0.005236 0.008933 0.114689
v 0.005236 0.008106 0.114689
v -0.087187 0.008106 -0.037415
v 0.008139 0.008933 0.11678
v 0.008139 0.008106 0.11678
v 0.012285 0.008933 0.115545
v 0.012285 0.008106 0.115545
v 0.096894 0.008933 0.064134
v 0.096894 0.008106 0.064134
v 0.0999 0.008933 0.061023
v 0.0999 0.008106 0.061023
v 0.099382 0.008933 0.057483
v 0.099382 0.008106 0.057483
v 0.006958 0.008933 -0.094621
v 0.006958 0.008106 -0.094621
v 0.004056 0.008933 -0.096711
v 0.004056 0.008106 -0.096711
v -0.00009 0.008933 -0.095477
v -0.00009 0.008106 -0.095477
v -0.0847 0.008933 -0.044065
v -0.0847 0.008106 -0.044065
v -0.087706 0.008933 -0.040954
v -0.087706 0.008106 -0.040954
v -0.085171 0.00609 -0.083074
v -0.082935 0.006098 -0.084433
v -0.080716 0.006098 -0.080782
v -0.082953 0.00609 -0.079423
v -0.081778 0.004713 -0.085136
v -0.079559 0.004713 -0.081485
v -0.081775 0.002387 -0.085137
v -0.079557 0.002387 -0.081486
v -0.083 0.001136 -0.084393
v -0.080782 0.001136 -0.080742
v -0.085086 0.001136 -0.083125
v -0.082868 0.001136 -0.079475
v -0.086314 0.002251 -0.082379
v -0.084096 0.002251 -0.078728
v -0.086375 0.004757 -0.082342
v -0.084156 0.004757 -0.078692
v -0.081023 0.005463 -0.080595
v -0.082659 0.005458 -0.079601
v -0.080207 0.004487 -0.081091
v -0.080205 0.002641 -0.081092
v -0.081059 0.00177 -0.080574
v -0.082613 0.001769 -0.079629
v -0.083454 0.002533 -0.079118
v -0.083502 0.004524 -0.079089
v -0.037711 0.005978 -0.111912
v -0.035759 0.004856 -0.111229
v -0.026137 0.00477 -0.117075
v -0.026137 0.003012 -0.117075
v -0.035783 0.003005 -0.111214
v -0.02583 0.005872 -0.119131
v -0.023806 0.005872 -0.115801
v -0.035688 0.005978 -0.108581
v -0.025829 0.001902 -0.119132
v -0.023805 0.001902 -0.115801
v -0.037765 0.001892 -0.111879
v -0.035741 0.001892 -0.108549
v -0.024943 0.00477 -0.11511
v -0.034565 0.004856 -0.109263
v -0.024943 0.003012 -0.11511
v -0.034589 0.003005 -0.109249
v -0.076615 0.004999 -0.000417
v -0.07657 0.002087 -0.000343
v -0.07783 0.000483 -0.002417
v -0.079968 0.006998 -0.005937
v -0.07992 0.000483 -0.005856
v -0.081087 0.002072 -0.007776
v -0.081087 0.005012 -0.007777
v -0.077781 0.007005 -0.002337
v -0.003214 0.008933 0.114035
v -0.102694 0.008933 -0.049682
v 0.007479 0.008933 0.122937
v 0.021218 0.008933 0.119787
v 0.096543 0.008933 0.074016
v 0.105669 0.008933 0.063273
v 0.102694 0.008933 0.049682
v 0.003214 0.008933 -0.114035
v -0.007479 0.008933 -0.122937
v -0.021218 0.008933 -0.119787
v -0.096543 0.008933 -0.074016
v -0.105669 0.008933 -0.063273
v -0.002753 0.008718 0.113812
v -0.002251 0.008718 0.11389
v -0.101768 0.008718 -0.049487
v -0.102195 0.008718 -0.049742
v 0.007586 0.008718 0.122378
v 0.007626 0.008718 0.121811
v 0.020918 0.008718 0.119364
v 0.020443 0.008718 0.11915
v 0.096306 0.008718 0.073555
v 0.096336 0.008718 0.073035
v 0.105123 0.008718 0.063111
v 0.104601 0.008718 0.062885
v 0.102283 0.008718 0.049988
v 0.102121 0.008718 0.05047
v 0.002931 0.008718 -0.11362
v 0.00296 0.008718 -0.113124
v -0.007518 0.008718 -0.122395
v -0.007354 0.008718 -0.121879
v -0.020962 0.008718 -0.119287
v -0.020619 0.008718 -0.118842
v -0.096217 0.008718 -0.073559
v -0.09598 0.008718 -0.07305
v -0.10517 0.008718 -0.063058
v -0.104787 0.008718 -0.062675
v -0.003214 0.008718 0.114035
v -0.102694 0.008718 -0.049682
v 0.007479 0.008718 0.122937
v 0.021218 0.008718 0.119787
v 0.096543 0.008718 0.074016
v 0.105669 0.008718 0.063273
v 0.102694 0.008718 0.049682
v 0.003214 0.008718 -0.114035
v -0.007479 0.008718 -0.122937
v -0.021218 0.008718 -0.119787
v -0.096543 0.008718 -0.074016
v -0.105669 0.008718 -0.063273
vn 0.0000 -1.0000 -0.0000
vn -0.8546 0.0001 0.5193
vn -0.8546 0.0000 0.5193
vn -0.8546 -0.0001 0.5193
vn -0.9267 -0.0000 0.3757
vn -0.9267 0.0000 0.3757
vn -0.7604 0.0000 0.6495
vn -0.7604 -0.0000 0.6495
vn -0.8546 -0.0002 0.5192
vn 0.3757 0.0000 0.9267
vn 0.6495 0.0000 0.7604
vn 0.9267 0.0000 -0.3757
vn 0.7604 0.0000 -0.6495
vn -0.5193 0.0000 -0.8546
vn -0.6465 0.0000 0.7629
vn -0.9750 0.0000 0.2224
vn 0.7629 0.0000 0.6465
vn 0.6465 0.0000 -0.7629
vn 0.2224 0.0000 0.9750
vn -0.7629 0.0000 -0.6465
vn 0.9750 0.0000 -0.2224
vn -0.2224 0.0000 -0.9750
vn 0.0000 1.0000 -0.0000
vn 0.9398 0.0000 -0.3416
vn 0.7362 0.0000 -0.6768
vn 0.5892 0.0000 -0.8080
vn -0.2815 0.0000 -0.9596
vn -0.4038 0.0000 -0.9148
vn -0.6259 0.0000 -0.7799
vn -0.7220 0.0000 -0.6919
vn -0.9886 0.0000 0.1507
vn -0.9398 0.0000 0.3416
vn -0.7362 0.0000 0.6768
vn -0.5892 0.0000 0.8080
vn 0.2815 0.0000 0.9596
vn 0.4038 0.0000 0.9148
vn 0.6259 0.0000 0.7799
vn 0.7220 0.0000 0.6919
vn 0.9886 0.0000 -0.1507
vn 0.0029 -1.0000 -0.0017
vn -0.6621 -0.6323 0.4023
vn -0.8546 -0.0011 0.5193
vn -0.6173 0.6915 0.3751
vn -0.0002 1.0000 0.0001
vn 0.5816 0.7326 -0.3534
vn 0.8544 0.0236 -0.5191
vn 0.6411 -0.6613 -0.3895
vn -0.0029 1.0000 0.0017
vn 0.6621 0.6323 -0.4023
vn 0.8546 0.0011 -0.5193
vn 0.6173 -0.6915 -0.3751
vn 0.0002 -1.0000 -0.0001
vn -0.5816 -0.7326 0.3534
vn -0.8544 -0.0236 0.5191
vn -0.6411 0.6613 0.3895
vn -0.0078 -1.0000 0.0047
vn -0.8546 -0.0003 0.5193
vn -0.0007 1.0000 0.0004
vn 0.8545 -0.0127 -0.5192
vn 0.0078 1.0000 -0.0047
vn 0.8546 0.0003 -0.5193
vn 0.0007 -1.0000 -0.0004
vn -0.8545 0.0127 0.5192
vn 0.8546 -0.0000 -0.5193
vn 0.8546 -0.0001 -0.5193
vn 0.8546 0.0002 -0.5192
vn 0.3821 -0.6771 0.6290
vn 0.0010 -1.0000 0.0017
vn -0.3764 -0.6889 -0.6195
vn -0.5191 -0.0251 -0.8543
vn -0.3190 0.7890 -0.5251
vn 0.3325 0.7682 0.5471
vn 0.5193 0.0000 0.8546
vn -0.8540 0.0000 0.5202
vn -0.9737 0.0000 0.2279
vn -0.7655 0.0000 -0.6434
vn -0.2184 0.0000 -0.9759
vn 0.6508 0.0000 -0.7592
vn 0.8552 0.0000 -0.5184
vn 0.9796 0.0000 -0.2010
vn 0.7787 0.0000 0.6274
vn 0.1982 0.0000 0.9802
vn -0.6297 0.0000 0.7769
vn 0.8546 0.0000 -0.5193
vn 0.6436 0.0000 -0.7653
vn -0.2187 0.0000 -0.9758
vn -0.7653 0.0000 -0.6436
vn -0.9758 0.0000 0.2187
vn -0.6436 0.0000 0.7653
vn 0.2187 0.0000 0.9758
vn 0.7653 0.0000 0.6436
vn 0.9758 0.0000 -0.2187
vt 1.0000 0.1524 0.0000
vt 1.0000 0.8476 0.0000
vt 0.9792 0.9619 0.0000
vt 0.9169 1.0000 0.0000
vt 0.0831 1.0000 0.0000
vt 0.0208 0.9619 0.0000
vt 0.0000 0.8476 0.0000
vt 0.0831 0.0000 0.0000
vt 0.0000 0.1524 0.0000
vt 0.0208 0.0381 0.0000
vt 0.9792 0.0381 0.0000
vt 0.9169 0.0000 0.0000
vt 0.2884 0.2320 0.0000
vt 0.2982 0.0541 0.0000
vt 0.3157 0.0541 0.0000
vt 0.2978 0.7834 0.0000
vt 0.3250 0.1875 0.0000
vt 0.3258 0.5343 0.0000
vt 0.3161 0.7389 0.0000
vt 0.2884 0.5610 0.0000
vt 0.1524 0.0000 0.0000
vt 0.8476 0.0000 0.0000
vt 0.8476 1.0000 0.0000
vt 0.1524 1.0000 0.0000
vt 0.7011 0.5275 0.0000
vt 0.7017 0.2672 0.0000
vt 0.7154 0.1211 0.0000
vt 0.7421 0.2519 0.0000
vt 0.7319 0.1296 0.0000
vt 0.7433 0.5125 0.0000
vt 0.7359 0.6994 0.0000
vt 0.7154 0.6826 0.0000
vt -0.9177 1.0000 0.0000
vt -1.9879 1.0000 0.0000
vt -1.9879 -0.0000 0.0000
vt -0.9177 -0.0000 0.0000
vt 1.9177 0.0000 0.0000
vt 2.9879 0.0000 0.0000
vt 2.9879 1.0000 0.0000
vt 1.9177 1.0000 0.0000
vt -1.7823 1.0000 0.0000
vt -3.6477 1.0000 0.0000
vt -3.6477 -0.0000 0.0000
vt -1.7823 -0.0000 0.0000
vt 0.2972 0.6691 0.0000
vt 0.1917 0.6573 0.0000
vt 0.1883 0.2129 0.0000
vt 0.2977 0.2118 0.0000
f -184/-48/-92 -183/-47/-92 -182/-46/-92 -181/-45/-92
f -181/-45/-92 -180/-44/-92 -179/-43/-92 -178/-42/-92
f -184/-48/-92 -181/-45/-92 -178/-42/-92 -177/-41/-92
f -178/-42/-92 -176/-40/-92 -175/-39/-92 -177/-41/-92
f -174/-38/-92 -184/-48/-92 -177/-41/-92 -173/-37/-92
f -172/-36/-91 -171/-35/-91 -170/-34/-91 -169/-33/-90
f -170/-34/-91 -168/-32/-91 -167/-31/-90 -169/-33/-90
f -167/-31/-90 -166/-30/-89 -165/-44/-88 -173/-41/-87
f -173/-41/-87 -177/-37/-86 -164/-45/-85 -167/-31/-90
f -164/-45/-85 -165/-44/-88 -166/-30/-89 -167/-31/-90
f -167/-31/-84 -166/-30/-84 -169/-33/-90
f -163/-29/-91 -172/-36/-91 -169/-33/-90
f -176/-28/-83 -178/-27/-82 -162/-26/-82 -161/-25/-83
f -180/-41/-81 -181/-37/-80 -160/-45/-80 -159/-44/-81
f -158/-24/-79 -157/-23/-79 -156/-22/-79 -155/-21/-79
f -156/-22/-79 -154/-20/-79 -155/-21/-79
f -158/-24/-79 -155/-21/-79 -153/-19/-79 -152/-18/-79
f -158/-24/-79 -152/-18/-79 -151/-17/-79
f -150/-16/-78 -164/-15/-85 -177/-14/-86 -175/-13/-78
f -174/-12/-77 -173/-11/-87 -165/-10/-88 -149/-9/-77
f -148/-8/-76 -162/-7/-82 -178/-6/-82 -179/-5/-76
f -147/-16/-75 -160/-15/-80 -181/-14/-80 -182/-13/-75
f -161/-25/-83 -150/-16/-74 -175/-13/-74 -176/-28/-83
f -184/-27/-73 -174/-12/-73 -149/-9/-73 -146/-26/-73
f -159/-44/-81 -148/-8/-72 -179/-5/-72 -180/-41/-81
f -145/-25/-71 -147/-16/-71 -182/-13/-71 -183/-28/-71
f -144/-41/-70 -143/-37/-70 -142/-37/-70 -141/-41/-70
f -143/-37/-70 -140/-38/-70 -139/-38/-70 -142/-37/-70
f -140/-38/-70 -138/-48/-70 -137/-48/-70 -139/-38/-70
f -138/-48/-70 -136/-47/-70 -135/-47/-70 -137/-48/-70
f -136/-47/-70 -134/-46/-70 -133/-46/-70 -135/-47/-70
f -134/-46/-70 -132/-45/-70 -131/-45/-70 -133/-46/-70
f -132/-45/-70 -130/-44/-70 -129/-44/-70 -131/-45/-70
f -130/-44/-70 -128/-43/-70 -127/-43/-70 -129/-44/-70
f -128/-43/-70 -126/-42/-70 -125/-42/-70 -127/-43/-70
f -126/-42/-70 -124/-40/-70 -123/-40/-70 -125/-42/-70
f -124/-40/-70 -122/-39/-70 -121/-39/-70 -123/-40/-70
f -122/-39/-70 -144/-41/-70 -141/-41/-70 -121/-39/-70
f -120/-41/-69 -119/-37/-68 -118/-37/-68 -117/-41/-69
f -119/-37/-68 -116/-38/-67 -115/-38/-67 -118/-37/-68
f -116/-38/-66 -114/-48/-65 -113/-48/-65 -115/-38/-66
f -114/-48/-65 -112/-47/-64 -111/-47/-64 -113/-48/-65
f -112/-47/-64 -110/-46/-63 -109/-46/-63 -111/-47/-64
f -110/-46/-62 -108/-45/-61 -107/-45/-61 -109/-46/-62
f -108/-45/-61 -106/-44/-60 -105/-44/-60 -107/-45/-61
f -106/-44/-60 -104/-43/-59 -103/-43/-59 -105/-44/-60
f -104/-43/-58 -102/-42/-57 -101/-42/-57 -103/-43/-58
f -102/-42/-57 -100/-40/-56 -99/-40/-56 -101/-42/-57
f -100/-40/-56 -98/-39/-55 -97/-39/-55 -99/-40/-56
f -98/-39/-54 -120/-41/-69 -117/-41/-69 -97/-39/-54
f -96/-18/-53 -95/-17/-53 -94/-17/-53 -93/-18/-53
f -95/-17/-52 -92/-24/-52 -91/-24/-52 -94/-17/-52
f -92/-24/-51 -90/-23/-51 -89/-23/-51 -91/-24/-51
f -90/-23/-50 -88/-22/-50 -87/-22/-50 -89/-23/-50
f -88/-22/-49 -86/-20/-49 -85/-20/-49 -87/-22/-49
f -86/-20/-48 -84/-21/-48 -83/-21/-48 -85/-20/-48
f -84/-21/-47 -82/-19/-47 -81/-19/-47 -83/-21/-47
f -82/-19/-46 -96/-18/-46 -93/-18/-46 -81/-19/-46
f -93/-18/-79 -94/-17/-79 -80/-17/-79 -79/-18/-79
f -94/-17/-79 -91/-24/-79 -78/-24/-79 -80/-17/-79
f -91/-24/-79 -89/-23/-79 -77/-23/-79 -78/-24/-79
f -89/-23/-79 -87/-22/-79 -76/-22/-79 -77/-23/-79
f -87/-22/-79 -85/-20/-79 -75/-20/-79 -76/-22/-79
f -85/-20/-79 -83/-21/-79 -74/-21/-79 -75/-20/-79
f -83/-21/-79 -81/-19/-79 -73/-19/-79 -74/-21/-79
f -81/-19/-79 -93/-18/-79 -79/-18/-79 -73/-19/-79
f -79/-18/-45 -80/-17/-45 -151/-17/-45 -152/-18/-45
f -80/-17/-44 -78/-24/-44 -158/-24/-44 -151/-17/-44
f -78/-24/-43 -77/-23/-43 -157/-23/-43 -158/-24/-43
f -77/-23/-42 -76/-22/-42 -156/-22/-42 -157/-23/-42
f -76/-22/-41 -75/-20/-41 -154/-20/-41 -156/-22/-41
f -75/-20/-40 -74/-21/-40 -155/-21/-40 -154/-20/-40
f -74/-21/-39 -73/-19/-39 -153/-19/-39 -155/-21/-39
f -73/-19/-38 -79/-18/-38 -152/-18/-38 -153/-19/-38
f -92/-24/-79 -95/-17/-79 -72/-4/-79 -90/-23/-79
f -72/-4/-37 -67/-3/-37 -66/-3/-37 -65/-4/-37
f -67/-3/-36 -64/-2/-36 -63/-2/-36 -66/-3/-36
f -64/-2/-35 -62/-1/-35 -61/-1/-35 -63/-2/-35
f -62/-1/-34 -72/-4/-34 -65/-4/-34 -61/-1/-34
f -65/-4/-79 -66/-3/-79 -60/-3/-79 -59/-4/-79
f -66/-3/-79 -63/-2/-79 -58/-2/-79 -60/-3/-79
f -63/-2/-79 -61/-1/-79 -57/-1/-79 -58/-2/-79
f -61/-1/-79 -65/-4/-79 -59/-4/-79 -57/-1/-79
f -59/-4/-33 -60/-3/-33 -70/-3/-33 -71/-4/-33
f -60/-3/-32 -58/-2/-32 -69/-2/-32 -70/-3/-32
f -58/-2/-31 -57/-1/-31 -68/-1/-31 -69/-2/-31
f -57/-1/-30 -59/-4/-30 -71/-4/-30 -68/-1/-30
f -165/-41/-70 -164/-37/-70 -48/-37/-70 -47/-41/-70
f -164/-37/-70 -150/-38/-70 -46/-38/-70 -48/-37/-70
f -150/-38/-70 -161/-48/-70 -45/-48/-70 -46/-38/-70
f -161/-48/-70 -162/-47/-70 -44/-47/-70 -45/-48/-70
f -162/-47/-70 -148/-46/-70 -43/-46/-70 -44/-47/-70
f -148/-46/-70 -159/-45/-70 -42/-45/-70 -43/-46/-70
f -159/-45/-70 -160/-44/-70 -41/-44/-70 -42/-45/-70
f -160/-44/-70 -147/-43/-70 -40/-43/-70 -41/-44/-70
f -147/-43/-70 -145/-42/-70 -39/-42/-70 -40/-43/-70
f -145/-42/-70 -146/-40/-70 -38/-40/-70 -39/-42/-70
f -146/-40/-70 -149/-39/-70 -37/-39/-70 -38/-40/-70
f -149/-39/-70 -165/-41/-70 -47/-41/-70 -37/-39/-70
f -119/-37/-70 -120/-41/-70 -141/-41/-70 -142/-37/-70
f -120/-41/-70 -98/-39/-70 -121/-39/-70 -141/-41/-70
f -98/-39/-70 -100/-40/-70 -123/-40/-70 -121/-39/-70
f -100/-40/-70 -102/-42/-70 -125/-42/-70 -123/-40/-70
f -102/-42/-70 -104/-43/-70 -127/-43/-70 -125/-42/-70
f -104/-43/-70 -106/-44/-70 -129/-44/-70 -127/-43/-70
f -106/-44/-70 -108/-45/-70 -131/-45/-70 -129/-44/-70
f -108/-45/-70 -110/-46/-70 -133/-46/-70 -131/-45/-70
f -110/-46/-70 -112/-47/-70 -135/-47/-70 -133/-46/-70
f -112/-47/-70 -114/-48/-70 -137/-48/-70 -135/-47/-70
f -114/-48/-70 -116/-38/-70 -139/-38/-70 -137/-48/-70
f -116/-38/-70 -119/-37/-70 -142/-37/-70 -139/-38/-70
f -36/-37/-70 -35/-37/-70 -34/-41/-70 -33/-41/-70
f -32/-38/-70 -31/-38/-70 -35/-37/-70 -36/-37/-70
f -30/-48/-70 -29/-48/-70 -31/-38/-70 -32/-38/-70
f -28/-47/-70 -27/-47/-70 -29/-48/-70 -30/-48/-70
f -26/-46/-70 -25/-46/-70 -27/-47/-70 -28/-47/-70
f -24/-45/-70 -23/-45/-70 -25/-46/-70 -26/-46/-70
f -22/-44/-70 -21/-44/-70 -23/-45/-70 -24/-45/-70
f -20/-43/-70 -19/-43/-70 -21/-44/-70 -22/-44/-70
f -18/-42/-70 -17/-42/-70 -19/-43/-70 -20/-43/-70
f -16/-40/-70 -15/-40/-70 -17/-42/-70 -18/-42/-70
f -14/-39/-70 -13/-39/-70 -15/-40/-70 -16/-40/-70
f -33/-41/-70 -34/-41/-70 -13/-39/-70 -14/-39/-70
f -12/-37/-70 -36/-37/-70 -33/-41/-70 -11/-41/-70
f -10/-38/-70 -32/-38/-70 -36/-37/-70 -12/-37/-70
f -9/-48/-70 -30/-48/-70 -32/-38/-70 -10/-38/-70
f -8/-47/-70 -28/-47/-70 -30/-48/-70 -9/-48/-70
f -7/-46/-70 -26/-46/-70 -28/-47/-70 -8/-47/-70
f -6/-45/-70 -24/-45/-70 -26/-46/-70 -7/-46/-70
f -5/-44/-70 -22/-44/-70 -24/-45/-70 -6/-45/-70
f -4/-43/-70 -20/-43/-70 -22/-44/-70 -5/-44/-70
f -3/-42/-70 -18/-42/-70 -20/-43/-70 -4/-43/-70
f -2/-40/-70 -16/-40/-70 -18/-42/-70 -3/-42/-70
f -1/-39/-70 -14/-39/-70 -16/-40/-70 -2/-40/-70
f -11/-41/-70 -33/-41/-70 -14/-39/-70 -1/-39/-70
f -143/-37/-19 -144/-41/-19 -34/-41/-19 -35/-37/-19
f -144/-41/-18 -122/-39/-18 -13/-39/-18 -34/-41/-18
f -122/-39/-17 -124/-40/-17 -15/-40/-17 -13/-39/-17
f -124/-40/-79 -126/-42/-79 -17/-42/-79 -15/-40/-79
f -126/-42/-16 -128/-43/-16 -19/-43/-16 -17/-42/-16
f -128/-43/-15 -130/-44/-15 -21/-44/-15 -19/-43/-15
f -130/-44/-14 -132/-45/-14 -23/-45/-14 -21/-44/-14
f -132/-45/-13 -134/-46/-13 -25/-46/-13 -23/-45/-13
f -134/-46/-12 -136/-47/-12 -27/-47/-12 -25/-46/-12
f -136/-47/-20 -138/-48/-20 -29/-48/-20 -27/-47/-20
f -138/-48/-11 -140/-38/-11 -31/-38/-11 -29/-48/-11
f -140/-38/-10 -143/-37/-10 -35/-37/-10 -31/-38/-10
f -47/-41/-9 -48/-37/-9 -12/-37/-9 -11/-41/-9
f -48/-37/-8 -46/-38/-8 -10/-38/-8 -12/-37/-8
f -46/-38/-7 -45/-48/-7 -9/-48/-7 -10/-38/-7
f -45/-48/-79 -44/-47/-79 -8/-47/-79 -9/-48/-79
f -44/-47/-6 -43/-46/-6 -7/-46/-6 -8/-47/-6
f -43/-46/-5 -42/-45/-5 -6/-45/-5 -7/-46/-5
f -42/-45/-90 -41/-44/-90 -5/-44/-90 -6/-45/-90
f -41/-44/-4 -40/-43/-4 -4/-43/-4 -5/-44/-4
f -40/-43/-3 -39/-42/-3 -3/-42/-3 -4/-43/-3
f -39/-42/-20 -38/-40/-20 -2/-40/-20 -3/-42/-20
f -38/-40/-2 -37/-39/-2 -1/-39/-2 -2/-40/-2
f -37/-39/-1 -47/-41/-1 -11/-41/-1 -1/-39/-1
f -82/-19/-79 -84/-21/-79 -146/-26/-79 -96/-18/-79
f -95/-17/-79 -96/-18/-79 -146/-26/-79 -72/-4/-79
f -145/-25/-79 -183/-28/-79 -64/-2/-79 -67/-3/-79
f -146/-26/-79 -145/-25/-79 -67/-3/-79 -72/-4/-79
f -62/-1/-79 -64/-2/-79 -183/-28/-79 -88/-22/-79
f -184/-27/-79 -146/-26/-79 -84/-21/-79 -86/-20/-79
f -183/-28/-79 -184/-27/-79 -86/-20/-79 -88/-22/-79
f -62/-1/-79 -88/-22/-79 -90/-23/-79
f -90/-23/-79 -72/-4/-79 -62/-1/-79
v -0.03357 0.002919 0.065564
v -0.03357 0.004707 0.065564
v -0.022942 0.004707 0.083289
v -0.022942 0.002919 0.083289
v -0.035286 0.002919 0.066602
v -0.024658 0.002919 0.084328
v -0.024658 0.004707 0.084328
v -0.035286 0.004707 0.066602
vn 0.8555 0.0000 -0.5177
vn -0.8555 -0.0000 0.5177
vn -0.0000 -1.0000 0.0000
vn 0.5142 -0.0000 0.8576
vn 0.0000 1.0000 -0.0000
vn -0.5142 0.0000 -0.8576
vt 1.0000 0.0000 0.0000
vt 1.0000 1.0000 0.0000
vt 0.0000 1.0000 0.0000
vt 0.0000 0.0000 0.0000
